<?xml version="1.0" encoding="utf-8"?>
<!-- Generator: Adobe Illustrator 23.1.0, SVG Export Plug-In . SVG Version: 6.00 Build 0)  -->
<svg version="1.1" id="Layer_1" xmlns="http://www.w3.org/2000/svg" xmlns:xlink="http://www.w3.org/1999/xlink" x="0px" y="0px"
	 viewBox="0 0 800 800" style="enable-background:new 0 0 800 800;" xml:space="preserve">
<style type="text/css">
	.st0{opacity:0.74;}
	.st1{display:none;}
	.st2{display:inline;fill:none;stroke:#0000FF;stroke-width:1.4786;}
	.st3{opacity:0.2;}
	.st4{fill:none;stroke:#0000FF;stroke-width:1.4786;}
	.st5{opacity:0.2;fill:none;stroke:#0000FF;stroke-width:1.4786;}
	.st6{fill:#9E005D;}
</style>
<g id="layer1" transform="matrix(7.2343899,0,0,7.1236264,1034.03,-171.06698)" class="st0">
	<g id="g27338" transform="matrix(2.093573,0,0,2.093573,271.75339,304.76991)">
		<g id="g27340" class="st1">
			<path id="path27342" class="st2" d="M-172.8-85c-0.7,0-0.9-10.2-0.4-22.8s1.5-22.7,2.2-22.7c0,0,0,0,0,0"/>
			<path id="path27344" class="st2" d="M-176.3-85.4c-3.3-0.6-4-11.2-1.5-23.5c2.4-12.3,7.1-21.8,10.4-21.1c0,0,0,0,0,0"/>
			<path id="path27346" class="st2" d="M-180.1-86.5c-5.4-2.1-6-13.2-1.5-25c4.5-11.7,12.5-19.5,17.9-17.4c0,0,0,0,0,0"/>
			<path id="path27348" class="st2" d="M-184.4-88.7c-6.5-4.3-6.1-16.2,0.8-26.7s17.8-15.5,24.2-11.2c0,0,0,0,0,0"/>
			<path id="path27350" class="st2" d="M-189.2-93c-6-7-3.1-19.3,6.5-27.5c9.6-8.1,22.2-9,28.2-2c0,0,0,0,0,0"/>
			<path id="path27352" class="st2" d="M-193.4-100.4c-3.2-9.6,3.8-20.6,15.7-24.6c11.9-4,24.2,0.5,27.4,10c0,0,0,0,0,0"/>
			<path id="path27354" class="st2" d="M-194.4-110.5c1.2-10.2,12.3-17.2,24.8-15.7c12.5,1.5,21.6,11,20.3,21.2"/>
			<path id="path27356" class="st2" d="M-191.4-119.4c5-8.3,17.8-9.9,28.5-3.4c10.8,6.5,15.4,18.5,10.4,26.8"/>
			<path id="path27358" class="st2" d="M-186.6-125c6.5-5.5,18.3-2.2,26.5,7.3s9.5,21.8,3,27.3"/>
			<path id="path27360" class="st2" d="M-182-128c6-3,15.5,3.7,21.1,14.9s5.2,22.8-0.8,25.8"/>
			<path id="path27362" class="st2" d="M-178-129.6c4.3-1.2,10.6,7.6,14,19.7c3.4,12.1,2.6,22.9-1.7,24.1"/>
			<path id="path27364" class="st2" d="M-174.4-130.3c1.9-0.2,4.7,9.7,6,22.2s0.9,22.8-1,23"/>
		</g>
		<g id="g27366" class="st3">
			<path id="path27368" class="st4" d="M-168.3-85.3c-2.3,0.4-4.8,0.4-7.1,0"/>
			<path id="path27370" class="st4" d="M-160.4-88.1c-6.2,3.6-16.4,3.7-22.7,0.1c-0.1,0-0.1-0.1-0.2-0.1"/>
			<path id="path27372" class="st4" d="M-156-91.4c-5.2,5-16.4,6.7-25.2,3.7c-2.7-0.9-4.9-2.2-6.5-3.7"/>
			<path id="path27374" class="st4" d="M-153-95.1c-4,6-15.7,9-26.1,6.7c-5.4-1.2-9.6-3.6-11.7-6.7"/>
			<path id="path27376" class="st4" d="M-150.8-99.1c-2.7,6.7-14.3,10.8-26,9.3c-8-1.1-14.3-4.7-16.1-9.3"/>
			<path id="path27378" class="st4" d="M-149.6-103.4c-1.4,7.1-12.5,12.2-24.8,11.4c-10.4-0.7-18.7-5.4-19.8-11.4"/>
			<path id="path27380" class="st4" d="M-149.2-107.7c0,7.2-10.2,13-22.7,13c-12.6,0-22.7-5.8-22.7-13c0,0,0,0,0,0"/>
			<path id="path27382" class="st4" d="M-149.6-112c1.4,7.1-7.5,13.4-19.8,14.2c-12.3,0.8-23.4-4.3-24.8-11.4
				c-0.2-0.9-0.2-1.9,0-2.9"/>
			<path id="path27384" class="st4" d="M-150.8-116.3c2.7,6.7-4.5,13.3-16.1,14.9c-11.6,1.6-23.2-2.6-26-9.3c-0.8-1.9-0.8-3.8,0-5.6
				"/>
			<path id="path27386" class="st4" d="M-153-120.3c4,6-1.2,12.7-11.7,15c-10.4,2.3-22.2-0.7-26.1-6.7c-1.8-2.7-1.8-5.6,0-8.3"/>
			<path id="path27388" class="st4" d="M-156-124c5.2,5,2.3,11.5-6.5,14.4c-8.7,3-20,1.3-25.2-3.7c-3.4-3.3-3.4-7.4,0-10.7"/>
			<path id="path27390" class="st4" d="M-160.4-127.3c6.2,3.6,6.1,9.5-0.2,13s-16.5,3.5-22.7-0.1c-6.1-3.6-6.1-9.3,0-12.9"/>
			<path id="path27392" class="st4" d="M-168.3-130.2c7.1,1.1,11.3,5.4,9.3,9.4s-9.3,6.5-16.4,5.3s-11.3-5.4-9.3-9.4
				c1.3-2.6,4.8-4.6,9.3-5.3"/>
			<path id="path27394" class="st4" d="M-161.6-124.3c0,3.3-4.6,5.9-10.3,5.9s-10.3-2.6-10.3-5.9c0-3.3,4.6-5.9,10.3-5.9
				S-161.6-127.6-161.6-124.3z"/>
			<path id="path27396" class="st4" d="M-164.9-125.4c0,2.2-3.1,4-7,4s-7-1.8-7-4s3.1-4,7-4S-164.9-127.6-164.9-125.4z"/>
			<path id="path27398" class="st4" d="M-168.3-126.1c0,1.1-1.6,2-3.6,2s-3.6-0.9-3.6-2c0-1.1,1.6-2,3.6-2S-168.3-127.2-168.3-126.1
				z"/>
		</g>
		<path id="path27400" class="st5" d="M-149.2-107.7c0,12.6-10.2,22.7-22.7,22.7c-12.6,0-22.7-10.2-22.7-22.7s10.2-22.7,22.7-22.7
			C-159.3-130.4-149.2-120.3-149.2-107.7z"/>
	</g>
</g>
<g>
	<g class="st0">
		<path class="st6" d="M223.4,370.4v-96.7h36.2c9.2,0,17.4,1.9,24.6,5.8c7.2,3.8,12.8,9.4,16.9,16.6c4.1,7.2,6.1,15.9,6.1,26
			c0,10.1-2,18.8-6.1,26c-4.1,7.2-9.7,12.7-16.9,16.6c-7.2,3.8-15.4,5.8-24.6,5.8H223.4z M241.1,354.7h18.5c6.3,0,11.5-1.3,15.7-3.9
			c4.2-2.6,7.3-6.4,9.5-11.3c2.1-4.9,3.2-10.7,3.2-17.4c0-6.7-1.1-12.5-3.2-17.4c-2.1-4.9-5.3-8.6-9.5-11.3
			c-4.2-2.6-9.4-3.9-15.7-3.9h-18.5V354.7z"/>
		<path class="st6" d="M353.1,291h4.6l-27.9,79.4h-17.1l34.4-96.7h16.7l34.4,96.7H381L353.1,291z M375.7,347.5h-40.5V332h40.5V347.5
			z"/>
		<path class="st6" d="M409.2,370.4v-96.7h34.4c7.4,0,13.7,1.1,18.8,3.3c5.1,2.2,9,5.6,11.6,10.2c2.6,4.6,4,10.5,4,17.7
			c0,7.3-1.3,13.3-3.9,18c-2.6,4.7-6.5,8.2-11.5,10.5c-5.1,2.3-11.2,3.4-18.5,3.4h-17.1v33.6H409.2z M426.9,322.1H442
			c6,0,10.6-1.4,13.6-4.1c3-2.7,4.5-7,4.5-12.8c0-5.8-1.5-10-4.6-12.7c-3.1-2.7-7.7-4-13.9-4h-14.6V322.1z"/>
		<path class="st6" d="M491.6,370.4v-96.7H526c7.4,0,13.7,1.1,18.8,3.3c5.1,2.2,9,5.6,11.6,10.2c2.6,4.6,4,10.5,4,17.7
			c0,7.3-1.3,13.3-3.9,18c-2.6,4.7-6.5,8.2-11.5,10.5c-5.1,2.3-11.2,3.4-18.5,3.4h-17.1v33.6H491.6z M509.2,322.1h15.1
			c6,0,10.6-1.4,13.6-4.1c3-2.7,4.5-7,4.5-12.8c0-5.8-1.5-10-4.6-12.7c-3.1-2.7-7.7-4-13.9-4h-14.6V322.1z"/>
		<path class="st6" d="M70.6,536.2v-96.7h36.5c9.3,0,16.3,2,20.8,6c4.5,4,6.8,9.8,6.8,17.4c0,5.7-1.3,10.4-3.8,14.2
			c-2.6,3.8-6.4,6.6-11.5,8.3v-3.3c7.7,1.7,13.5,4.7,17.3,9.1c3.8,4.4,5.7,10.3,5.7,17.5c0,8.7-2.8,15.5-8.4,20.3
			c-5.6,4.8-13.3,7.2-23.1,7.2H70.6z M88.3,477.5h16.2c4.3,0,7.5-0.9,9.6-2.6c2.1-1.8,3.2-4.6,3.2-8.4c0-4-1.1-6.9-3.2-8.6
			c-2.1-1.7-5.4-2.6-9.6-2.6H88.3V477.5z M88.3,520.5h20c4.8,0,8.7-1,11.6-3c2.9-2,4.3-5.5,4.3-10.7c0-5.2-1.5-8.8-4.6-10.7
			c-3-1.9-6.8-2.8-11.3-2.8h-20V520.5z"/>
		<path class="st6" d="M157.1,536.2v-96.7h35.4c6.7,0,12.5,1.1,17.5,3.2c5,2.1,8.9,5.3,11.6,9.7c2.8,4.3,4.1,9.8,4.1,16.4
			c0,7.1-1.5,12.7-4.5,16.9c-3,4.2-7,7.5-11.9,9.9l21.8,40.6h-19.8l-18.6-35.9c-0.1,0-0.3,0-0.3,0c-0.1,0-0.2,0-0.3,0h-17.3v35.9
			H157.1z M174.8,485.5h13c7.3,0,12.3-1.5,15.2-4.5c2.9-3,4.3-6.7,4.3-11.3c0-4.8-1.4-8.6-4.2-11.4c-2.8-2.7-7.7-4.1-14.6-4.1h-13.7
			V485.5z"/>
		<path class="st6" d="M285.5,538.2c-9.2,0-17.4-2.1-24.6-6.3c-7.2-4.2-12.8-10-16.9-17.5c-4.1-7.5-6.1-16.4-6.1-26.5
			c0-10.1,2-19,6.1-26.5c4.1-7.5,9.7-13.4,16.9-17.5c7.2-4.2,15.4-6.3,24.6-6.3c9.2,0,17.4,2.1,24.6,6.3c7.2,4.2,12.8,10,16.9,17.5
			c4.1,7.5,6.1,16.4,6.1,26.5c0,10.1-2,19-6.1,26.5s-9.7,13.4-16.9,17.5C302.9,536.1,294.7,538.2,285.5,538.2z M285.5,521
			c6.4,0,11.8-1.4,16.2-4.3c4.3-2.9,7.6-6.8,9.7-11.8c2.2-5,3.2-10.7,3.2-17.1c0-6.4-1.1-12.1-3.2-17.1c-2.2-5-5.4-8.9-9.7-11.8
			c-4.3-2.9-9.7-4.3-16.2-4.3c-6.4,0-11.8,1.4-16.2,4.3c-4.3,2.9-7.6,6.8-9.7,11.8c-2.2,5-3.2,10.7-3.2,17.1
			c0,6.4,1.1,12.1,3.2,17.1c2.2,5,5.4,8.9,9.7,11.8C273.6,519.6,279,521,285.5,521z"/>
		<path class="st6" d="M366.5,536.2l-27.2-96.7h18.4l19.3,68.7l21.6-68.7h12.3l22.4,66.9l18.5-66.9h18.4l-28.3,96.7h-15.6
			l-21.5-64.5l-21.4,64.5H366.5z"/>
		<path class="st6" d="M509.7,538.2c-3.9,0-7.9-0.4-12.1-1.1c-4.1-0.8-8-1.7-11.5-2.8c-3.5-1.1-6.4-2.1-8.4-3.1l2.1-18.8
			c3.2,1.6,6.6,3,10.1,4.4c3.5,1.3,7.1,2.4,10.8,3.2c3.7,0.8,7.4,1.2,11.2,1.2c4.7,0,8.5-0.9,11.3-2.8c2.9-1.8,4.3-4.7,4.3-8.4
			c0-2.9-0.8-5.2-2.4-7c-1.6-1.8-4.1-3.4-7.4-4.8c-3.3-1.4-7.6-3-12.7-4.8c-5.2-1.8-9.8-3.8-13.9-6.1c-4.1-2.3-7.3-5.2-9.7-8.7
			c-2.4-3.5-3.6-8-3.6-13.4c0-5.3,1.3-10.1,3.9-14.3c2.6-4.2,6.6-7.4,11.8-9.8c5.2-2.4,11.7-3.6,19.5-3.6c5.9,0,11.5,0.7,16.9,2
			c5.3,1.3,9.9,2.7,13.7,4.2l-1.8,18.1c-5.4-2.4-10.5-4.3-15.3-5.6s-9.6-1.9-14.5-1.9c-5.2,0-9.1,0.9-11.9,2.6
			c-2.8,1.7-4.2,4.3-4.2,7.7c0,2.7,0.8,4.9,2.3,6.6s3.8,3.1,6.7,4.2c2.9,1.2,6.4,2.4,10.4,3.7c7,2.2,12.9,4.6,17.6,7.3
			c4.8,2.6,8.4,5.8,10.8,9.6c2.4,3.8,3.6,8.4,3.6,13.9c0,2.8-0.4,5.8-1.3,9c-0.9,3.2-2.6,6.3-5.2,9.2c-2.6,2.9-6.3,5.3-11.3,7.1
			C524.4,537.2,517.8,538.2,509.7,538.2z"/>
		<path class="st6" d="M561.7,536.2v-96.7h61.9v17.1h-43.8v20.6h34v17.1h-34v24.7H625v17.1H561.7z"/>
		<path class="st6" d="M640.2,536.2v-96.7h35.4c6.7,0,12.5,1.1,17.5,3.2c5,2.1,8.9,5.3,11.6,9.7c2.8,4.3,4.1,9.8,4.1,16.4
			c0,7.1-1.5,12.7-4.5,16.9c-3,4.2-7,7.5-11.9,9.9l21.8,40.6h-19.8l-18.6-35.9c-0.1,0-0.3,0-0.3,0c-0.1,0-0.2,0-0.3,0h-17.3v35.9
			H640.2z M657.9,485.5h13c7.3,0,12.3-1.5,15.2-4.5c2.9-3,4.3-6.7,4.3-11.3c0-4.8-1.4-8.6-4.2-11.4c-2.8-2.7-7.7-4.1-14.6-4.1h-13.7
			V485.5z"/>
	</g>
</g>
</svg>
