<?xml version="1.0" encoding="utf-8"?>
<!-- Generator: Adobe Illustrator 23.1.0, SVG Export Plug-In . SVG Version: 6.00 Build 0)  -->
<svg version="1.1" id="Layer_1" xmlns="http://www.w3.org/2000/svg" xmlns:xlink="http://www.w3.org/1999/xlink" x="0px" y="0px"
	 viewBox="0 0 513 514" style="enable-background:new 0 0 513 514;" xml:space="preserve">
<style type="text/css">
	.st0{fill:#161616;}
	.st1{fill:#E17726;stroke:#E17726;stroke-linecap:round;stroke-linejoin:round;}
	.st2{fill:#E27625;stroke:#E27625;stroke-linecap:round;stroke-linejoin:round;}
	.st3{fill:#D5BFB2;stroke:#D5BFB2;stroke-linecap:round;stroke-linejoin:round;}
	.st4{fill:#233447;stroke:#233447;stroke-linecap:round;stroke-linejoin:round;}
	.st5{fill:#CC6228;stroke:#CC6228;stroke-linecap:round;stroke-linejoin:round;}
	.st6{fill:#E27525;stroke:#E27525;stroke-linecap:round;stroke-linejoin:round;}
	.st7{fill:#F5841F;stroke:#F5841F;stroke-linecap:round;stroke-linejoin:round;}
	.st8{fill:#C0AC9D;stroke:#C0AC9D;stroke-linecap:round;stroke-linejoin:round;}
	.st9{fill:#161616;stroke:#161616;stroke-linecap:round;stroke-linejoin:round;}
	.st10{fill:#763E1A;stroke:#763E1A;stroke-linecap:round;stroke-linejoin:round;}
</style>
<title>Artboard 1</title>
<path class="st0" d="M409.2,454c-3.2-2.1-6.7-3.6-10.1-5.5c-2.2-1.1-4.4-2.4-6.4-3.8c-3.2-2.6-2.5-7.8,0.8-10.1
	c4.8-3.2,12.7-1.4,13.6,5.1c0,0.1,0.1,0.3,0.3,0.3h7.2c0.2,0,0.3-0.1,0.3-0.3c0,0,0,0,0,0c-0.4-4.5-2.1-8.3-5.3-10.7
	c-2.9-2.3-6.5-3.5-10.3-3.5c-19.1,0-20.9,20.3-10.6,26.6c1.2,0.7,11.3,5.8,14.9,8s4.7,6.3,3.1,9.5c-1.4,2.9-5.1,4.9-8.7,4.7
	c-4-0.2-7.1-2.4-8.2-5.8c-0.2-0.8-0.3-1.5-0.3-2.3c0-0.2-0.1-0.3-0.3-0.3h-7.9c-0.2,0-0.3,0.1-0.3,0.3c0,5.7,1.4,8.8,5.2,11.7
	c3.3,2.5,7.4,3.9,11.6,3.8c10.7,0,16.3-6.1,17.4-12.3S414.8,457.7,409.2,454z"/>
<path class="st0" d="M68.8,426.5h-7.3c-0.1,0-0.2,0.1-0.3,0.2l-6.5,21.2c0,0.1-0.2,0.2-0.3,0.2c-0.1,0-0.2-0.1-0.2-0.2l-6.4-21.2
	c0-0.1-0.2-0.2-0.3-0.2H35.6c-0.2,0-0.3,0.1-0.3,0.3v54.2c0,0.2,0.1,0.3,0.3,0.3l0,0h7.9c0.2,0,0.3-0.1,0.3-0.3c0,0,0,0,0,0v-41.2
	c0-0.2,0.2-0.3,0.3-0.3c0.1,0,0.2,0.1,0.2,0.2l6.5,21.4l0.4,1.5c0,0.1,0.2,0.2,0.3,0.2h6c0.1,0,0.2-0.1,0.3-0.2l0.4-1.5l6.5-21.4
	c0.1-0.1,0.2-0.2,0.4-0.2c0.1,0,0.2,0.1,0.2,0.2v41.2c0,0.2,0.1,0.3,0.3,0.3c0,0,0,0,0,0h7.9c0.2,0,0.3-0.1,0.3-0.3l0,0v-54.2
	c0-0.2-0.1-0.3-0.3-0.3H68.8z"/>
<path class="st0" d="M289.1,426.5c-0.1,0-0.2,0.1-0.3,0.2l-6.5,21.2c-0.1,0.2-0.2,0.2-0.4,0.2c-0.1,0-0.2-0.1-0.2-0.2l-6.5-21.2
	c0-0.1-0.1-0.2-0.3-0.2h-11.9c-0.2,0-0.3,0.1-0.3,0.3v54.2c0,0.2,0.1,0.3,0.3,0.3c0,0,0,0,0,0h7.9c0.2,0,0.3-0.1,0.3-0.3v-41.2
	c0-0.2,0.2-0.3,0.3-0.3c0.1,0,0.2,0.1,0.2,0.2l6.5,21.4l0.5,1.5c0,0.1,0.1,0.2,0.3,0.2h6c0.1,0,0.2-0.1,0.3-0.2l0.5-1.5l6.5-21.4
	c0.1-0.1,0.2-0.2,0.4-0.2c0.1,0,0.2,0.1,0.2,0.2v41.2c0,0.2,0.1,0.3,0.3,0.3c0,0,0,0,0,0h7.9c0.2,0,0.3-0.1,0.3-0.3v-54.2
	c0-0.2-0.1-0.3-0.3-0.3H289.1z"/>
<path class="st0" d="M188,426.5h-37c-0.2,0-0.3,0.1-0.3,0.3v6.8c0,0.2,0.1,0.3,0.3,0.3h14.3v47.1c0,0.2,0.1,0.3,0.3,0.3c0,0,0,0,0,0
	h7.9c0.2,0,0.3-0.1,0.3-0.3v-47.1H188c0.2,0,0.3-0.1,0.3-0.3v-6.8C188.3,426.6,188.2,426.5,188,426.5z"/>
<path class="st0" d="M234.3,481.2h7.1c0.2,0,0.3-0.1,0.3-0.3c0,0,0-0.1,0-0.1L227,426.5c0-0.1-0.2-0.2-0.3-0.2h-10.3
	c-0.1,0-0.2,0.1-0.3,0.2l-14.8,54.4c0,0.2,0.1,0.3,0.2,0.4c0,0,0,0,0.1,0h7.1c0.1,0,0.2-0.1,0.3-0.2l4.3-15.8c0-0.1,0.1-0.2,0.3-0.2
	h15.8c0.1,0,0.2,0.1,0.3,0.2L234,481C234,481.1,234.1,481.2,234.3,481.2z M215.5,457.3l5.7-21.2c0.1-0.2,0.2-0.2,0.4-0.2
	c0.1,0,0.2,0.1,0.2,0.2l5.7,21.2c0,0.1,0,0.3-0.2,0.3c0,0-0.1,0-0.1,0h-11.5C215.7,457.7,215.5,457.5,215.5,457.3
	C215.5,457.3,215.5,457.3,215.5,457.3z"/>
<path class="st0" d="M356,481.2h7.1c0.2,0,0.3-0.1,0.3-0.3c0,0,0,0,0-0.1l-14.8-54.4c0-0.1-0.1-0.2-0.3-0.2h-10.2
	c-0.1,0-0.2,0.1-0.3,0.2l-14.7,54.4c0,0.2,0.1,0.3,0.2,0.4c0,0,0,0,0.1,0h7.1c0.1,0,0.2-0.1,0.3-0.2l4.3-15.8c0-0.1,0.2-0.2,0.3-0.2
	h15.8c0.1,0,0.2,0.1,0.3,0.2l4.3,15.8C355.8,481.1,355.9,481.2,356,481.2z M337.3,457.3l5.7-21.2c0.1-0.2,0.2-0.2,0.4-0.2
	c0.1,0,0.2,0.1,0.2,0.2l5.7,21.2c0,0.2-0.1,0.3-0.2,0.4c0,0,0,0-0.1,0h-11.5C337.4,457.7,337.2,457.5,337.3,457.3
	C337.2,457.4,337.3,457.3,337.3,457.3z"/>
<path class="st0" d="M105.5,473.2v-16.8c0-0.1,0.1-0.3,0.3-0.3c0,0,0,0,0,0h20.9c0.2,0,0.3-0.1,0.3-0.3v-6.8c0-0.2-0.1-0.3-0.3-0.3
	h-20.9c-0.2,0-0.3-0.1-0.3-0.3v-14.4c0-0.2,0.1-0.3,0.3-0.3c0,0,0,0,0,0h23.8c0.2,0,0.3-0.1,0.3-0.3v-6.8c0-0.2-0.1-0.3-0.3-0.3
	H97.3c-0.2,0-0.3,0.1-0.3,0.3v54.2c0,0.2,0.1,0.3,0.3,0.3c0,0,0,0,0,0h33.2c0.2,0,0.3-0.1,0.3-0.3l0,0v-7.1c0-0.2-0.1-0.3-0.3-0.3
	l0,0h-24.8C105.6,473.5,105.5,473.4,105.5,473.2C105.5,473.2,105.5,473.2,105.5,473.2z"/>
<path class="st0" d="M480.9,480.7l-27.1-28c-0.1-0.1-0.1-0.3,0-0.4c0,0,0,0,0,0l24.4-25.3c0.1-0.1,0.1-0.3,0-0.4
	c-0.1-0.1-0.1-0.1-0.2-0.1h-10c-0.1,0-0.2,0-0.2,0.1l-20.7,21.5c-0.1,0.1-0.3,0.1-0.4,0c-0.1-0.1-0.1-0.1-0.1-0.2v-21.2
	c0-0.2-0.1-0.3-0.3-0.3l0,0h-7.9c-0.2,0-0.3,0.1-0.3,0.3v54.2c0,0.2,0.1,0.3,0.3,0.3h7.9c0.2,0,0.3-0.1,0.3-0.3c0,0,0,0,0,0v-23.9
	c0-0.2,0.1-0.3,0.3-0.3c0.1,0,0.1,0,0.2,0.1l23.5,24.3c0.1,0.1,0.1,0.1,0.2,0.1h10c0.2,0,0.3-0.1,0.3-0.3
	C481,480.9,481,480.8,480.9,480.7z"/>
<polygon class="st1" points="417.4,43.4 277.9,146.9 303.8,85.8 "/>
<polygon class="st2" points="95.6,43.4 233.9,147.9 209.2,85.8 "/>
<polygon class="st2" points="367.2,283.3 330.1,340.2 409.5,362 432.2,284.6 "/>
<polygon class="st2" points="80.9,284.6 103.5,362 182.9,340.2 145.9,283.3 "/>
<polygon class="st2" points="178.6,187.2 156.4,220.7 235.1,224.2 232.5,139.5 "/>
<polygon class="st2" points="334.4,187.2 279.7,138.5 277.9,224.2 356.6,220.7 "/>
<polygon class="st2" points="182.9,340.2 230.4,317.1 189.5,285.2 "/>
<polygon class="st2" points="282.6,317.1 330.1,340.2 323.5,285.2 "/>
<polygon class="st3" points="330.1,340.2 282.6,317.1 286.4,348 286,361.1 "/>
<polygon class="st3" points="182.9,340.2 227,361.1 226.7,348 230.4,317.1 "/>
<polygon class="st4" points="227.9,264.7 188.4,253.1 216.2,240.3 "/>
<polygon class="st4" points="285.1,264.7 296.8,240.3 324.8,253.1 "/>
<polygon class="st5" points="182.9,340.2 189.8,283.3 145.9,284.6 "/>
<polygon class="st5" points="323.2,283.3 330.1,340.2 367.2,284.6 "/>
<polygon class="st5" points="356.6,220.7 277.9,224.2 285.1,264.7 296.8,240.3 324.8,253.1 "/>
<polygon class="st5" points="188.4,253.1 216.2,240.3 227.9,264.7 235.1,224.2 156.4,220.7 "/>
<polygon class="st6" points="156.4,220.7 189.5,285.2 188.4,253.1 "/>
<polygon class="st6" points="324.8,253.1 323.5,285.2 356.6,220.7 "/>
<polygon class="st6" points="235.1,224.2 227.9,264.7 237.1,312.5 239.1,249.6 "/>
<polygon class="st6" points="277.9,224.2 274.1,249.4 275.9,312.5 285.1,264.7 "/>
<polygon class="st7" points="285.1,264.7 275.9,312.5 282.6,317.1 323.5,285.2 324.8,253.1 "/>
<polygon class="st7" points="188.4,253.1 189.5,285.2 230.4,317.1 237.1,312.5 227.9,264.7 "/>
<polygon class="st8" points="286,361.1 286.4,348 282.9,345 230.1,345 226.7,348 227,361.1 182.9,340.2 198.3,352.8 229.7,374.5 
	283.3,374.5 314.7,352.8 330.1,340.2 "/>
<polygon class="st9" points="282.6,317.1 275.9,312.5 237.1,312.5 230.4,317.1 226.7,348 230.1,345 282.9,345 286.4,348 "/>
<polygon class="st10" points="423.2,153.6 435,96.5 417.4,43.4 282.6,143.4 334.4,187.2 407.7,208.7 423.8,189.8 416.8,184.7 
	428,174.5 419.5,167.8 430.7,159.2 "/>
<polygon class="st10" points="78,96.5 89.9,153.6 82.3,159.2 93.5,167.8 85,174.5 96.2,184.7 89.2,189.8 105.3,208.7 178.6,187.2 
	230.4,143.4 95.6,43.4 "/>
<polygon class="st7" points="407.7,208.7 334.4,187.2 356.6,220.7 323.5,285.2 367.2,284.6 432.2,284.6 "/>
<polygon class="st7" points="178.6,187.2 105.3,208.7 80.9,284.6 145.9,284.6 189.5,285.2 156.4,220.7 "/>
<polygon class="st7" points="277.9,224.2 282.6,143.4 303.8,85.8 209.2,85.8 230.4,143.4 235.1,224.2 237,249.7 237.1,312.5 
	275.9,312.5 276,249.7 "/>
</svg>
