<svg width="380" height="91" viewBox="0 0 380 91" fill="none" xmlns="http://www.w3.org/2000/svg">
<path d="M77.34 46.29C73.95 50.9 69.44 54.57 63.82 57.27C58.19 59.98 51.73 61.33 44.45 61.33H33.27L28.19 89.9H0L15.87 0H55.24C64.81 0 72.09 2.16 77.08 6.48C82.07 10.8 84.57 16.72 84.57 24.26C84.57 26.12 84.36 28.32 83.93 30.86C82.91 36.53 80.71 41.68 77.33 46.29H77.34ZM55.37 30.86C55.54 29.84 55.62 29.13 55.62 28.7C55.62 24.64 53.12 22.6 48.13 22.6H40.13L37.21 39.11H45.21C50.97 39.11 54.35 36.36 55.37 30.86ZM125.85 0L116.96 50.67C116.71 52.03 116.58 53.42 116.58 54.86C116.58 57.74 117.34 60 118.87 61.65C120.39 63.3 122.81 64.13 126.11 64.13C130.17 64.13 133.39 62.92 135.76 60.51C138.13 58.1 139.7 54.82 140.46 50.67L149.34 0H177.4L168.51 50.67C166.99 59.48 163.96 66.88 159.43 72.89C154.9 78.9 149.35 83.39 142.79 86.35C136.23 89.31 129.01 90.79 121.14 90.79C111.06 90.79 103.02 88.14 97.01 82.85C91 77.56 87.99 70 87.99 60.18C87.99 57.05 88.29 53.87 88.88 50.66L97.78 0H125.84H125.85ZM297.67 0L281.8 89.91H253.74L261.61 45.21L239.89 89.91H215.76L209.79 44.83L201.92 89.91H173.73L189.59 0H224.13L234.42 54.1L263.25 0H297.66H297.67ZM371.83 46.29C368.44 50.9 363.93 54.57 358.31 57.27C352.68 59.98 346.22 61.33 338.94 61.33H327.77L322.69 89.9H294.5L310.36 0H349.73C359.3 0 366.58 2.16 371.57 6.48C376.56 10.8 379.06 16.72 379.06 24.26C379.06 26.12 378.85 28.32 378.43 30.86C377.41 36.53 375.21 41.68 371.83 46.29ZM349.86 30.86C350.03 29.84 350.11 29.13 350.11 28.7C350.11 24.64 347.61 22.6 342.62 22.6H334.62L331.7 39.11H339.7C345.46 39.11 348.84 36.36 349.86 30.86Z" fill="url(#paint0_linear_4_650)"/>
<defs>
<linearGradient id="paint0_linear_4_650" x1="310.58" y1="-93.31" x2="65.57" y2="151.69" gradientUnits="userSpaceOnUse">
<stop stop-color="#00ACFD"/>
<stop offset="0.5" stop-color="#FF005B"/>
<stop offset="1" stop-color="#00FF00"/>
</linearGradient>
</defs>
</svg>
