<?xml version="1.0" encoding="utf-8"?>
<!-- Generator: Adobe Illustrator 23.1.0, SVG Export Plug-In . SVG Version: 6.00 Build 0)  -->
<svg version="1.1" id="katman_1" xmlns="http://www.w3.org/2000/svg" xmlns:xlink="http://www.w3.org/1999/xlink" x="0px" y="0px"
	 viewBox="0 0 577 507" style="enable-background:new 0 0 577 507;" xml:space="preserve">
<style type="text/css">
	.st0{display:none;opacity:9.390311e-03;}
	.st1{display:inline;}
	.st2{fill:#E6E6E6;}
	.st3{fill:#797979;}
	.st4{fill:#3E3C55;}
	.st5{fill:#FFFFFF;}
	.st6{fill:#5FBE91;}
	.st7{display:none;opacity:0.4742;}
	.st8{fill:#4D4D4D;}
	.st9{fill:#747474;}
	.st10{display:none;opacity:1.087934e-02;}
	.st11{fill:#8A8A8A;}
	.st12{fill:#4E4E4E;}
	.st13{display:none;opacity:1.057603e-02;}
	.st14{display:none;opacity:1.012066e-02;}
	.st15{fill:#5E5E5E;}
	.st16{display:none;opacity:0.8114;}
	.st17{display:none;opacity:9.095758e-03;}
	.st18{display:none;}
	.st19{display:none;opacity:2.063961e-02;}
	.st20{fill:#343434;}
	.st21{fill:#8B8B8B;}
	.st22{fill:#3B3B3A;}
	.st23{fill:#131313;}
	.st24{fill:#393939;}
	.st25{fill:#3999FA;}
	.st26{fill:#3A99FB;}
	.st27{display:none;opacity:2.587139e-02;}
	.st28{fill:#E60079;}
	.st29{display:none;opacity:2.537146e-02;}
	.st30{fill:#EC1B6C;}
	.st31{display:none;opacity:2.517080e-02;}
	.st32{fill:#00A6C4;}
	.st33{display:none;opacity:1.973308e-03;}
	.st34{fill:#0090FF;}
	.st35{fill:#529BEE;}
	.st36{display:none;opacity:2.397605e-02;}
</style>
<g>
	<g transform="matrix(0.6700000166893005,0,0,0.6700000166893005,-69.53985595703125,38.55474853515625)" class="st0">
		<g transform="matrix(1,0,0,1,551.0499877929688,1412.6600341796875)" class="st1">
			<path class="st2" d="M14.7,38.5h-85.5l2.9-37.8h79.7L14.7,38.5z"/>
		</g>
		<g transform="matrix(1,0,0,1,551.802978515625,1431.77001953125)" class="st1">
			<path class="st2" d="M-76,23.8h96v-8.5h-96V23.8z"/>
		</g>
		<g transform="matrix(1,0,0,1,551.552001953125,1253.81494140625)" class="st1">
			<path class="st3" d="M136.2-85.1h-328.4c-2.3,0-4.5,0.9-6.2,2.6c-1.6,1.6-2.6,3.9-2.6,6.2v200.5h345.8V-76.3
				c0-1.1-0.2-2.3-0.7-3.3c-0.4-1.1-1.1-2-1.9-2.8c-0.8-0.8-1.8-1.5-2.8-1.9C138.4-84.9,137.3-85.1,136.2-85.1z"/>
		</g>
		<g transform="matrix(1,0,0,1,551.552001953125,1379.3800048828125)" class="st1">
			<path class="st2" d="M-200.9-1.4v33c0,1.2,0.2,2.3,0.7,3.4c0.4,1.1,1.1,2,1.9,2.9s1.8,1.5,2.8,1.9c1.1,0.4,2.2,0.7,3.3,0.7h328.4
				c2.3,0,4.5-0.9,6.2-2.6s2.6-3.9,2.6-6.2v-33h-345.9V-1.4z"/>
		</g>
		<g transform="matrix(1,0,0,1,551.8040161132812,1255.074951171875)" class="st1">
			<path class="st2" d="M127.6-68.2h-311.2v175.5h311.2V-68.2z"/>
		</g>
		<g transform="matrix(1,0,0,1,551.8040161132812,1379.1300048828125)" class="st1">
			<path class="st4" d="M-28,28.1c4.9,0,8.8-3.8,8.8-8.6c0-4.7-3.9-8.6-8.8-8.6c-4.9,0-8.8,3.8-8.8,8.6S-32.9,28.1-28,28.1z"/>
		</g>
		<g transform="matrix(1,0,0,1,405.7760009765625,1173.135009765625)" class="st1">
			<path class="st5" d="M-28,21.3c0.8,0,1.5-0.8,1.5-1.8s-0.7-1.8-1.5-1.8s-1.5,0.8-1.5,1.8C-29.5,20.5-28.9,21.3-28,21.3z"/>
		</g>
		<g transform="matrix(1,0,0,1,412.05999755859375,1173.135009765625)" class="st1">
			<path class="st5" d="M-28,21.3c1,0,1.8-0.8,1.8-1.8s-0.8-1.8-1.8-1.8s-1.8,0.8-1.8,1.8C-29.8,20.5-29,21.3-28,21.3z"/>
		</g>
		<g transform="matrix(1,0,0,1,418.3429870605469,1173.135009765625)" class="st1">
			<path class="st5" d="M-28,21.3c0.8,0,1.5-0.8,1.5-1.8s-0.7-1.8-1.5-1.8s-1.5,0.8-1.5,1.8C-29.5,20.5-28.9,21.3-28,21.3z"/>
		</g>
		<g transform="matrix(1,0,0,1,551.301025390625,1252.5550537109375)" class="st1">
			<path class="st5" d="M119-54.1h-294.1V93.2H119V-54.1z"/>
		</g>
		<g transform="matrix(1,0,0,1,454.2850036621094,1228.60498046875)" class="st1">
			<path class="st2" d="M-58.4-7.9c-0.3,0-0.5,0.1-0.7,0.3s-0.3,0.5-0.3,0.7V46c0,0.3,0.1,0.5,0.3,0.7s0.5,0.3,0.7,0.3H2.4
				c0.3,0,0.5-0.1,0.7-0.3c0.2-0.2,0.3-0.5,0.3-0.7V-6.9c0-0.3-0.1-0.6-0.3-0.7C2.9-7.8,2.6-7.9,2.4-7.9H-58.4z"/>
		</g>
		<g transform="matrix(1,0,0,1,551.552001953125,1228.85498046875)" class="st1">
			<path class="st2" d="M-58.2-7.7c-0.3,0-0.5,0.1-0.7,0.3s-0.3,0.5-0.3,0.7v52.4c0,0.3,0.1,0.5,0.3,0.7s0.5,0.3,0.7,0.3H2.1
				c0.3,0,0.5-0.1,0.7-0.3c0.2-0.2,0.3-0.5,0.3-0.7V-6.7C3.1-7,3-7.2,2.8-7.4S2.3-7.7,2.1-7.7H-58.2z"/>
		</g>
		<g transform="matrix(1,0,0,1,648.5689697265625,1228.35498046875)" class="st1">
			<path class="st2" d="M-58.7-8.2c-0.3,0-0.5,0.1-0.7,0.3c-0.2,0.2-0.3,0.5-0.3,0.7v53.4c0,0.3,0.1,0.5,0.3,0.7s0.5,0.3,0.7,0.3
				H2.6c0.3,0,0.5-0.1,0.7-0.3c0.2-0.2,0.3-0.5,0.3-0.7V-7.2c0-0.3-0.1-0.5-0.3-0.7C3.1-8.1,2.8-8.2,2.6-8.2H-58.7z"/>
		</g>
		<g transform="matrix(1,0,0,1,453.531005859375,1284.324951171875)" class="st1">
			<path class="st2" d="M-56.5,17.5c-0.6,0-1.1,0.2-1.5,0.6c-0.4,0.4-0.6,0.9-0.6,1.4c0,0.5,0.2,1,0.6,1.4c0.4,0.4,0.9,0.6,1.5,0.6
				h57c0.6,0,1.1-0.2,1.5-0.6s0.6-0.9,0.6-1.4S2.4,18.4,2,18.1c-0.4-0.4-0.9-0.6-1.5-0.6C0.5,17.5-56.5,17.5-56.5,17.5z"/>
		</g>
		<g transform="matrix(1,0,0,1,437.6960144042969,1294.6600341796875)" class="st1">
			<path class="st6" d="M-40.7,17.3c-0.6,0-1.1,0.2-1.5,0.7c-0.4,0.4-0.6,1-0.6,1.6c0,0.6,0.2,1.2,0.6,1.6c0.4,0.4,0.9,0.7,1.5,0.7
				h25.4c0.6,0,1.1-0.2,1.5-0.7c0.4-0.4,0.6-1,0.6-1.6s-0.2-1.2-0.6-1.6c-0.4-0.4-0.9-0.7-1.5-0.7C-15.3,17.3-40.7,17.3-40.7,17.3z"
				/>
		</g>
		<g transform="matrix(1,0,0,1,552.0560302734375,1284.324951171875)" class="st1">
			<path class="st2" d="M-56.5,17.5c-0.6,0-1.1,0.2-1.5,0.6c-0.4,0.4-0.6,0.9-0.6,1.4c0,0.5,0.2,1,0.6,1.4c0.4,0.4,0.9,0.6,1.5,0.6
				h57c0.6,0,1.1-0.2,1.5-0.6s0.6-0.9,0.6-1.4S2.4,18.4,2,18.1c-0.4-0.4-0.9-0.6-1.5-0.6C0.5,17.5-56.5,17.5-56.5,17.5z"/>
		</g>
		<g transform="matrix(1,0,0,1,536.2210083007812,1294.6600341796875)" class="st1">
			<path class="st6" d="M-40.7,17.3c-0.6,0-1.1,0.2-1.5,0.7c-0.4,0.4-0.6,1-0.6,1.6c0,0.6,0.2,1.2,0.6,1.6c0.4,0.4,0.9,0.7,1.5,0.7
				h25.4c0.6,0,1.1-0.2,1.5-0.7c0.4-0.4,0.6-1,0.6-1.6s-0.2-1.2-0.6-1.6c-0.4-0.4-0.9-0.7-1.5-0.7C-15.3,17.3-40.7,17.3-40.7,17.3z"
				/>
		</g>
		<g transform="matrix(1,0,0,1,648.0670166015625,1284.324951171875)" class="st1">
			<path class="st2" d="M-56.5,17.5c-0.6,0-1.1,0.2-1.5,0.6c-0.4,0.4-0.6,0.9-0.6,1.4c0,0.5,0.2,1,0.6,1.4c0.4,0.4,0.9,0.6,1.5,0.6
				h57c0.6,0,1.1-0.2,1.5-0.6s0.6-0.9,0.6-1.4S2.4,18.4,2,18.1c-0.4-0.4-0.9-0.6-1.5-0.6C0.5,17.5-56.5,17.5-56.5,17.5z"/>
		</g>
		<g transform="matrix(1,0,0,1,453.531005859375,1273.7349853515625)" class="st1">
			<path class="st2" d="M-56.5,17.5c-0.6,0-1.1,0.2-1.5,0.6c-0.4,0.4-0.6,0.9-0.6,1.4c0,0.5,0.2,1,0.6,1.4c0.4,0.4,0.9,0.6,1.5,0.6
				h57c0.6,0,1.1-0.2,1.5-0.6s0.6-0.9,0.6-1.4S2.4,18.4,2,18.1c-0.4-0.4-0.9-0.6-1.5-0.6C0.5,17.5-56.5,17.5-56.5,17.5z"/>
		</g>
		<g transform="matrix(1,0,0,1,552.0560302734375,1273.7349853515625)" class="st1">
			<path class="st2" d="M-56.5,17.5c-0.6,0-1.1,0.2-1.5,0.6c-0.4,0.4-0.6,0.9-0.6,1.4c0,0.5,0.2,1,0.6,1.4c0.4,0.4,0.9,0.6,1.5,0.6
				h57c0.6,0,1.1-0.2,1.5-0.6s0.6-0.9,0.6-1.4S2.4,18.4,2,18.1c-0.4-0.4-0.9-0.6-1.5-0.6C0.5,17.5-56.5,17.5-56.5,17.5z"/>
		</g>
		<g transform="matrix(1,0,0,1,648.0670166015625,1273.7349853515625)" class="st1">
			<path class="st2" d="M-56.5,17.5c-0.6,0-1.1,0.2-1.5,0.6c-0.4,0.4-0.6,0.9-0.6,1.4c0,0.5,0.2,1,0.6,1.4c0.4,0.4,0.9,0.6,1.5,0.6
				h57c0.6,0,1.1-0.2,1.5-0.6s0.6-0.9,0.6-1.4S2.4,18.4,2,18.1c-0.4-0.4-0.9-0.6-1.5-0.6C0.5,17.5-56.5,17.5-56.5,17.5z"/>
		</g>
		<g transform="matrix(1,0,0,1,632.4829711914062,1294.6600341796875)" class="st1">
			<path class="st6" d="M-40.9,17.3c-0.6,0-1.1,0.2-1.5,0.7c-0.4,0.4-0.6,1-0.6,1.6c0,0.6,0.2,1.2,0.6,1.6c0.4,0.4,1,0.7,1.5,0.7
				h25.8c0.6,0,1.1-0.2,1.5-0.7c0.4-0.4,0.6-1,0.6-1.6s-0.2-1.2-0.6-1.6c-0.4-0.4-1-0.7-1.5-0.7C-15.1,17.3-40.9,17.3-40.9,17.3z"/>
		</g>
	</g>
	<g transform="matrix(0.6399999856948853,0,0,0.6399999856948853,-457.61920166015625,72.67938232421875)" class="st7">
		<g transform="matrix(1,0,0,1,1183.780029296875,1265.8790283203125)" class="st1">
			<path class="st8" d="M54.5-92h-167.8v224.9H54.5V-92z"/>
		</g>
		<g transform="matrix(1,0,0,1,1183.780029296875,1191.2049560546875)" class="st1">
			<path class="st9" d="M83.4-24.2h-225.5v89.3H83.4V-24.2z"/>
		</g>
		<g transform="matrix(1,0,0,1,1183.780029296875,1290.7760009765625)" class="st1">
			<path class="st9" d="M83.4-24.2h-225.5v89.3H83.4V-24.2z"/>
		</g>
		<g transform="matrix(1,0,0,1,1183.780029296875,1390.344970703125)" class="st1">
			<path class="st9" d="M83.4-24.2h-225.5v89.3H83.4V-24.2z"/>
		</g>
		<g transform="matrix(1,0,0,1,1183.780029296875,1191.2850341796875)" class="st1">
			<path class="st6" d="M83.4,13.6h-225.5v13.7H83.4V13.6z"/>
		</g>
		<g transform="matrix(1,0,0,1,1183.780029296875,1290.85400390625)" class="st1">
			<path class="st6" d="M83.4,13.6h-225.5v13.7H83.4V13.6z"/>
		</g>
		<g transform="matrix(1,0,0,1,1183.780029296875,1390.426025390625)" class="st1">
			<path class="st6" d="M83.4,13.6h-225.5v13.7H83.4V13.6z"/>
		</g>
		<g transform="matrix(1,0,0,1,1252.625,1159.43994140625)" class="st1">
			<path class="st6" d="M-29.4,25.6c2.9,0,5.2-2.3,5.2-5.2c0-2.8-2.3-5.1-5.2-5.1s-5.2,2.3-5.2,5.1C-34.5,23.3-32.2,25.6-29.4,25.6z
				"/>
		</g>
		<g transform="matrix(1,0,0,1,1270.6949462890625,1159.43994140625)" class="st1">
			<path class="st6" d="M-29.4,25.6c2.9,0,5.2-2.3,5.2-5.2c0-2.8-2.3-5.1-5.2-5.1s-5.2,2.3-5.2,5.1C-34.5,23.3-32.2,25.6-29.4,25.6z
				"/>
		</g>
		<g transform="matrix(1,0,0,1,1288.7640380859375,1159.43994140625)" class="st1">
			<path class="st6" d="M-29.4,25.6c2.9,0,5.2-2.3,5.2-5.2c0-2.8-2.3-5.1-5.2-5.1s-5.2,2.3-5.2,5.1C-34.5,23.3-32.2,25.6-29.4,25.6z
				"/>
		</g>
		<g transform="matrix(1,0,0,1,1252.625,1257.300048828125)" class="st1">
			<path class="st6" d="M-29.4,25.6c2.9,0,5.2-2.3,5.2-5.2c0-2.8-2.3-5.2-5.2-5.2s-5.2,2.3-5.2,5.2C-34.5,23.3-32.2,25.6-29.4,25.6z
				"/>
		</g>
		<g transform="matrix(1,0,0,1,1270.6949462890625,1257.300048828125)" class="st1">
			<path class="st6" d="M-29.4,25.6c2.9,0,5.2-2.3,5.2-5.2c0-2.8-2.3-5.2-5.2-5.2s-5.2,2.3-5.2,5.2C-34.5,23.3-32.2,25.6-29.4,25.6z
				"/>
		</g>
		<g transform="matrix(1,0,0,1,1288.7640380859375,1257.300048828125)" class="st1">
			<path class="st6" d="M-29.4,25.6c2.9,0,5.2-2.3,5.2-5.2c0-2.8-2.3-5.2-5.2-5.2s-5.2,2.3-5.2,5.2C-34.5,23.3-32.2,25.6-29.4,25.6z
				"/>
		</g>
		<g transform="matrix(1,0,0,1,1252.625,1355.1500244140625)" class="st1">
			<path class="st6" d="M-29.4,25.6c2.9,0,5.2-2.3,5.2-5.1c0-2.9-2.3-5.2-5.2-5.2s-5.2,2.3-5.2,5.2C-34.5,23.3-32.2,25.6-29.4,25.6z
				"/>
		</g>
		<g transform="matrix(1,0,0,1,1270.6949462890625,1355.1500244140625)" class="st1">
			<path class="st6" d="M-29.4,25.6c2.9,0,5.2-2.3,5.2-5.1c0-2.9-2.3-5.2-5.2-5.2s-5.2,2.3-5.2,5.2C-34.5,23.3-32.2,25.6-29.4,25.6z
				"/>
		</g>
		<g transform="matrix(1,0,0,1,1288.7640380859375,1355.1500244140625)" class="st1">
			<path class="st6" d="M-29.4,25.6c2.9,0,5.2-2.3,5.2-5.1c0-2.9-2.3-5.2-5.2-5.2s-5.2,2.3-5.2,5.2C-34.5,23.3-32.2,25.6-29.4,25.6z
				"/>
		</g>
	</g>
	<g transform="matrix(1,0,0,1,-596.4180297851562,-462)" class="st10">
		<g transform="matrix(1,0,0,1,858.1649780273438,1406.77001953125)" class="st1">
			<path class="st11" d="M-23.4-15.5c-0.4,0-0.7,0.1-1,0.4c-0.3,0.2-0.4,0.6-0.4,1v54.4c0,0.4,0.1,0.7,0.4,1s0.6,0.4,1,0.4h9.3
				c0.4,0,0.7-0.1,1-0.4c0.3-0.2,0.4-0.6,0.4-1v-54.4c0-0.4-0.1-0.7-0.4-1s-0.6-0.4-1-0.4H-23.4z"/>
		</g>
		<g transform="matrix(1,0,0,1,935.1929931640625,1406.77001953125)" class="st1">
			<path class="st11" d="M-23.4-15.5c-0.4,0-0.7,0.1-1,0.4c-0.3,0.2-0.4,0.6-0.4,1v54.4c0,0.4,0.1,0.7,0.4,1s0.6,0.4,1,0.4h9.3
				c0.4,0,0.7-0.1,1-0.4c0.3-0.2,0.4-0.6,0.4-1v-54.4c0-0.4-0.1-0.7-0.4-1s-0.6-0.4-1-0.4H-23.4z"/>
		</g>
		<g transform="matrix(1,0,0,1,938.3270263671875,1334.2900390625)" class="st1">
			<path class="st11" d="M16.7,13.8l-71-5.5l56.7,9.6L16,15.5L16.7,13.8z"/>
		</g>
		<g transform="matrix(1,0,0,1,938.8489990234375,1334.6409912109375)" class="st1">
			<path class="st12" d="M2.4,16.7L16,14.4l0.1-0.3l0.6,0.1L15.9,16L2.3,18.3L-54.3,7.9l16.8,2L2.4,16.7z"/>
		</g>
		<g transform="matrix(1,0,0,1,777.4810180664062,1334.2900390625)" class="st1">
			<path class="st11" d="M16.7,13.8l-71-5.5l56.7,9.6L16,15.5L16.7,13.8z"/>
		</g>
		<g transform="matrix(1,0,0,1,776.697021484375,1334.6409912109375)" class="st1">
			<path class="st12" d="M2.4,16.7L16,14.4l0.1-0.3l0.6,0.1L15.9,16L2.3,18.3L-54.3,7.9l16.8,2L2.4,16.7z"/>
		</g>
		<g transform="matrix(1,0,0,1,897.85400390625,1373.7550048828125)" class="st1">
			<path class="st11" d="M69.2,2.7l-6,0.3l-55,23.2l-3.1,2.6l-10,8.3h-31.4l-9.4-8.3l-3.6-3.2l-52.8-22.4l-4.7-0.5l15.7-7.6h0.1
				c3.6-3.4,34.3-6,71.7-6s68.2,2.6,71.7,6h0.3L69.2,2.7z"/>
		</g>
		<g transform="matrix(1,0,0,1,817.8209838867188,1346.405029296875)" class="st1">
			<path class="st11" d="M-11.5,22.9c0.1-0.3,0.2-0.6,0.2-1V9.5c0-0.8-0.3-1.5-0.9-2.1c-0.6-0.5-1.3-0.9-2.1-0.9h-1.2
				c1-1,1.6-2.2,1.9-3.6c0.3-1.4,0.1-2.8-0.4-4.1c-0.5-1.3-1.4-2.4-2.6-3.1c-1.2-0.8-2.5-1.2-3.9-1.2s-2.8,0.4-3.9,1.2
				c-1.2,0.8-2.1,1.9-2.6,3.1c-0.5,1.3-0.7,2.7-0.4,4.1c0.3,1.4,0.9,2.6,1.9,3.6h-1.2c-0.4,0-0.8,0.1-1.1,0.2
				c-0.4,0.1-0.7,0.4-1,0.6c-0.3,0.3-0.5,0.6-0.6,1c-0.1,0.3-0.2,0.7-0.2,1.1v12.4c0,0.5,0.1,1,0.4,1.5c-0.9,0.2-1.8,0.3-2.7,0.5
				c-0.5,0.1-1,0.4-1.4,0.9c-0.3,0.4-0.5,1-0.5,1.5v2.9c0,0.6,0.3,1.3,0.7,1.7c0.5,0.5,1.1,0.7,1.7,0.7h27.6v-7.3
				C-6.3,23.7-8.9,23.2-11.5,22.9z"/>
		</g>
		<g transform="matrix(1,0,0,1,975.2739868164062,1346.405029296875)" class="st1">
			<path class="st11" d="M-5.7,23.9c-0.9-0.2-1.8-0.4-2.7-0.5C-8.1,23-8,22.5-8,21.9V9.5c0-0.4-0.1-0.8-0.2-1.1
				c-0.1-0.4-0.4-0.7-0.6-1c-0.3-0.3-0.6-0.5-1-0.6c-0.4-0.2-0.7-0.2-1.1-0.2h-1.2c1-1,1.6-2.2,1.9-3.6c0.3-1.4,0.1-2.8-0.4-4.1
				c-0.5-1.3-1.4-2.4-2.6-3.1c-1.2-0.8-2.5-1.2-3.9-1.2S-19.9-5-21-4.2c-1.2,0.8-2.1,1.9-2.6,3.1C-24.1,0.2-24.3,1.6-24,3
				c0.3,1.4,0.9,2.6,1.9,3.6h-1.2c-0.4,0-0.8,0.1-1.1,0.2c-0.4,0.1-0.7,0.4-1,0.6c-0.3,0.3-0.5,0.6-0.6,1c-0.1,0.3-0.2,0.7-0.2,1.1
				v12.4c0,0.3,0.1,0.7,0.2,1c-2.6,0.3-5.2,0.8-7.7,1.4v7.3h27.6c0.6,0,1.3-0.3,1.7-0.7c0.5-0.4,0.7-1.1,0.7-1.7v-2.9
				c0-0.6-0.2-1.1-0.5-1.5C-4.6,24.3-5.1,24-5.7,23.9z"/>
		</g>
		<g transform="matrix(1,0,0,1,1015.6179809570312,1334.2900390625)" class="st1">
			<path class="st11" d="M-54.3,13.8l71-5.5L-40,17.9l-13.6-2.4L-54.3,13.8z"/>
		</g>
		<g transform="matrix(1,0,0,1,896.0260009765625,1406.7049560546875)" class="st1">
			<path class="st11" d="M-13.3,1.8h-11c-0.4,0-0.8,0.1-1.2,0.2c-0.4,0.2-0.7,0.4-1,0.7s-0.5,0.6-0.7,1s-0.2,0.8-0.2,1.2v2.4
				c0,0.6,0.2,1.2,0.6,1.8c0.4,0.5,0.9,0.9,1.5,1.1c-0.5,0.5-0.7,1.2-0.7,1.9v0.7c0,0.5,0.1,1,0.3,1.4c0.2,0.4,0.6,0.8,1,1.1v9.1h12
				v-9.1c0.4-0.3,0.7-0.7,1-1.1c0.2-0.4,0.3-0.9,0.3-1.4v-0.7c0-0.7-0.2-1.4-0.7-1.9c0.6-0.2,1.1-0.6,1.5-1.1S-10,8-10,7.3V4.9
				c0-0.4-0.1-0.8-0.2-1.2c-0.2-0.4-0.4-0.7-0.7-1c-0.3-0.3-0.6-0.5-1-0.7C-12.5,1.9-12.9,1.8-13.3,1.8z"/>
		</g>
		<g transform="matrix(1,0,0,1,896.0260009765625,1425.97998046875)" class="st1">
			<path class="st12" d="M-30,3.9c-0.5,0-1,0.2-1.3,0.5c-0.3,0.4-0.5,0.8-0.5,1.3v14.8c0,0.5,0.2,0.9,0.5,1.3
				c0.3,0.4,0.8,0.5,1.3,0.5h22.4c0.5,0,1-0.2,1.3-0.5c0.3-0.3,0.5-0.8,0.5-1.3V5.7c0-0.5-0.2-1-0.5-1.3s-0.8-0.5-1.3-0.5H-30z"/>
		</g>
		<g transform="matrix(1,0,0,1,896.2979736328125,1391.4649658203125)" class="st1">
			<path class="st12" d="M6.6,11l-10,8.3h-31.3l-9.5-8.3h9.4l0.4-2c0.1-0.6,0.4-1.1,0.9-1.5s1.1-0.6,1.7-0.6h26.2
				c0.6,0,1.2,0.2,1.7,0.6C-3.4,7.9-3.1,8.4-3,9l0.4,2H6.6z"/>
		</g>
		<g transform="matrix(1,0,0,1,896.0260009765625,1425.9849853515625)" class="st1">
			<path class="st11" d="M-18.8,20.4c4,0,7.3-3.3,7.3-7.3s-3.3-7.3-7.3-7.3s-7.3,3.3-7.3,7.3C-26.1,17.1-22.8,20.4-18.8,20.4z"/>
		</g>
		<g transform="matrix(1,0,0,1,896.0260009765625,1425.97998046875)" class="st1">
			<path class="st2" d="M-18.8,17.3c2.3,0,4.2-1.9,4.2-4.2s-1.9-4.2-4.2-4.2c-2.3,0-4.2,1.9-4.2,4.2C-23,15.4-21.1,17.3-18.8,17.3z"
				/>
		</g>
		<g transform="matrix(1,0,0,1,896.468994140625,1426.425048828125)" class="st1">
			<path class="st5" d="M-16.7,9.4c0.6,0.8,0.9,1.8,0.8,2.8s-0.5,1.9-1.2,2.7c-0.7,0.7-1.7,1.1-2.7,1.2c-1,0.1-2-0.2-2.8-0.8
				c0.4,0.5,0.8,0.9,1.3,1.1c0.5,0.3,1.1,0.5,1.7,0.5s1.2,0,1.7-0.3c0.6-0.2,1.1-0.5,1.5-1c0.4-0.4,0.7-0.9,1-1.5
				c0.2-0.6,0.3-1.2,0.3-1.8s-0.2-1.2-0.5-1.7C-15.8,10.2-16.2,9.7-16.7,9.4z"/>
		</g>
		<g transform="matrix(1,0,0,1,896.6790161132812,1360.8599853515625)" class="st1">
			<path class="st2" d="M75,12.5h-187.5v1.2H75V12.5z"/>
		</g>
		<g transform="matrix(1,0,0,1,1016.1389770507812,1334.6409912109375)" class="st1">
			<path class="st12" d="M-39.9,16.7l-13.6-2.3l-0.1-0.3l-0.7,0.1l0.8,1.8l13.6,2.3L16.8,8L0,10L-39.9,16.7z"/>
		</g>
		<g transform="matrix(1,0,0,1,854.77001953125,1334.2900390625)" class="st1">
			<path class="st11" d="M-54.3,13.8l71-5.5L-40,17.9l-13.6-2.4L-54.3,13.8z"/>
		</g>
		<g transform="matrix(1,0,0,1,855.5540161132812,1334.6409912109375)" class="st1">
			<path class="st12" d="M-39.9,16.7l-13.6-2.3l-0.1-0.3l-0.7,0.1l0.8,1.8l13.6,2.3L16.8,8L0,10L-39.9,16.7z"/>
		</g>
		<g transform="matrix(1,0,0,1,896.4169921875,1389.5150146484375)" class="st1">
			<path class="st2" d="M-8.3,11h-20.9v4.2h20.9V11z"/>
		</g>
	</g>
	<g transform="matrix(1,0,0,1,221.21600341796875,858.5)" class="st13">
		<g transform="matrix(1,0,0,1,33.779998779296875,40.112998962402344)" class="st1">
			<path class="st5" d="M-37.4-5.9h37.2v38h-37.2V-5.9z"/>
		</g>
		<g transform="matrix(1,0,0,1,78.53700256347656,38.84600067138672)" class="st1">
			<path class="st2" d="M-37.4-8.8h37.2v43.9h-37.2V-8.8z"/>
		</g>
		<g transform="matrix(1,0,0,1,124.13999938964844,41.380001068115234)" class="st1">
			<path class="st5" d="M-37.4-8.8h37.2v43.9h-37.2V-8.8z"/>
		</g>
		<g transform="matrix(1,0,0,1,47.29199981689453,71.35900115966797)" class="st1">
			<path class="st6" d="M-37.4,4.2h37.2V22h-37.2V4.2z"/>
		</g>
		<g transform="matrix(1,0,0,1,111.47200012207031,71.35900115966797)" class="st1">
			<path class="st6" d="M-37.4,4.2h37.2V22h-37.2V4.2z"/>
		</g>
		<g transform="matrix(1,0,0,1,79,53.5)" class="st1">
			<path class="st3" d="M58.7,8.7C57.1-5.6,54-17.2,49.4-25.5c-6.7-12.3-15.2-14.9-21.1-14.9c-17,0-26.5,3.2-30.8,10.2
				c-0.6,0.9-1.6,1.4-2.7,1.4h-27.7c-1.1,0-2.2-0.6-2.7-1.4c-4.3-7.1-13.8-10.2-30.8-10.2c-5.9,0-14.3,2.6-21.1,14.9
				c-4.6,8.4-7.7,19.9-9.3,34.2c-1.6,14.1-1.4,25.8,0.5,34.8c2.4,11.4,7.6,18.6,15.5,21.3c2.4,0.8,4.8,1.2,7.1,1.2
				c10.5,0,20.8-7.8,28.4-21.8c1.6,0.6,3.3,0.9,5.1,0.9c0.2,0,0.5,0,0.7,0c3.8-0.2,7.4-1.9,10-4.7c2.3-2.6,3.7-5.8,3.7-9.3h13.5v0.3
				c0.2,3.8,1.9,7.4,4.7,10c2.7,2.4,6.1,3.7,9.7,3.7c0.2,0,0.5,0,0.7,0c1.5-0.1,3-0.4,4.4-0.9c9.3,17.2,22.6,25.1,35.5,20.6
				c7.9-2.7,13.1-9.9,15.5-21.3C60.1,34.5,60.3,22.8,58.7,8.7z M26.7-15.8c3.2,0,5.8,2.6,5.8,5.8s-2.6,5.8-5.8,5.8s-5.8-2.6-5.8-5.8
				S23.5-15.8,26.7-15.8z M-36.1-21c1,0.3,2.1,0.5,3.3,0.5h27.7c1.1,0,2.2-0.2,3.3-0.5v14.3c0,3-2.4,5.4-5.4,5.4h-23.3
				c-3,0-5.4-2.4-5.4-5.4L-36.1-21L-36.1-21z M-57.4,5.4C-58.2,5.4-59,6.1-59,7v6.4c0,0.8-0.7,1.6-1.6,1.6H-69
				c-0.8,0-1.6-0.7-1.6-1.6V7c0-0.8-0.7-1.6-1.6-1.6h-6.4c-0.8,0-1.6-0.7-1.6-1.6v-8.4c0-0.8,0.7-1.6,1.6-1.6h6.4
				c0.8,0,1.6-0.7,1.6-1.6v-6.7c0-0.8,0.7-1.6,1.6-1.6h8.4c0.8,0,1.6,0.7,1.6,1.6v6.7c0,0.8,0.7,1.6,1.6,1.6h6.4
				c0.8,0,1.6,0.7,1.6,1.6v8.4c0,0.8-0.7,1.6-1.6,1.6H-57.4z M-39.9,36.9c-1.7,0.1-3.3-0.5-4.5-1.6c-0.1-0.1-0.2-0.2-0.3-0.3
				c-0.1-0.1-0.1-0.1-0.2-0.2s-0.1-0.1-0.2-0.2s-0.2-0.2-0.2-0.3c0,0,0-0.1-0.1-0.1c-0.7-0.9-1.1-2.1-1.2-3.4
				c-0.1-2.4,1.1-4.5,3-5.7c0.9-0.5,1.9-0.8,2.9-0.9h0.4c0.1,0,0.3,0,0.4,0h0.1c0.4,0,0.8,0.1,1.1,0.2l0,0c0.2,0.1,0.4,0.1,0.5,0.2
				l0,0c1.5,0.6,2.6,1.7,3.3,3.2c0,0,0,0,0,0.1c0.3,0.7,0.5,1.5,0.6,2.3C-33.7,33.8-36.4,36.8-39.9,36.9z M-19,19.7
				c-2.4,0-4.4-2-4.4-4.4s2-4.4,4.4-4.4s4.4,2,4.4,4.4S-16.6,19.7-19,19.7z M2.4,36.9c-3.5,0.2-6.4-2.5-6.6-6
				c-0.1-1.1,0.2-2.1,0.6-3c0,0,0,0,0-0.1c0.1-0.2,0.2-0.3,0.3-0.5c0,0,0,0,0-0.1c0.3-0.5,0.7-0.9,1.1-1.3l0,0
				c0.3-0.3,0.6-0.5,0.9-0.7c0,0,0,0,0.1,0c0.1-0.1,0.3-0.2,0.4-0.2c0,0,0.1,0,0.1-0.1c0.1-0.1,0.3-0.1,0.4-0.2h0.1
				c0.2-0.1,0.4-0.1,0.5-0.2c0.1,0,0.1,0,0.2,0c0.1,0,0.3-0.1,0.4-0.1c0.1,0,0.1,0,0.2,0c0.2,0,0.4,0,0.6-0.1h0.5h0.3
				c0.1,0,0.2,0,0.3,0s0.2,0,0.3,0s0.2,0,0.3,0.1c0.1,0,0.2,0,0.3,0.1c0.1,0,0.2,0.1,0.3,0.1s0.2,0.1,0.3,0.1s0.2,0.1,0.3,0.1
				s0.2,0.1,0.3,0.1s0.2,0.1,0.3,0.2c0.1,0,0.2,0.1,0.2,0.1c0.1,0.1,0.2,0.1,0.3,0.2c0.1,0.1,0.2,0.1,0.2,0.2
				c0.1,0.1,0.2,0.1,0.2,0.2c0.1,0.1,0.2,0.1,0.2,0.2c0.1,0.1,0.1,0.1,0.2,0.2c0.1,0.1,0.1,0.1,0.2,0.2c0.1,0.1,0.1,0.2,0.2,0.2
				C7,26.7,7,26.8,7.1,26.8c0.1,0.1,0.1,0.2,0.2,0.3c0.1,0.1,0.1,0.2,0.2,0.3c0.1,0.1,0.1,0.2,0.2,0.3c0,0.1,0.1,0.2,0.1,0.3
				s0.1,0.2,0.1,0.3S8,28.5,8,28.6s0.1,0.2,0.1,0.3s0.1,0.2,0.1,0.3s0.1,0.3,0.1,0.4c0,0.1,0,0.1,0,0.2c0,0.2,0.1,0.4,0.1,0.6V31v0
				c0,0.2,0,0.4-0.1,0.6v0.1c0,0.2-0.1,0.4-0.1,0.6l0,0c-0.3,1-0.8,1.9-1.4,2.6l-0.4,0.4c0,0-0.1,0-0.1,0.1
				C5.3,36.2,3.9,36.9,2.4,36.9z M11.4-0.5c0-3.2,2.6-5.8,5.8-5.8S23-3.7,23-0.5s-2.6,5.8-5.8,5.8S11.4,2.7,11.4-0.5z M26.7,14.7
				c-3.2,0-5.8-2.6-5.8-5.8s2.6-5.8,5.8-5.8s5.8,2.6,5.8,5.8C32.5,12.1,29.9,14.7,26.7,14.7z M36.2,5.3c-3.2,0-5.8-2.6-5.8-5.8
				s2.6-5.8,5.8-5.8S42-3.7,42-0.5S39.4,5.3,36.2,5.3z"/>
		</g>
	</g>
	<g transform="matrix(1,0,0,1,186.28700256347656,-456)" class="st14">
		<g transform="matrix(1,0,0,1,113.71299743652344,1348.9749755859375)" class="st1">
			<path class="st15" d="M24.4-32.5h-1v-26.2c0-4-1.6-7.9-4.4-10.7c-2.8-2.8-6.7-4.4-10.7-4.4h-55.2c-2,0-3.9,0.4-5.8,1.2
				c-1.8,0.8-3.5,1.9-4.9,3.3s-2.5,3.1-3.3,4.9c-0.8,1.8-1.1,3.8-1.1,5.8V85c0,2,0.4,4,1.1,5.8c0.8,1.8,1.9,3.5,3.3,4.9
				s3.1,2.5,4.9,3.3c1.8,0.8,3.8,1.2,5.8,1.2H8.3c4,0,7.8-1.6,10.7-4.4c2.8-2.8,4.4-6.7,4.4-10.7v-99h1V-32.5z"/>
		</g>
		<g transform="matrix(1,0,0,1,113.71299743652344,1348.969970703125)" class="st1">
			<path class="st5" d="M9-69.9H1.8c0.3,0.8,0.5,1.7,0.4,2.6s-0.4,1.7-0.9,2.4c-0.5,0.7-1.2,1.3-1.9,1.8c-0.8,0.4-1.6,0.6-2.5,0.6
				h-31.7c-0.9,0-1.7-0.2-2.5-0.6c-0.8-0.4-1.4-1-1.9-1.8c-0.5-0.7-0.8-1.6-0.9-2.4c-0.1-0.9,0-1.8,0.4-2.6h-6.7c-3,0-5.9,1.2-8,3.3
				s-3.3,5-3.3,8V84.8c0,1.5,0.3,3,0.9,4.3c0.6,1.4,1.4,2.6,2.4,3.7s2.3,1.9,3.7,2.5c1.4,0.6,2.8,0.9,4.3,0.9H9
				c1.5,0,2.9-0.3,4.3-0.9c1.4-0.6,2.6-1.4,3.7-2.5c1-1.1,1.9-2.3,2.4-3.7c0.6-1.4,0.9-2.9,0.9-4.3V-58.6c0-1.5-0.3-3-0.9-4.3
				c-0.6-1.4-1.4-2.6-2.4-3.7c-1-1-2.3-1.9-3.7-2.5C11.9-69.6,10.4-69.9,9-69.9z"/>
		</g>
		<g transform="matrix(1,0,0,1,97.48200225830078,1320.333984375)" class="st1">
			<path class="st2" d="M-2.6-14.6h-32.3v55.4h32.3V-14.6z"/>
		</g>
		<g transform="matrix(1,0,0,1,132.5709991455078,1383.699951171875)" class="st1">
			<path class="st2" d="M-5.4-18.2h-26.8v62.7h26.8V-18.2z"/>
		</g>
		<g transform="matrix(1,0,0,1,132.63299560546875,1300.27001953125)" class="st1">
			<path class="st2" d="M-5.3,5.5h-26.9v15.2h26.9V5.5z"/>
		</g>
		<g transform="matrix(1,0,0,1,132.63299560546875,1320.3399658203125)" class="st1">
			<path class="st2" d="M-5.3,4.9h-26.9v16.4h26.9V4.9z"/>
		</g>
		<g transform="matrix(1,0,0,1,132.63299560546875,1340.4000244140625)" class="st1">
			<path class="st2" d="M-5.3,5.5h-26.9v15.2h26.9V5.5z"/>
		</g>
		<g transform="matrix(1,0,0,1,97.52100372314453,1364.425048828125)" class="st1">
			<path class="st6" d="M-2.6,1h-32.3v24.1h32.3V1z"/>
		</g>
		<g transform="matrix(1,0,0,1,97.52100372314453,1398.1300048828125)" class="st1">
			<path class="st2" d="M-2.6-3.8h-32.3v33.9h32.3V-3.8z"/>
		</g>
	</g>
	<g transform="matrix(1,0,0,1,-596.4180297851562,-462)" class="st16">
		<g transform="matrix(1,0,0,1,858.1649780273438,1406.77001953125)" class="st1">
			<path class="st11" d="M-23.4-15.5c-0.4,0-0.7,0.1-1,0.4c-0.3,0.2-0.4,0.6-0.4,1v54.4c0,0.4,0.1,0.7,0.4,1s0.6,0.4,1,0.4h9.3
				c0.4,0,0.7-0.1,1-0.4c0.3-0.2,0.4-0.6,0.4-1v-54.4c0-0.4-0.1-0.7-0.4-1s-0.6-0.4-1-0.4H-23.4z"/>
		</g>
		<g transform="matrix(1,0,0,1,935.1929931640625,1406.77001953125)" class="st1">
			<path class="st11" d="M-23.4-15.5c-0.4,0-0.7,0.1-1,0.4c-0.3,0.2-0.4,0.6-0.4,1v54.4c0,0.4,0.1,0.7,0.4,1s0.6,0.4,1,0.4h9.3
				c0.4,0,0.7-0.1,1-0.4c0.3-0.2,0.4-0.6,0.4-1v-54.4c0-0.4-0.1-0.7-0.4-1s-0.6-0.4-1-0.4H-23.4z"/>
		</g>
		<g transform="matrix(1,0,0,1,938.3270263671875,1334.2900390625)" class="st1">
			<path class="st11" d="M16.7,13.8l-71-5.5l56.7,9.6L16,15.5L16.7,13.8z"/>
		</g>
		<g transform="matrix(1,0,0,1,938.8489990234375,1334.6409912109375)" class="st1">
			<path class="st12" d="M2.4,16.7L16,14.4l0.1-0.3l0.6,0.1L15.9,16L2.3,18.3L-54.3,7.9l16.8,2L2.4,16.7z"/>
		</g>
		<g transform="matrix(1,0,0,1,777.4810180664062,1334.2900390625)" class="st1">
			<path class="st11" d="M16.7,13.8l-71-5.5l56.7,9.6L16,15.5L16.7,13.8z"/>
		</g>
		<g transform="matrix(1,0,0,1,776.697021484375,1334.6409912109375)" class="st1">
			<path class="st12" d="M2.4,16.7L16,14.4l0.1-0.3l0.6,0.1L15.9,16L2.3,18.3L-54.3,7.9l16.8,2L2.4,16.7z"/>
		</g>
		<g transform="matrix(1,0,0,1,897.85400390625,1373.7550048828125)" class="st1">
			<path class="st11" d="M69.2,2.7l-6,0.3l-55,23.2l-3.1,2.6l-10,8.3h-31.4l-9.4-8.3l-3.6-3.2l-52.8-22.4l-4.7-0.5l15.7-7.6h0.1
				c3.6-3.4,34.3-6,71.7-6s68.2,2.6,71.7,6h0.3L69.2,2.7z"/>
		</g>
		<g transform="matrix(1,0,0,1,817.8209838867188,1346.405029296875)" class="st1">
			<path class="st11" d="M-11.5,22.9c0.1-0.3,0.2-0.6,0.2-1V9.5c0-0.8-0.3-1.5-0.9-2.1c-0.6-0.5-1.3-0.9-2.1-0.9h-1.2
				c1-1,1.6-2.2,1.9-3.6c0.3-1.4,0.1-2.8-0.4-4.1c-0.5-1.3-1.4-2.4-2.6-3.1c-1.2-0.8-2.5-1.2-3.9-1.2s-2.8,0.4-3.9,1.2
				c-1.2,0.8-2.1,1.9-2.6,3.1c-0.5,1.3-0.7,2.7-0.4,4.1c0.3,1.4,0.9,2.6,1.9,3.6h-1.2c-0.4,0-0.8,0.1-1.1,0.2
				c-0.4,0.1-0.7,0.4-1,0.6c-0.3,0.3-0.5,0.6-0.6,1c-0.1,0.3-0.2,0.7-0.2,1.1v12.4c0,0.5,0.1,1,0.4,1.5c-0.9,0.2-1.8,0.3-2.7,0.5
				c-0.5,0.1-1,0.4-1.4,0.9c-0.3,0.4-0.5,1-0.5,1.5v2.9c0,0.6,0.3,1.3,0.7,1.7c0.5,0.5,1.1,0.7,1.7,0.7h27.6v-7.3
				C-6.3,23.7-8.9,23.2-11.5,22.9z"/>
		</g>
		<g transform="matrix(1,0,0,1,975.2739868164062,1346.405029296875)" class="st1">
			<path class="st11" d="M-5.7,23.9c-0.9-0.2-1.8-0.4-2.7-0.5C-8.1,23-8,22.5-8,21.9V9.5c0-0.4-0.1-0.8-0.2-1.1
				c-0.1-0.4-0.4-0.7-0.6-1c-0.3-0.3-0.6-0.5-1-0.6c-0.4-0.2-0.7-0.2-1.1-0.2h-1.2c1-1,1.6-2.2,1.9-3.6c0.3-1.4,0.1-2.8-0.4-4.1
				c-0.5-1.3-1.4-2.4-2.6-3.1c-1.2-0.8-2.5-1.2-3.9-1.2S-19.9-5-21-4.2c-1.2,0.8-2.1,1.9-2.6,3.1C-24.1,0.2-24.3,1.6-24,3
				c0.3,1.4,0.9,2.6,1.9,3.6h-1.2c-0.4,0-0.8,0.1-1.1,0.2c-0.4,0.1-0.7,0.4-1,0.6c-0.3,0.3-0.5,0.6-0.6,1c-0.1,0.3-0.2,0.7-0.2,1.1
				v12.4c0,0.3,0.1,0.7,0.2,1c-2.6,0.3-5.2,0.8-7.7,1.4v7.3h27.6c0.6,0,1.3-0.3,1.7-0.7c0.5-0.4,0.7-1.1,0.7-1.7v-2.9
				c0-0.6-0.2-1.1-0.5-1.5C-4.6,24.3-5.1,24-5.7,23.9z"/>
		</g>
		<g transform="matrix(1,0,0,1,1015.6179809570312,1334.2900390625)" class="st1">
			<path class="st11" d="M-54.3,13.8l71-5.5L-40,17.9l-13.6-2.4L-54.3,13.8z"/>
		</g>
		<g transform="matrix(1,0,0,1,896.0260009765625,1406.7049560546875)" class="st1">
			<path class="st11" d="M-13.3,1.8h-11c-0.4,0-0.8,0.1-1.2,0.2c-0.4,0.2-0.7,0.4-1,0.7s-0.5,0.6-0.7,1s-0.2,0.8-0.2,1.2v2.4
				c0,0.6,0.2,1.2,0.6,1.8c0.4,0.5,0.9,0.9,1.5,1.1c-0.5,0.5-0.7,1.2-0.7,1.9v0.7c0,0.5,0.1,1,0.3,1.4c0.2,0.4,0.6,0.8,1,1.1v9.1h12
				v-9.1c0.4-0.3,0.7-0.7,1-1.1c0.2-0.4,0.3-0.9,0.3-1.4v-0.7c0-0.7-0.2-1.4-0.7-1.9c0.6-0.2,1.1-0.6,1.5-1.1S-10,8-10,7.3V4.9
				c0-0.4-0.1-0.8-0.2-1.2c-0.2-0.4-0.4-0.7-0.7-1c-0.3-0.3-0.6-0.5-1-0.7C-12.5,1.9-12.9,1.8-13.3,1.8z"/>
		</g>
		<g transform="matrix(1,0,0,1,896.0260009765625,1425.97998046875)" class="st1">
			<path class="st12" d="M-30,3.9c-0.5,0-1,0.2-1.3,0.5c-0.3,0.4-0.5,0.8-0.5,1.3v14.8c0,0.5,0.2,0.9,0.5,1.3
				c0.3,0.4,0.8,0.5,1.3,0.5h22.4c0.5,0,1-0.2,1.3-0.5c0.3-0.3,0.5-0.8,0.5-1.3V5.7c0-0.5-0.2-1-0.5-1.3s-0.8-0.5-1.3-0.5H-30z"/>
		</g>
		<g transform="matrix(1,0,0,1,896.2979736328125,1391.4649658203125)" class="st1">
			<path class="st12" d="M6.6,11l-10,8.3h-31.3l-9.5-8.3h9.4l0.4-2c0.1-0.6,0.4-1.1,0.9-1.5s1.1-0.6,1.7-0.6h26.2
				c0.6,0,1.2,0.2,1.7,0.6C-3.4,7.9-3.1,8.4-3,9l0.4,2H6.6z"/>
		</g>
		<g transform="matrix(1,0,0,1,896.0260009765625,1425.9849853515625)" class="st1">
			<path class="st11" d="M-18.8,20.4c4,0,7.3-3.3,7.3-7.3s-3.3-7.3-7.3-7.3s-7.3,3.3-7.3,7.3C-26.1,17.1-22.8,20.4-18.8,20.4z"/>
		</g>
		<g transform="matrix(1,0,0,1,896.0260009765625,1425.97998046875)" class="st1">
			<path class="st2" d="M-18.8,17.3c2.3,0,4.2-1.9,4.2-4.2s-1.9-4.2-4.2-4.2c-2.3,0-4.2,1.9-4.2,4.2C-23,15.4-21.1,17.3-18.8,17.3z"
				/>
		</g>
		<g transform="matrix(1,0,0,1,896.468994140625,1426.425048828125)" class="st1">
			<path class="st5" d="M-16.7,9.4c0.6,0.8,0.9,1.8,0.8,2.8s-0.5,1.9-1.2,2.7c-0.7,0.7-1.7,1.1-2.7,1.2c-1,0.1-2-0.2-2.8-0.8
				c0.4,0.5,0.8,0.9,1.3,1.1c0.5,0.3,1.1,0.5,1.7,0.5s1.2,0,1.7-0.3c0.6-0.2,1.1-0.5,1.5-1c0.4-0.4,0.7-0.9,1-1.5
				c0.2-0.6,0.3-1.2,0.3-1.8s-0.2-1.2-0.5-1.7C-15.8,10.2-16.2,9.7-16.7,9.4z"/>
		</g>
		<g transform="matrix(1,0,0,1,896.6790161132812,1360.8599853515625)" class="st1">
			<path class="st2" d="M75,12.5h-187.5v1.2H75V12.5z"/>
		</g>
		<g transform="matrix(1,0,0,1,1016.1389770507812,1334.6409912109375)" class="st1">
			<path class="st12" d="M-39.9,16.7l-13.6-2.3l-0.1-0.3l-0.7,0.1l0.8,1.8l13.6,2.3L16.8,8L0,10L-39.9,16.7z"/>
		</g>
		<g transform="matrix(1,0,0,1,854.77001953125,1334.2900390625)" class="st1">
			<path class="st11" d="M-54.3,13.8l71-5.5L-40,17.9l-13.6-2.4L-54.3,13.8z"/>
		</g>
		<g transform="matrix(1,0,0,1,855.5540161132812,1334.6409912109375)" class="st1">
			<path class="st12" d="M-39.9,16.7l-13.6-2.3l-0.1-0.3l-0.7,0.1l0.8,1.8l13.6,2.3L16.8,8L0,10L-39.9,16.7z"/>
		</g>
		<g transform="matrix(1,0,0,1,896.4169921875,1389.5150146484375)" class="st1">
			<path class="st2" d="M-8.3,11h-20.9v4.2h20.9V11z"/>
		</g>
	</g>
	<g transform="matrix(0.6399999856948853,0,0,0.6399999856948853,-457.61920166015625,72.67938232421875)" class="st17">
		<g transform="matrix(1,0,0,1,1183.780029296875,1265.8790283203125)" class="st1">
			<path class="st8" d="M54.5-92h-167.8v224.9H54.5V-92z"/>
		</g>
		<g transform="matrix(1,0,0,1,1183.780029296875,1191.2049560546875)" class="st1">
			<path class="st9" d="M83.4-24.2h-225.5v89.3H83.4V-24.2z"/>
		</g>
		<g transform="matrix(1,0,0,1,1183.780029296875,1290.7760009765625)" class="st1">
			<path class="st9" d="M83.4-24.2h-225.5v89.3H83.4V-24.2z"/>
		</g>
		<g transform="matrix(1,0,0,1,1183.780029296875,1390.344970703125)" class="st1">
			<path class="st9" d="M83.4-24.2h-225.5v89.3H83.4V-24.2z"/>
		</g>
		<g transform="matrix(1,0,0,1,1183.780029296875,1191.2850341796875)" class="st1">
			<path class="st6" d="M83.4,13.6h-225.5v13.7H83.4V13.6z"/>
		</g>
		<g transform="matrix(1,0,0,1,1183.780029296875,1290.85400390625)" class="st1">
			<path class="st6" d="M83.4,13.6h-225.5v13.7H83.4V13.6z"/>
		</g>
		<g transform="matrix(1,0,0,1,1183.780029296875,1390.426025390625)" class="st1">
			<path class="st6" d="M83.4,13.6h-225.5v13.7H83.4V13.6z"/>
		</g>
		<g transform="matrix(1,0,0,1,1252.625,1159.43994140625)" class="st1">
			<path class="st6" d="M-29.4,25.6c2.9,0,5.2-2.3,5.2-5.2c0-2.8-2.3-5.1-5.2-5.1s-5.2,2.3-5.2,5.1C-34.5,23.3-32.2,25.6-29.4,25.6z
				"/>
		</g>
		<g transform="matrix(1,0,0,1,1270.6949462890625,1159.43994140625)" class="st1">
			<path class="st6" d="M-29.4,25.6c2.9,0,5.2-2.3,5.2-5.2c0-2.8-2.3-5.1-5.2-5.1s-5.2,2.3-5.2,5.1C-34.5,23.3-32.2,25.6-29.4,25.6z
				"/>
		</g>
		<g transform="matrix(1,0,0,1,1288.7640380859375,1159.43994140625)" class="st1">
			<path class="st6" d="M-29.4,25.6c2.9,0,5.2-2.3,5.2-5.2c0-2.8-2.3-5.1-5.2-5.1s-5.2,2.3-5.2,5.1C-34.5,23.3-32.2,25.6-29.4,25.6z
				"/>
		</g>
		<g transform="matrix(1,0,0,1,1252.625,1257.300048828125)" class="st1">
			<path class="st6" d="M-29.4,25.6c2.9,0,5.2-2.3,5.2-5.2c0-2.8-2.3-5.2-5.2-5.2s-5.2,2.3-5.2,5.2C-34.5,23.3-32.2,25.6-29.4,25.6z
				"/>
		</g>
		<g transform="matrix(1,0,0,1,1270.6949462890625,1257.300048828125)" class="st1">
			<path class="st6" d="M-29.4,25.6c2.9,0,5.2-2.3,5.2-5.2c0-2.8-2.3-5.2-5.2-5.2s-5.2,2.3-5.2,5.2C-34.5,23.3-32.2,25.6-29.4,25.6z
				"/>
		</g>
		<g transform="matrix(1,0,0,1,1288.7640380859375,1257.300048828125)" class="st1">
			<path class="st6" d="M-29.4,25.6c2.9,0,5.2-2.3,5.2-5.2c0-2.8-2.3-5.2-5.2-5.2s-5.2,2.3-5.2,5.2C-34.5,23.3-32.2,25.6-29.4,25.6z
				"/>
		</g>
		<g transform="matrix(1,0,0,1,1252.625,1355.1500244140625)" class="st1">
			<path class="st6" d="M-29.4,25.6c2.9,0,5.2-2.3,5.2-5.1c0-2.9-2.3-5.2-5.2-5.2s-5.2,2.3-5.2,5.2C-34.5,23.3-32.2,25.6-29.4,25.6z
				"/>
		</g>
		<g transform="matrix(1,0,0,1,1270.6949462890625,1355.1500244140625)" class="st1">
			<path class="st6" d="M-29.4,25.6c2.9,0,5.2-2.3,5.2-5.1c0-2.9-2.3-5.2-5.2-5.2s-5.2,2.3-5.2,5.2C-34.5,23.3-32.2,25.6-29.4,25.6z
				"/>
		</g>
		<g transform="matrix(1,0,0,1,1288.7640380859375,1355.1500244140625)" class="st1">
			<path class="st6" d="M-29.4,25.6c2.9,0,5.2-2.3,5.2-5.1c0-2.9-2.3-5.2-5.2-5.2s-5.2,2.3-5.2,5.2C-34.5,23.3-32.2,25.6-29.4,25.6z
				"/>
		</g>
	</g>
	<g transform="matrix(0.6700000166893005,0,0,0.6700000166893005,-69.53985595703125,38.55474853515625)" class="st18">
		<g transform="matrix(1,0,0,1,551.0499877929688,1412.6600341796875)" class="st1">
			<path class="st2" d="M14.7,38.5h-85.5l2.9-37.8h79.7L14.7,38.5z"/>
		</g>
		<g transform="matrix(1,0,0,1,551.802978515625,1431.77001953125)" class="st1">
			<path class="st2" d="M-76,23.8h96v-8.5h-96V23.8z"/>
		</g>
		<g transform="matrix(1,0,0,1,551.552001953125,1253.81494140625)" class="st1">
			<path class="st3" d="M136.2-85.1h-328.4c-2.3,0-4.5,0.9-6.2,2.6c-1.6,1.6-2.6,3.9-2.6,6.2v200.5h345.8V-76.3
				c0-1.1-0.2-2.3-0.7-3.3c-0.4-1.1-1.1-2-1.9-2.8c-0.8-0.8-1.8-1.5-2.8-1.9C138.4-84.9,137.3-85.1,136.2-85.1z"/>
		</g>
		<g transform="matrix(1,0,0,1,551.552001953125,1379.3800048828125)" class="st1">
			<path class="st2" d="M-200.9-1.4v33c0,1.2,0.2,2.3,0.7,3.4c0.4,1.1,1.1,2,1.9,2.9s1.8,1.5,2.8,1.9c1.1,0.4,2.2,0.7,3.3,0.7h328.4
				c2.3,0,4.5-0.9,6.2-2.6s2.6-3.9,2.6-6.2v-33h-345.9V-1.4z"/>
		</g>
		<g transform="matrix(1,0,0,1,551.8040161132812,1255.074951171875)" class="st1">
			<path class="st2" d="M127.6-68.2h-311.2v175.5h311.2V-68.2z"/>
		</g>
		<g transform="matrix(1,0,0,1,551.8040161132812,1379.1300048828125)" class="st1">
			<path class="st4" d="M-28,28.1c4.9,0,8.8-3.8,8.8-8.6c0-4.7-3.9-8.6-8.8-8.6c-4.9,0-8.8,3.8-8.8,8.6S-32.9,28.1-28,28.1z"/>
		</g>
		<g transform="matrix(1,0,0,1,405.7760009765625,1173.135009765625)" class="st1">
			<path class="st5" d="M-28,21.3c0.8,0,1.5-0.8,1.5-1.8s-0.7-1.8-1.5-1.8s-1.5,0.8-1.5,1.8C-29.5,20.5-28.9,21.3-28,21.3z"/>
		</g>
		<g transform="matrix(1,0,0,1,412.05999755859375,1173.135009765625)" class="st1">
			<path class="st5" d="M-28,21.3c1,0,1.8-0.8,1.8-1.8s-0.8-1.8-1.8-1.8s-1.8,0.8-1.8,1.8C-29.8,20.5-29,21.3-28,21.3z"/>
		</g>
		<g transform="matrix(1,0,0,1,418.3429870605469,1173.135009765625)" class="st1">
			<path class="st5" d="M-28,21.3c0.8,0,1.5-0.8,1.5-1.8s-0.7-1.8-1.5-1.8s-1.5,0.8-1.5,1.8C-29.5,20.5-28.9,21.3-28,21.3z"/>
		</g>
		<g transform="matrix(1,0,0,1,551.301025390625,1252.5550537109375)" class="st1">
			<path class="st5" d="M119-54.1h-294.1V93.2H119V-54.1z"/>
		</g>
		<g transform="matrix(1,0,0,1,454.2850036621094,1228.60498046875)" class="st1">
			<path class="st2" d="M-58.4-7.9c-0.3,0-0.5,0.1-0.7,0.3s-0.3,0.5-0.3,0.7V46c0,0.3,0.1,0.5,0.3,0.7s0.5,0.3,0.7,0.3H2.4
				c0.3,0,0.5-0.1,0.7-0.3c0.2-0.2,0.3-0.5,0.3-0.7V-6.9c0-0.3-0.1-0.6-0.3-0.7C2.9-7.8,2.6-7.9,2.4-7.9H-58.4z"/>
		</g>
		<g transform="matrix(1,0,0,1,551.552001953125,1228.85498046875)" class="st1">
			<path class="st2" d="M-58.2-7.7c-0.3,0-0.5,0.1-0.7,0.3s-0.3,0.5-0.3,0.7v52.4c0,0.3,0.1,0.5,0.3,0.7s0.5,0.3,0.7,0.3H2.1
				c0.3,0,0.5-0.1,0.7-0.3c0.2-0.2,0.3-0.5,0.3-0.7V-6.7C3.1-7,3-7.2,2.8-7.4S2.3-7.7,2.1-7.7H-58.2z"/>
		</g>
		<g transform="matrix(1,0,0,1,648.5689697265625,1228.35498046875)" class="st1">
			<path class="st2" d="M-58.7-8.2c-0.3,0-0.5,0.1-0.7,0.3c-0.2,0.2-0.3,0.5-0.3,0.7v53.4c0,0.3,0.1,0.5,0.3,0.7s0.5,0.3,0.7,0.3
				H2.6c0.3,0,0.5-0.1,0.7-0.3c0.2-0.2,0.3-0.5,0.3-0.7V-7.2c0-0.3-0.1-0.5-0.3-0.7C3.1-8.1,2.8-8.2,2.6-8.2H-58.7z"/>
		</g>
		<g transform="matrix(1,0,0,1,453.531005859375,1284.324951171875)" class="st1">
			<path class="st2" d="M-56.5,17.5c-0.6,0-1.1,0.2-1.5,0.6c-0.4,0.4-0.6,0.9-0.6,1.4c0,0.5,0.2,1,0.6,1.4c0.4,0.4,0.9,0.6,1.5,0.6
				h57c0.6,0,1.1-0.2,1.5-0.6s0.6-0.9,0.6-1.4S2.4,18.4,2,18.1c-0.4-0.4-0.9-0.6-1.5-0.6C0.5,17.5-56.5,17.5-56.5,17.5z"/>
		</g>
		<g transform="matrix(1,0,0,1,437.6960144042969,1294.6600341796875)" class="st1">
			<path class="st6" d="M-40.7,17.3c-0.6,0-1.1,0.2-1.5,0.7c-0.4,0.4-0.6,1-0.6,1.6c0,0.6,0.2,1.2,0.6,1.6c0.4,0.4,0.9,0.7,1.5,0.7
				h25.4c0.6,0,1.1-0.2,1.5-0.7c0.4-0.4,0.6-1,0.6-1.6s-0.2-1.2-0.6-1.6c-0.4-0.4-0.9-0.7-1.5-0.7C-15.3,17.3-40.7,17.3-40.7,17.3z"
				/>
		</g>
		<g transform="matrix(1,0,0,1,552.0560302734375,1284.324951171875)" class="st1">
			<path class="st2" d="M-56.5,17.5c-0.6,0-1.1,0.2-1.5,0.6c-0.4,0.4-0.6,0.9-0.6,1.4c0,0.5,0.2,1,0.6,1.4c0.4,0.4,0.9,0.6,1.5,0.6
				h57c0.6,0,1.1-0.2,1.5-0.6s0.6-0.9,0.6-1.4S2.4,18.4,2,18.1c-0.4-0.4-0.9-0.6-1.5-0.6C0.5,17.5-56.5,17.5-56.5,17.5z"/>
		</g>
		<g transform="matrix(1,0,0,1,536.2210083007812,1294.6600341796875)" class="st1">
			<path class="st6" d="M-40.7,17.3c-0.6,0-1.1,0.2-1.5,0.7c-0.4,0.4-0.6,1-0.6,1.6c0,0.6,0.2,1.2,0.6,1.6c0.4,0.4,0.9,0.7,1.5,0.7
				h25.4c0.6,0,1.1-0.2,1.5-0.7c0.4-0.4,0.6-1,0.6-1.6s-0.2-1.2-0.6-1.6c-0.4-0.4-0.9-0.7-1.5-0.7C-15.3,17.3-40.7,17.3-40.7,17.3z"
				/>
		</g>
		<g transform="matrix(1,0,0,1,648.0670166015625,1284.324951171875)" class="st1">
			<path class="st2" d="M-56.5,17.5c-0.6,0-1.1,0.2-1.5,0.6c-0.4,0.4-0.6,0.9-0.6,1.4c0,0.5,0.2,1,0.6,1.4c0.4,0.4,0.9,0.6,1.5,0.6
				h57c0.6,0,1.1-0.2,1.5-0.6s0.6-0.9,0.6-1.4S2.4,18.4,2,18.1c-0.4-0.4-0.9-0.6-1.5-0.6C0.5,17.5-56.5,17.5-56.5,17.5z"/>
		</g>
		<g transform="matrix(1,0,0,1,453.531005859375,1273.7349853515625)" class="st1">
			<path class="st2" d="M-56.5,17.5c-0.6,0-1.1,0.2-1.5,0.6c-0.4,0.4-0.6,0.9-0.6,1.4c0,0.5,0.2,1,0.6,1.4c0.4,0.4,0.9,0.6,1.5,0.6
				h57c0.6,0,1.1-0.2,1.5-0.6s0.6-0.9,0.6-1.4S2.4,18.4,2,18.1c-0.4-0.4-0.9-0.6-1.5-0.6C0.5,17.5-56.5,17.5-56.5,17.5z"/>
		</g>
		<g transform="matrix(1,0,0,1,552.0560302734375,1273.7349853515625)" class="st1">
			<path class="st2" d="M-56.5,17.5c-0.6,0-1.1,0.2-1.5,0.6c-0.4,0.4-0.6,0.9-0.6,1.4c0,0.5,0.2,1,0.6,1.4c0.4,0.4,0.9,0.6,1.5,0.6
				h57c0.6,0,1.1-0.2,1.5-0.6s0.6-0.9,0.6-1.4S2.4,18.4,2,18.1c-0.4-0.4-0.9-0.6-1.5-0.6C0.5,17.5-56.5,17.5-56.5,17.5z"/>
		</g>
		<g transform="matrix(1,0,0,1,648.0670166015625,1273.7349853515625)" class="st1">
			<path class="st2" d="M-56.5,17.5c-0.6,0-1.1,0.2-1.5,0.6c-0.4,0.4-0.6,0.9-0.6,1.4c0,0.5,0.2,1,0.6,1.4c0.4,0.4,0.9,0.6,1.5,0.6
				h57c0.6,0,1.1-0.2,1.5-0.6s0.6-0.9,0.6-1.4S2.4,18.4,2,18.1c-0.4-0.4-0.9-0.6-1.5-0.6C0.5,17.5-56.5,17.5-56.5,17.5z"/>
		</g>
		<g transform="matrix(1,0,0,1,632.4829711914062,1294.6600341796875)" class="st1">
			<path class="st6" d="M-40.9,17.3c-0.6,0-1.1,0.2-1.5,0.7c-0.4,0.4-0.6,1-0.6,1.6c0,0.6,0.2,1.2,0.6,1.6c0.4,0.4,1,0.7,1.5,0.7
				h25.8c0.6,0,1.1-0.2,1.5-0.7c0.4-0.4,0.6-1,0.6-1.6s-0.2-1.2-0.6-1.6c-0.4-0.4-1-0.7-1.5-0.7C-15.1,17.3-40.9,17.3-40.9,17.3z"/>
		</g>
	</g>
	<g transform="matrix(0.6299999952316284,0,0,0.6299999952316284,-135.32937622070312,-10.194061279296875)" class="st19">
		<g transform="matrix(1,0,0,1,741.8179931640625,233.39300537109375)" class="st1">
			<path class="st20" d="M-80.7-96.6l-2.3,7.7v224.8l2.3,2.3l104-61.7L-80.7-96.6z"/>
		</g>
		<g transform="matrix(1,0,0,1,638.9840087890625,233.3939971923828)" class="st1">
			<path class="st21" d="M22.2-96.6l-104,173.1l104,61.7V29.1V-96.6z"/>
		</g>
		<g transform="matrix(1,0,0,1,742.343994140625,382.4119873046875)" class="st1">
			<path class="st22" d="M-81.2,9l-1.3,1.6v80.1l1.3,3.8l104-147L-81.2,9z"/>
		</g>
		<g transform="matrix(1,0,0,1,638.9840087890625,382.4110107421875)" class="st1">
			<path class="st21" d="M22.2,94.3V9l-104-61.6L22.2,94.3z"/>
		</g>
		<g transform="matrix(1,0,0,1,742.9520263671875,296.239990234375)" class="st1">
			<path class="st23" d="M-81.8,75.4l104-61.7l-104-47.4V75.4z"/>
		</g>
		<g transform="matrix(1,0,0,1,638.9840087890625,296.239013671875)" class="st1">
			<path class="st24" d="M-81.8,13.7l104,61.7V-33.7L-81.8,13.7z"/>
		</g>
	</g>
	<g transform="matrix(0.38999998569488525,0,0,0.38999998569488525,15.647125244140625,179.59033203125)">
		<g transform="matrix(1,0,0,1,958.0390014648438,149.55299377441406)">
			<path class="st25" d="M-786.2,528.5l-24.5,88.1h-25.5l-34.1-129h28L-822,581h0.7l24.1-93.4h22.8l24.1,93.4h0.7l20.4-93.4h28
				l-34.2,129h-25.5l-24.5-88.1C-785.4,528.5-786.2,528.5-786.2,528.5z M-664,599.2c11.3,0,20.7-7.4,20.7-17.8v-7l-20.2,1.2
				c-9.7,0.7-15.3,5.1-15.3,11.9C-678.8,594.8-672.9,599.2-664,599.2z M-672.6,618.1c-18.2,0-32.1-11.8-32.1-29
				c0-17.4,13.4-27.5,37.3-29l24.1-1.4v-6.3c0-8.9-6.3-14.1-16.1-14.1c-9.7,0-15.9,4.8-17.2,11.9h-23.9c1-18.6,16.8-31.4,42.2-31.4
				c24.6,0,40.6,12.7,40.6,32v65.9h-25.2V602h-0.5C-648.8,612.1-660.6,618.1-672.6,618.1z M-600.2,487.6h26.1v129h-26.1V487.6z
				 M-555.9,487.6h26.1v129h-26.1V487.6z M-469.2,538c-11.4,0-19.7,8.7-20.6,20.6h40.7C-449.6,546.4-457.6,538-469.2,538z
				 M-448.7,587.3h24c-2.9,18.8-20,31.4-43.7,31.4c-29.5,0-47.2-18.9-47.2-49.5c0-30.6,17.9-50.4,46.2-50.4
				c27.9,0,45.5,18.9,45.5,48v8h-66v1.6c0,13.7,8.7,23.1,22,23.1C-458.5,599.3-451.2,594.6-448.7,587.3z M-403.6,498.7h26.1v22.1
				h17.7v19.7h-17.7v45.8c0,7.3,3.6,10.8,11.3,10.8c2.3,0,4.7-0.2,6.3-0.4v19.2c-2.7,0.6-7.2,1.1-12.4,1.1
				c-22.5,0-31.3-7.5-31.3-26.2v-50.3h-13.5v-19.7h13.5C-403.6,520.8-403.6,498.7-403.6,498.7z M-286.3,618.8
				c-37.5,0-61-25.1-61-66.8c0-41.6,23.7-66.7,61-66.7c31,0,54.6,19.7,56.7,48.5h-26.3c-2.5-15.8-14.7-26.2-30.4-26.2
				c-20.4,0-33.5,17.1-33.5,44.2c0,27.5,13,44.5,33.6,44.5c16,0,27.5-9.4,30.4-24.7h26.3C-232.6,600.6-254.6,618.8-286.3,618.8z
				 M-171.2,618.6c-29,0-47.5-18.6-47.5-50c0-31,18.8-49.9,47.5-49.9s47.5,18.8,47.5,49.9C-123.7,600.1-142.2,618.6-171.2,618.6z
				 M-171.2,598.7c12.8,0,20.9-10.8,20.9-30c0-19-8.2-30-20.9-30c-12.7,0-21,11-21,30C-192.2,587.9-184,598.7-171.2,598.7z
				 M-110.3,616.6v-95.8h25.2v17.1h0.5c5.1-11.9,15.2-18.9,30-18.9c21.3,0,33.2,13.4,33.2,35.8v61.8h-26.1v-56.3
				c0-12.5-5.9-19.7-17.6-19.7c-11.7,0-19.1,8.6-19.1,21v55H-110.3z M-4.9,616.6v-95.8h25.2v17.1h0.5C25.9,526,36,519,50.7,519
				c21.3,0,33.2,13.4,33.2,35.8v61.8H57.8v-56.3c0-12.5-5.9-19.7-17.6-19.7c-11.7,0-19.1,8.6-19.1,21v55H-4.9z M143.6,538
				c-11.4,0-19.7,8.7-20.6,20.6h40.7C163.2,546.4,155.2,538,143.6,538z M164,587.3h24c-2.9,18.8-20,31.4-43.7,31.4
				c-29.5,0-47.2-18.9-47.2-49.5c0-30.6,17.9-50.4,46.2-50.4c27.9,0,45.5,18.9,45.5,48v8h-66v1.6c0,13.7,8.7,23.1,22,23.1
				C154.3,599.3,161.6,594.6,164,587.3z M289.2,556.4H265c-1.5-10.1-8.2-17.2-18.9-17.2c-12.9,0-20.9,10.9-20.9,29.4
				c0,18.9,8,29.6,21,29.6c10.5,0,17.2-6.3,18.9-16.7h24.3c-1.3,22.6-18.2,37.2-43.4,37.2c-28.9,0-47.2-18.8-47.2-50
				c0-30.7,18.3-49.9,47-49.9C271.6,518.7,288.1,534.7,289.2,556.4z M308.9,498.7H335v22.1h17.7v19.7H335v45.8
				c0,7.3,3.6,10.8,11.3,10.8c2.3,0,4.7-0.2,6.3-0.4v19.2c-2.7,0.6-7.1,1.1-12.4,1.1c-22.5,0-31.3-7.5-31.3-26.2v-50.3h-13.5v-19.7
				h13.5L308.9,498.7L308.9,498.7z"/>
		</g>
		<g transform="matrix(1,0,0,1,194.28700256347656,119)">
			<path class="st26" d="M134.1-288C338.9-488.6,671-488.6,876-288l24.6,24.1c10.3,10.1,10.3,26.2,0,36.3l-84.3,82.7
				c-5,5-13.5,5-18.5,0L764-178.1C621.1-318,389.3-318,246.5-178.1l-36.3,35.5c-5,5-13.5,5-18.5,0l-84.5-82.7
				c-10.3-10.1-10.3-26.2,0-36.3L134.1-288z M1050.4-117.4l75,73.4c10.3,10.1,10.3,26.2,0,36.3L787,323.8
				c-10.3,10.1-26.8,10.1-37.1,0L509.6,88.5c-2.6-2.4-6.6-2.4-9.3,0L260.2,323.8c-10.3,10.1-26.8,10.1-37.1,0L-115.5-7.4
				c-10.3-10.1-10.3-26.2,0-36.3l75-73.4c10.3-10.1,26.8-10.1,37.1,0l240.3,235.3c2.6,2.4,6.6,2.4,9.3,0l240.1-235.3
				c10.3-10.1,26.8-10.1,37.1,0l240.3,235.3c2.6,2.4,6.6,2.4,9.3,0l240.3-235.3C1023.4-127.5,1040.1-127.5,1050.4-117.4z"/>
		</g>
	</g>
	<g transform="matrix(1.6299999952316284,0,0,1.6299999952316284,155.8493194580078,191.76559448242188)" class="st27">
		<g transform="matrix(1,0,0,1,86.01000213623047,20.88800048828125)" class="st1">
			<path class="st5" d="M-56.1,4.9c-3.3,0-6.5,1.5-8.5,4.2c-2.3,2.8-3.5,6.3-3.4,9.9c-0.1,2.3,0.6,4.6,2.1,6.3
				c1.4,1.6,3.5,2.5,5.7,2.4c3.2,0,6.2-1.5,8.1-4c2.4-2.9,3.7-6.5,3.7-10.3c0.1-2.2-0.5-4.4-1.8-6.2C-51.4,5.7-53.4,4.9-56.1,4.9z
				 M-56,21.8c-1.1,1.1-2.5,1.7-4.1,1.7c-1,0.1-2-0.4-2.7-1.2c-0.7-1-1-2.1-1-3.3c-0.1-2.5,0.6-5,2.1-7.1c1.1-1.8,3.1-2.9,5.3-2.9
				c2.4,0,3.6,1.5,3.6,4.4C-52.7,16.5-53.9,19.5-56,21.8z M72.9,15.4c-1-0.3-2.1,0.1-2.5,1.1c-1.9,4.7-4.1,7-6.9,7
				c-1.5,0-2.2-1.3-2.2-3.7c0.2-2.7,0.6-5.4,1.2-8.1l0.6-2.8h5.7c1,0,1.8-0.7,2-1.7C71,6.1,70.3,5,69.2,4.8c-0.1,0-0.3,0-0.4,0H64
				l1-4.7c0.2-1.2-0.5-2.3-1.7-2.6c-0.1,0-0.3,0-0.4,0c-1,0-1.9,0.7-2.1,1.7l-1.2,5.5H46.3c-3.4,0-6.5,1.6-8.5,4.3
				c-2.3,2.8-3.5,6.3-3.4,9.9c0,1,0.1,1.9,0.3,2.9c-0.9,1-2.1,1.6-3.5,1.7c-0.7,0.1-1.3-0.2-1.8-0.7c-0.4-0.7-0.6-1.6-0.5-2.4
				c0.1-2.4,0.4-4.8,1-7.1l3.5-16.1c0.3-1.1-0.4-2.3-1.6-2.5c-1.1-0.3-2.3,0.4-2.5,1.6l-2,9.8c-1.4-0.8-3-1.3-4.7-1.3
				c-3.3,0-6.5,1.4-8.7,4c-2.3,2.8-3.6,6.4-3.5,10.1c0,1.2,0.1,2.3,0.5,3.5C10.1,23.1,9,23.5,8,23.5c-0.7,0.1-1.4-0.2-1.9-0.7
				c-0.5-0.7-0.7-1.5-0.6-2.4c0.1-1.6,0.3-3.2,0.7-4.8c0.2-1.2-0.5-2.3-1.7-2.6c-0.1,0-0.1,0-0.2,0c-1.1-0.1-2.1,0.6-2.3,1.6
				c-0.6,2.3-1.6,4.4-2.9,6.3c-1,1.5-2.6,2.5-4.4,2.6c-0.9,0-1.8-0.5-2.3-1.3c-0.6-1.1-0.9-2.3-0.9-3.5c-0.1-2.5,0.6-5,2.1-7
				c1.2-1.8,3.3-2.8,5.5-2.8c1.1,0,2.2,0.2,3.2,0.7c0.6,0.3,1.3,0.2,1.9-0.1c1-0.6,1.3-1.8,0.7-2.8C4.7,6.3,4.3,6,3.9,5.9
				C3.4,5.7,2.8,5.5,2.2,5.4C1.2,5.1,0.1,5-0.9,4.9c-3.3,0-6.5,1.5-8.6,4c-1.3,1.4-2.2,3.1-2.7,4.9c-2.1,6.6-4.7,9.8-7.9,9.8
				c-0.9,0.1-1.8-0.3-2.4-1.1c-0.5-0.8-0.8-1.7-0.7-2.6c0-0.3,0-0.6,0.1-0.9c1.9-0.8,3.6-2,4.9-3.7c1.2-1.6,1.9-3.5,1.9-5.5
				c0-3.3-1.8-5-5.5-5c-2.5,0-5,1-6.8,2.8l2.3-10.5c0.2-1.1-0.5-2.3-1.6-2.5c-0.1,0-0.3,0-0.4,0c-1,0-1.9,0.7-2.1,1.7l-6.2,28.9
				c-0.2,1.1,0.5,2.2,1.6,2.5c0.1,0,0.3,0,0.4,0c1,0,1.8-0.8,2-1.7l1.9-8.9c0.3-1.2,0.8-2.3,1.3-3.4c0.7-1.2,1.7-2.3,2.8-3.2
				c1.2-1,2.7-1.6,4.2-1.5c0.8-0.1,1.5,0.4,1.6,1.2c0,0.1,0,0.3,0,0.4c-0.1,1.4-0.8,2.7-2,3.5c-1.2,1.1-2.7,1.8-4.3,2.1
				c-0.1,1.3-0.2,2.2-0.2,2.7c-0.1,2.3,0.6,4.6,1.9,6.4c1.3,1.6,3.3,2.5,5.3,2.3c2.8,0,5.5-1.4,7.3-3.6l0.8-1
				c0.3,0.8,0.7,1.5,1.3,2.1c1.3,1.6,3.3,2.5,5.3,2.4c2.9,0,5.3-1.3,7.3-4.1c0.9,2.8,2.9,4.1,6.2,4.1c1.9,0,3.7-0.7,5.1-1.9
				c1.3,1.2,3,1.9,4.8,1.8c2.9,0,5.3-1.3,7.3-4.1c0.9,2.8,2.9,4.1,6.2,4.1c2.1,0,4.2-0.8,5.7-2.2c1.4,1.5,3.4,2.3,5.4,2.2
				c3.2,0,6.2-1.5,8.1-4c2.4-2.9,3.7-6.5,3.7-10.3c0-1.5-0.2-3-0.8-4.5h5.5L58.6,11c-0.7,2.8-1.1,5.6-1.3,8.5c0,5.2,2.1,7.9,6.3,7.9
				c4.8,0,8.3-3.2,10.9-9.5c0.4-1,0-2.1-0.9-2.5C73.1,15.4,73,15.4,72.9,15.4z M25.7,12.9c-0.7,3.7-1.9,6.3-3.3,8.1
				c-1.4,1.7-2.9,2.6-4.5,2.6c-0.9,0-1.8-0.5-2.3-1.3c-0.6-1.1-0.9-2.2-0.9-3.5c-0.1-2.5,0.6-5,2.1-7c1.9-2.9,5.7-3.7,8.5-1.8
				c0.3,0.2,0.5,0.4,0.8,0.6L25.7,12.9z M48.9,17.9c-0.6,1.4-1.4,2.7-2.4,3.9c-1.1,1.1-2.5,1.8-4.1,1.8c-1,0.1-2-0.4-2.7-1.2
				c-0.7-1-1-2.1-1-3.3c-0.1-2.5,0.6-5,2.1-7.1c1.2-1.8,3.1-2.9,5.3-2.9c2.4,0,3.6,1.5,3.6,4.4C49.7,14.9,49.4,16.4,48.9,17.9
				L48.9,17.9z M-38.1-5.5c-1,0-1.9,0.7-2.1,1.7l-6.2,28.9c-0.2,1.1,0.5,2.2,1.6,2.5c0.1,0,0.3,0,0.4,0c1,0,1.9-0.7,2.1-1.7L-36.1-3
				c0.2-1.2-0.5-2.3-1.7-2.5C-37.8-5.4-37.9-5.4-38.1-5.5z M-82.3-11.8c-8.4,0-15.1,6.8-15.2,15.2c0,1.7,0.3,3.3,0.8,4.9
				c0.4,1.1,1.6,1.7,2.7,1.3c1.1-0.4,1.6-1.6,1.3-2.7c-0.4-1.2-0.7-2.6-0.6-3.9C-93.1-3-88.1-7.8-82-7.6c6,0.2,10.8,5.2,10.6,11.3
				C-71.6,9.4-76,14-81.7,14.3c0,0-2.1,0.1-3.2,0.3c-0.4,0.1-0.8,0.1-1.2,0.2c-0.1,0-0.2,0-0.2,0c0-0.1,0-0.1,0-0.2l0.3-1.8l2-9.1
				c0.2-1.1-0.5-2.2-1.6-2.5c-1.1-0.2-2.2,0.5-2.5,1.6c0,0-4.8,22.1-4.8,22.3c-0.3,1.1,0.4,2.2,1.5,2.4h0.1c1.1,0.3,2.2-0.4,2.4-1.5
				v-0.1c0.1-0.3,0.7-3.2,0.7-3.2c0.5-2.2,2.2-3.9,4.5-4.2c0.6,0.1,2.5-0.1,2.5-0.1c8.3-0.8,14.5-8.2,13.7-16.5
				C-68.2-5.8-74.6-11.7-82.3-11.8z"/>
		</g>
		<g transform="matrix(1,0,0,1,174.21600341796875,38.465999603271484)" class="st1">
			<path class="st28" d="M-10.9,5.5c-1.4-0.3-2.7,0.6-3,2l0,0c-0.3,1.4,0.6,2.7,1.9,3c0,0,0,0,0.1,0c1.3,0.3,2.7-0.5,3-1.9V8.5
				C-8.7,7.2-9.5,5.9-10.9,5.5z"/>
		</g>
	</g>
	<g transform="matrix(0.16099999845027924,0,0,0.16099999845027924,140.20750427246094,118.52912139892578)" class="st29">
		<g transform="matrix(1,0,0,1,1180.260009765625,95.81800079345703)" class="st1">
			<path class="st30" d="M-99.5,70.2c-2.2,1.5-3.3,2.3-4.4,3.1c-9,6.2-18.1,12.5-27.2,18.7c-0.8,0.5-1.8,0.6-2.7,1
				c0.6-0.6,1.1-1.4,1.8-1.8c9.7-7,19.5-14,29.2-20.9C-102.3,69.9-101.4,70.2-99.5,70.2z"/>
		</g>
		<g transform="matrix(1,0,0,1,1099.6199951171875,203.57400512695312)" class="st1">
			<path class="st30" d="M-121,88.1c-0.6-0.1-0.8-0.1-0.9-0.2c0.1-0.4,0-1,0.2-1.3c3.1-3.9,6.3-7.7,9.5-11.5
				c0.1-0.2,0.4-0.2,0.7-0.4c0,0.1,0.2,0.3,0.2,0.4C-114.6,79.6-117.9,83.9-121,88.1z"/>
		</g>
		<g transform="matrix(1,0,0,1,1121.1500244140625,171.7899932861328)" class="st1">
			<path class="st30" d="M-128.8,95.4c-0.6-0.2-0.7-0.2-0.9-0.3c0.1-0.4,0.1-1,0.4-1.2c3.5-3.5,7.1-7,10.6-10.5
				c0.2-0.2,4.2-4.7,4.5-4.8c1.4-1.3,10.7-11.1,0.8,0C-117.1,82.7-125.2,91.6-128.8,95.4z"/>
		</g>
		<g transform="matrix(1,0,0,1,1135.2900390625,133.91099548339844)" class="st1">
			<path class="st30" d="M-137,101.2c2.4-3.1,11.3-12.5,24.2-25c3.7-3.3,10-9.2,13.8-12.5c0.2-0.2,2.4-1.8,2.6-1.9
				c0,0.1-1.8,2-1.8,2C-102,67.6-129,91.3-137,101.2z"/>
		</g>
		<g transform="matrix(1,0,0,1,1099.6800537109375,228.00799560546875)" class="st1">
			<path class="st30" d="M-112.1,75.6c-2.5,3.7-5,7.5-7.6,11.2c-0.2,0.3-0.9,0.4-1.3,0.6c0-0.3-0.2-0.8,0-1
				C-118.1,82.8-115.1,79.2-112.1,75.6z"/>
		</g>
		<g transform="matrix(1,0,0,1,1048.14501953125,255.7169952392578)" class="st1">
			<path class="st30" d="M-112.7,75.1c-2.1,4-4.2,8-6.3,12c-0.2,0.3-0.8,0.5-1.3,0.7c-0.1-0.3-0.3-0.8-0.1-1
				C-117.9,82.9-115.3,79.1-112.7,75.1z"/>
		</g>
		<g transform="matrix(1,0,0,1,1552.5450439453125,971.0960083007812)" class="st1">
			<path class="st30" d="M-121.4,82.1c1.2-0.3,2.3-0.8,3.5-0.9c2-0.3,4.1-0.3,6.1-0.4c-2.1,0.5-4.1,1-6.2,1.4
				C-119.1,82.2-120.3,82-121.4,82.1L-121.4,82.1z"/>
		</g>
		<g transform="matrix(1,0,0,1,1203.3349609375,80.88400268554688)" class="st1">
			<path class="st30" d="M-114.4,80.4c-0.2,0.3-0.5,0.6-0.8,0.7c-1.1,0.6-2.3,1.1-3.5,1.8c0-0.3-0.1-0.8,0-0.9
				c1.3-0.6,2.7-1.3,4-1.9C-114.6,80.2-114.5,80.3-114.4,80.4z"/>
		</g>
		<g transform="matrix(1,0,0,1,1158.97998046875,111.17900085449219)" class="st1">
			<path class="st30" d="M-117.8,83.8c-0.7-0.9-0.9-1.1-0.9-1.1c1.2-1.1,2.4-2.3,3.7-3.4l0.5,0.4C-115.6,80.9-116.6,82.2-117.8,83.8
				z"/>
		</g>
		<g transform="matrix(1,0,0,1,1110.875,214.61599731445312)" class="st1">
			<path class="st30" d="M-114.6,80.2c-1.4,1.1-2.5,2-3.7,3c-0.1-0.2-0.4-0.5-0.4-0.5c1.1-1,2.2-1.9,3.4-2.9
				C-115.3,79.7-115,80-114.6,80.2z"/>
		</g>
		<g transform="matrix(1,0,0,1,1129.5150146484375,184.73300170898438)" class="st1">
			<path class="st30" d="M-118.4,82.9c0.4-0.4,0.8-0.8,1.2-1.1c0.7-0.6,1.4-1.1,2-1.8c0.1,0.1,0.2,0.1,0.2,0.3
				C-116,81.2-117.2,82.1-118.4,82.9z"/>
		</g>
		<g transform="matrix(1,0,0,1,1090.7550048828125,200.2729949951172)" class="st1">
			<path class="st30" d="M-117.4,81.8c0.5-0.5,0.9-0.8,1.2-1.1c0.1,0.1,0.3,0.4,0.3,0.4c-0.3,0.4-0.6,0.8-1,1.1
				C-116.9,82.3-117.2,82-117.4,81.8z"/>
		</g>
		<g transform="matrix(1,0,0,1,1162.72998046875,153.7550048828125)" class="st1">
			<path class="st30" d="M-116.5,80.6c0.4,0,0.9-0.1,1.3-0.1c-0.9,0.7-1.9,1.4-2.8,2C-117.6,81.8-117,81.2-116.5,80.6z"/>
		</g>
		<g transform="matrix(1,0,0,1,1114.97998046875,844.1240234375)" class="st1">
			<path class="st30" d="M-117.7,80.3c0.8,0.8,1.5,1.6,2.2,2.4C-116.3,81.9-117,81.1-117.7,80.3z"/>
		</g>
		<g transform="matrix(1,0,0,1,1039.344970703125,257.4989929199219)" class="st1">
			<path class="st30" d="M-115.2,78.8c-0.3,0.4-2.3,4.9-2.5,5.3c-0.1-0.2-0.4-0.5-0.3-0.6C-117.8,83.1-115.4,79.1-115.2,78.8z"/>
		</g>
		<g transform="matrix(1,0,0,1,1104.574951171875,213.03799438476562)" class="st1">
			<path class="st30" d="M-117.6,82c0.7-0.4,1.3-0.7,2-1.1C-116.3,81.3-117,81.6-117.6,82z"/>
		</g>
		<g transform="matrix(1,0,0,1,1206.7650146484375,78.84100341796875)" class="st1">
			<path class="st30" d="M-115.2,80.8c-0.9,0.5-1.8,1.1-2.7,1.6c-0.1-0.1-0.1-0.2-0.2-0.3c0.9-0.5,1.8-1.1,2.7-1.6
				C-115.4,80.6-115.3,80.7-115.2,80.8z"/>
		</g>
		<g transform="matrix(1,0,0,1,1150.6199951171875,173.70799255371094)" class="st1">
			<path class="st30" d="M-116.8,81c0.4,0,0.9-0.1,1.3-0.1c-0.8,0.4-1.5,0.7-2.3,1.1C-117.4,81.7-117.1,81.4-116.8,81z"/>
		</g>
		<g transform="matrix(1,0,0,1,1077.7449951171875,793.4249877929688)" class="st1">
			<path class="st30" d="M-116.1,82.4c-0.4-0.5-0.8-1.1-1.3-1.6c0.2,0,0.4-0.1,0.4-0.1c0.4,0.5,0.7,1,1,1.5
				C-116,82.2-116,82.3-116.1,82.4z"/>
		</g>
		<g transform="matrix(1,0,0,1,1104.864990234375,221.39100646972656)" class="st1">
			<path class="st30" d="M-117.2,82.2c0.3-0.5,0.6-1,0.8-1.5c0.1,0.1,0.3,0.2,0.4,0.3C-116.4,81.4-116.8,81.8-117.2,82.2
				C-117.3,82.2-117.2,82.2-117.2,82.2z"/>
		</g>
		<g transform="matrix(1,0,0,1,1546.0889892578125,971.9210205078125)" class="st1">
			<path class="st30" d="M-115,81.2c-1.1,0.2-2.2,0.3-3.3,0.5l0,0C-117.2,81.6-116.1,81.4-115,81.2L-115,81.2z"/>
		</g>
		<g transform="matrix(1,0,0,1,1268.0899658203125,970.593994140625)" class="st1">
			<path class="st30" d="M-111.5,83.1c1.8,0.7,3.6,1.4,5.4,2.2c0.3,0.4,0.7,0.7,1,1.1l0,0c-7.8-3.2-15.5-6.5-23.2-9.7
				C-122.7,78.8-117.1,80.9-111.5,83.1z"/>
		</g>
		<g transform="matrix(1,0,0,1,1069.3349609375,807.8410034179688)" class="st1">
			<path class="st30" d="M-117,80.3c0.2,0.8,0.5,1.5,0.8,2.3C-116.5,81.9-116.8,81.1-117,80.3z"/>
		</g>
		<g transform="matrix(1,0,0,1,1496.385009765625,35.150001525878906)" class="st1">
			<path class="st30" d="M-47.9,85.3c-0.2,0-0.4-0.1-0.6-0.1c-4.3-0.5-13.2,3.3-47-5.7c-4-1.1-7.5-1.9-10.6-2.5
				c-6.8-0.7-13.5-1.2-19.9-1.6c-8.6,0.7-13.6,3.2-25.1,1.9c-6.3-0.7-12.8,0.1-17.9,1.3c-11.3,2.6-16.3,6.9,0,0
				c0.2-0.1,0.5-0.2,0.7-0.3c8-3.5,24-3.9,42.4-2.9C-121,75-115,75.2-106,77c21.4,2.1,43.2,5.5,57.7,8.2
				C-48.2,85.2-48.1,85.3-47.9,85.3z"/>
		</g>
		<g transform="matrix(1,0,0,1,1499.22998046875,506)" class="st1">
			<path class="st30" d="M270.6,382.4c1.6-2.1,3.2-4.1,4.8-6.2c1-1.5,1.9-2.9,2.9-4.3l0,0c1.7-2.6,3.5-5.1,5.2-7.8
				c1.1-1.6,2.2-3.2,3.4-4.8l0,0c1.3-1.7,2.6-3.4,3.7-5.2c3.7-5.9,7.4-11.9,10.8-18c1.3-2.5,2.7-4.9,4-7.4l0,0l0,0l0,0
				c5.3-9.6,10.6-19.3,15.2-29.2c4.1-8.8,7.6-17.8,11.1-26.9l0,0l0,0c1.3-3.5,2.7-7,4.1-10.4c0.4-1.1,0.9-2.2,1.3-3.3l0,0l0,0l0,0
				c2.1-5.2,4.1-10.3,5.8-15.6c3.5-11.2,6.7-22.4,9.7-33.8c0.1-0.6,0.3-1.1,0.4-1.7l0.3-1c3-11.4,6.1-22.9,8.4-34.5
				c2.2-11.1,3.7-22.5,4.9-33.9c1.2-11.2,2.1-22.4,2.2-33.6c0-4.8,0.1-9.8,0.2-14.8l0,0l0,0l0,0l0,0c0.2-10.2,0.3-20.7,0-30.5
				c-0.3-3.8-0.5-7.6-0.8-11.4l0,0c-0.5-8.2-1-16.3-2.2-24.4c-3.3-21.5-7.4-43-11.5-64.4c-12.5-64.5-44.2-123.9-83.8-175.6
				c-33.9-44.1-71.1-83.1-117.5-114.7c-66.5-45.4-136.4-75.2-217.1-86.9c-13.6-1.9-27.2-3.3-40.9-4.6c-3.2-0.3-6.4-0.6-9.6-0.9
				c-4.2-0.4-8.4-0.6-12.6-0.7c-2-0.1-3.9-0.2-5.9-0.3h-5.9h-3.8h-1.6c-0.9,0.3-1.8,0.6-2.7,0.9c-0.1,0-0.3-0.1-0.5-0.2
				c-0.1,0-0.2-0.1-0.2-0.1c0.1-0.1,0.3-0.2,0.4-0.3c0.1-0.1,0.3-0.2,0.4-0.3h-2.7c-2.1,0.1-4.2,0.3-6.3,0.4
				c-3.1,0.2-6.2,0.4-9.4,0.6c-10,0.8-19.9,1.6-29.9,2.5c-2.1,0.2-4.1,0.3-6.2,0.5c-6.5,0.5-13.1,1.1-19.5,2
				c-10.1,1.5-20.1,3.4-29.9,5.8c-13.3,3.2-26.6,6.8-39.8,10.7c-3.2,1-6.3,2.3-9.4,3.7c-2.4,1.1-4.7,2.1-7.1,3
				c-3.4,1.2-6.8,2.2-10.3,3.2c-2.6,0.8-5.2,1.5-7.8,2.4c-0.6,0.2-1.2,0.7-1.7,1.3c-0.5,0.5-1,1-1.6,1.2c-3,1.2-6,2.4-8.9,3.5l0,0
				c-4.6,1.8-9.1,3.5-13.6,5.5c-8.1,3.6-16.1,7.6-24,11.7c-9.8,5.2-19.5,10.6-29.2,16.1c-1,0.6-1.8,1.5-2.6,2.3l0,0
				c-0.4,0.4-0.8,0.9-1.2,1.3c0.1,0,0.1,0.1,0.2,0.2c0,0,0,0.1,0.1,0.1c4.4-2.3,8.7-4.6,13-6.8c8.5-4.5,17-9,25.6-13.2
				c9.4-4.6,19-8.8,28.6-13.1l0,0c3.9-1.7,7.8-3.5,11.6-5.2c1.3-0.6,2.6-1.2,3.9-1.8c3.6-1.7,7.2-3.4,11-4.6c2.8-0.9,5.8-1.5,8.8-2
				c3.8-0.7,7.6-1.5,11.1-2.9l0.6-0.2l0.6-0.2c6.6-2.5,13.1-5.1,20.1-6.3c6.3-1.2,12.6-2.6,18.8-4.1c3.9-0.9,7.7-1.8,11.6-2.6
				c1.3-0.3,2.6-0.3,4-0.3c1.3,0,2.6-0.1,3.8-0.3c2.6-0.5,5.3-1.2,7.9-1.8c4.4-1.1,8.7-2.1,13.1-2.7c9.1-1.1,18.3-1.6,27.5-2.1
				c1.5-0.1,3.1-0.2,4.7-0.2c5.3-0.3,10.7-0.4,16-0.5c2.7-0.1,5.3-0.1,8-0.2c1.2,0,2.4-0.1,3.6-0.1c3.6-0.1,7.2-0.2,10.8-0.2
				c2.1,0,4.1,0.1,6.2,0.2c1.9,0.1,3.7,0.2,5.6,0.2c1.8,0,3.6,0,5.4-0.1c2.6-0.1,5.2-0.1,7.9,0c11.6,0.8,23.2,1.8,34.8,2.9
				c1,0.1,1.9,0.5,2.9,0.8c0.4,0.2,0.8,0.3,1.2,0.5c-0.5,0-0.9,0-1.4,0c-0.9,0-1.8,0.1-2.8,0.1c-1.2,0-2.3,0-3.5,0
				c-3.4-0.1-6.7-0.3-10.1-0.5c-6.7-0.3-13.4-0.7-20.1-0.8c-3.5-0.1-6.9-0.1-10.3-0.1c0.2,0,0.4-0.1,0.5-0.1c0.2,0,0.4-0.1,0.5-0.1
				c-0.2-0.1-0.4-0.2-0.6-0.3c-0.4-0.2-0.8-0.4-1.3-0.5c-2.5-0.1-4.9-0.2-7.4-0.3c-6.6-0.3-13.2-0.5-19.8-0.4
				c-13.2,0.4-26.5,1.1-39.7,2.3c-5.5,0.5-10.9,1.6-16.3,2.6c-2.4,0.5-4.9,0.9-7.3,1.4c-1.9,0.3-3.7,0.7-5.6,1l0,0
				c-4.1,0.7-8.3,1.5-12.4,2.2c-4,0.7-8,1.4-12,2.1c-10.2,1.8-20.4,3.6-30.5,5.8c-7.7,1.7-15,4.5-22.4,7.4
				c-9.1,3.6-18.2,7.3-27.3,11l0,0c-5.1,2.1-10.1,4.2-15.2,6.2c-2.4,1-4.9,1.9-7.4,2.8c-4.6,1.7-9.2,3.4-13.6,5.6
				c-11.7,5.7-23.3,11.8-34.6,18.3c-12.8,7.3-25.6,14.8-37.8,23c-4.1,2.7-7.5,6.3-11,9.9c-1.5,1.6-3.1,3.2-4.7,4.8
				c-0.5,0.5-0.9,0.9-1.3,1.4c-0.5,0.5-0.9,0.9-1.3,1.4c-1.2,1-2.5,2.1-3.7,3.1l0,0l0,0c-2.8,2.4-5.6,4.8-8.5,7.1
				c-2.1,1.7-4.3,3.4-6.5,5.1l0,0c-4.2,3.3-8.4,6.6-12.4,10.2c-2.1,1.9-3.9,4.2-5.7,6.5c-1.2,1.5-2.3,3-3.6,4.4
				c-3.3,3.6-6.8,7.2-10.2,10.8l0,0l0,0l0,0l0,0c-1.6,1.6-3.1,3.2-4.7,4.9c0,0.2,0,0.4,0,0.5l0,0c0,0.3,0,0.7,0,1
				c0,0.1-0.3,0.1-0.5,0.2c-0.1,0-0.2,0-0.3,0.1c0.1-0.2,0.2-0.5,0.2-0.7l0,0c0.1-0.2,0.2-0.5,0.2-0.7c-1.6,1.8-3.2,3.5-4.8,5.3
				c0.3-0.3,0.7-0.5,1-0.8c0.2-0.1,0.3-0.2,0.4-0.3l0.2,0.3c-0.3,0.2-0.5,0.3-0.8,0.5c-0.3,0.2-0.6,0.3-0.8,0.5c-0.7,1-1.5,2-2.2,3
				c-1.7,2.3-3.4,4.6-5.3,6.8c-2.5,2.8-5,5.5-7.6,8.3c-4.1,4.4-8.2,8.8-12,13.5c-2.6,3.2-4.9,6.8-7.1,10.4l0,0
				c-1.2,2-2.4,3.9-3.7,5.8c-3.2,4.8-6.5,9.8-9.8,14.8l0,0c-3.3,5-6.6,10-9.8,14.8c2-2.9,4.6-5.8,7.1-8.7c2.2-2.5,4.3-5,6.1-7.4
				c5.6-7.5,11.3-14.8,17.2-22.1c3.3-4.1,6.8-8,10.2-11.9l0,0l0,0l0,0l0,0l0,0c1.1-1.2,2.1-2.4,3.2-3.6c0.3-0.3,0.7-0.5,1.1-0.7
				c0.2-0.1,0.4-0.2,0.6-0.3c-0.1,0.2-0.1,0.5-0.1,0.7c-0.1,0.5-0.1,1-0.4,1.2c-0.6,0.6-1.2,1.2-1.9,1.8c-1,0.9-1.9,1.7-2.7,2.7
				c-5,6.7-9.9,13.5-14.8,20.4c-2.6,3.8-4.9,7.6-7.2,11.4l0,0c-1.9,3.2-3.8,6.4-5.9,9.5l-0.1,0.1c-0.1,0.1-0.1,0.1-0.1,0.2l0-0.3
				l-0.1,0.1c-0.1,0.2-0.4,0.6-1.2,1.7l0,0l0,0l0,0c0.4-0.3,0.5-0.5,0.7-0.7s0.4-0.4,0.8-0.8l0,0c0.6-0.9,1.3-1.8,1.9-2.7
				c2.6-3.7,5.2-7.3,8-10.9c2.5-3.2,4.9-6.4,7.4-9.5l0,0l0,0l0,0l0,0c7.8-10.1,15.5-20.2,24-29.7c11.6-13.1,24-25.5,36.3-37.8
				c1-1,2-2,3-3c8.1-8.1,16.8-15.9,25.5-23.4c2.9-2.5,6.2-4.7,9.5-6.9l0,0l0,0c1.9-1.2,3.7-2.5,5.5-3.8c2.3-1.7,4.6-3.4,6.9-5.2
				c3.9-3,7.8-5.9,11.9-8.6c5.5-3.6,11.2-7,16.8-10.4c3.9-2.4,7.8-4.7,11.7-7.1c18.4-11.5,37.8-21.2,58.1-29.1c2.5-1,4.9-2,7.4-3
				l0,0c8.8-3.5,17.5-7.1,26.5-10.2c10.3-3.5,20.7-6.6,31.2-9.6l0,0c1.6-0.5,3.3-0.9,4.9-1.4c5.9-1.7,11.9-3.3,17.9-4.4
				c3.8-0.7,7.6-1.1,11.4-1.6c3.2-0.4,6.5-0.8,9.8-1.3c2.5-0.4,4.9-1,7.3-1.6c2.8-0.7,5.6-1.4,8.5-1.7c7.7-1,15.5-1.8,23.3-2.6
				c3.2-0.3,6.4-0.7,9.6-1c0.9-0.1,1.8-0.2,2.7-0.3c2.6-0.3,5.3-0.7,7.9-0.7c4.6,0,9.2,0.1,13.8,0.1c2.8,0.1,5.5,0.1,8.3,0.1
				c3,0,6,0,9,0c7.5,0,15,0.1,22.5,0.2c1.1,0,2.3,0.5,3.5,0.9c0.4,0.2,0.9,0.3,1.3,0.5c-1.1,0-2.2,0.1-3.3,0.2
				c-2.6,0.1-5.2,0.3-7.8,0.2c-1.4,0-2.8-0.2-4.2-0.4c-1.7-0.2-3.4-0.5-5.1-0.4c-10.5,0.3-21,0.9-31.5,1.4c-1.6,0.1-3.1,0.2-4.7,0.2
				c-1.6,0.1-3.2,0.2-4.7,0.2c-7.4,0.4-14.8,0.7-22.1,1.4c-4.2,0.4-8.3,1.1-12.4,1.8c-3,0.5-5.9,1-8.9,1.4c-2.3,0.3-4.7,0.5-7.1,0.7
				c-3.6,0.3-7.2,0.6-10.8,1.3c-3.4,0.6-6.8,1.7-10.1,2.7c-2.2,0.7-4.5,1.4-6.7,2c-3,0.8-6,1.4-9,2c-5.4,1.2-10.9,2.3-16,4.1
				c-1.9,0.7-3.8,1.3-5.7,2c-20.3,7.1-40.5,14.3-60.3,22.7c-12.8,5.5-25.1,12.2-37.3,19c-3.6,2-7.3,4-11,6
				c-7.6,4.1-14.9,8.6-22.1,13.4c-8.8,5.9-17.4,12-25.8,18.4c-7.4,5.5-14.6,11.3-21.6,17.3c-4.5,3.9-8.8,8-13.2,12.1l0,0
				c-1.7,1.6-3.3,3.1-5,4.7c-0.5,0.5-0.9,1.1-1.4,1.7c-0.2,0.3-0.3,0.5-0.5,0.7c0.3-0.2,0.6-0.3,0.8-0.5c0.7-0.4,1.4-0.7,2-1.2
				c4.2-3.6,8.4-7.3,12.6-11l0,0c2.5-2.2,5.1-4.5,7.6-6.7c0.4-0.4,0.9-0.5,1.4-0.7c0.2-0.1,0.4-0.1,0.6-0.2
				c-0.2,0.2-0.3,0.4-0.4,0.6c-0.2,0.4-0.5,0.8-0.8,1.1c-3,2.8-6,5.5-9.1,8.2l0,0l0,0l0,0l0,0c-5.8,5.3-11.7,10.5-17.3,16
				c-7.6,7.4-15,15.1-22.4,22.7l0,0l0,0l0,0l0,0c-2.5,2.5-4.9,5.1-7.4,7.6c-0.3,0.3-0.6,0.8-0.8,1.2c-0.1,0.2-0.2,0.5-0.4,0.7
				c0.2-0.1,0.5-0.3,0.7-0.4c0.4-0.2,0.9-0.5,1.2-0.8c2.1-2.1,4.2-4.2,6.3-6.4c3.4-3.4,6.7-6.9,10.1-10.2l1.2-1.1
				c8.8-8.4,17.5-16.9,26.6-24.9c6.1-5.4,12.4-10.5,18.7-15.6l0,0c2.8-2.3,5.6-4.5,8.4-6.8c0.3-0.2,0.7-0.3,1.1-0.5
				c0.2-0.1,0.4-0.1,0.6-0.2c-0.1,0.2-0.2,0.4-0.3,0.6c-0.2,0.4-0.4,0.8-0.7,1.1c-2.7,2.3-5.5,4.5-8.2,6.8l0,0l0,0l0,0l0,0
				c-5.6,4.6-11.3,9.3-16.7,14.2c-9.6,8.7-19,17.6-28,26.9c-7.5,7.7-14.7,15.8-21.8,23.9c-1.5,1.7-3,3.3-4.4,5
				c-0.9,1-1.5,2.2-2.1,3.5c-0.5,1-1,1.9-1.6,2.8c-0.9,1.2-1.8,2.4-2.6,3.7l0,0c-18.9,26.3-37.8,52.7-51.2,82.4
				c-2.2,4.9-12.3,32-9.7,27c9.8-21.1,20.2-42.8,32.8-62.5c18.2-28.7,37.5-54.7,61.2-77.1c0.2-0.2,0.4-0.4,0.6-0.6l0,0
				c0.2-0.2,0.4-0.4,0.6-0.6l1.7-2.5c0.1,0.2,0.2,0.5,0.3,0.7c0.1,0.1,0.1,0.1,0.2,0.2c0,0,0.1,0,0.1,0.1c1.4-1.4,2.7-2.7,4.1-4.1
				l0,0c4-4.1,8.1-8.1,12.2-12.1c3.3-3.2,6.6-6.2,10-9.3l0,0l0,0l0,0c1.2-1.1,2.5-2.2,3.7-3.3c0.3-0.4,0.7-0.9,1-1.3l0,0
				c0.2-0.2,0.4-0.5,0.6-0.7c0.3-0.3,0.5-0.5,0.8-0.7c0.3-0.2,0.5-0.5,0.8-0.7c-0.1,0.4-0.1,0.8-0.1,1.1v0.1c0.5-0.3,1.1-0.6,1.6-1
				c4.8-3.6,9.5-7.2,14.3-10.8l0,0c11.6-8.8,23.1-17.6,35.1-25.8c12.2-8.4,25.3-15.5,38.4-22.6c11.8-6.3,23.8-12.3,36.2-17.4
				c14.8-6.1,29.9-11.5,45.1-16.2c16.3-5,32.8-9.4,49.6-12.9c43.5-8.7,87.5-10.7,131.7-6.8c37,3.3,73.2,10.5,108.5,22.1
				c12.1,4,23.9,8.5,35.5,13.5c-9.8-4.1-19.7-7.7-30-10.7c-1.7-0.6-3.6-1.3-5.5-2l0,0c-1.9-0.7-3.7-1.4-5.5-2c-3.2-1-7-2.3-10.1-3.1
				c-2.9-0.8-5.8-1.6-8.7-2.5c-6.7-1.9-13.5-3.9-20.2-5.3c-12.1-2.5-27.6-5.6-39.8-7c-19.7-2.2-33.6-3.1-54.7-3.9
				c-1.7,0-3.8,0-5.9,0c-4.7,0-9.9-0.1-13.6,0c-8,0.2-12.6,0.6-20.4,1.4l-0.5,0.1c-14.6,1.4-29.3,3.2-43.9,5.4
				c-13.6,2-27.2,4.7-40.7,7.5c-2.3,0.5-4.5,1.4-6.7,2.4c-1.6,0.7-3.1,1.3-4.7,1.8c-3.4,1.1-6.9,2.1-10.4,3.1
				c-6.2,1.8-12.4,3.5-18.3,5.8c-14.2,5.3-28.3,11.2-42.1,17.4c-12.1,5.5-23.9,11.4-35.5,17.9c-7.8,4.3-15.2,9.2-22.6,14.1l0,0
				c-2,1.3-4.1,2.7-6.1,4c-2.6,1.7-5.1,3.6-7.6,5.5l0,0c-0.9,0.7-1.8,1.4-2.7,2.1c-3.7,2.8-7.3,5.5-10.9,8.3l0,0l0,0l0,0l0,0l0,0
				c-3.6,2.8-7.3,5.5-10.9,8.2c-1.5,1.1-3.1,2.2-4.7,3.4c-3.2,2.3-6.5,4.6-9.4,7.3c-9.5,8.8-18.7,17.8-27.9,26.9l0,0l0,0
				c-1.5,1.4-2.9,2.9-4.4,4.3c-4.7,4.6-9.2,9.4-13.7,14.2c-2.5,2.7-4.9,5.6-7.2,8.5l0,0l0,0c-0.4,0.4-0.7,0.9-1.1,1.3
				c-0.2,0.3-0.2,0.8-0.2,1.2c0,0.2,0,0.5,0,0.7c0.2-0.1,0.5-0.1,0.7-0.2c0.6-0.1,1.1-0.2,1.4-0.5c0.8-0.9,1.5-1.9,2.2-2.9
				c0.9-1.2,1.7-2.4,2.7-3.5c1.8-1.9,3.6-3.7,5.4-5.5c1.3-1.2,2.5-2.5,3.8-3.8c4.4-4.6,8.9-9.3,13.3-13.9l0,0l0,0l0,0l0,0
				c2.1-2.3,4.3-4.5,6.4-6.8l1-1c0.2-0.1,0.5-0.1,0.7-0.2c0.4-0.1,0.7-0.2,1.1-0.3c2.4-2.2,4.8-4.5,7.1-6.8c5-4.8,9.9-9.6,15.3-13.8
				c14-11,28.5-21.4,43.1-31.7c7.1-5,14.6-9.4,22-13.8c1-0.6,2-1.1,2.9-1.7c3.9-2.3,8-4.4,12-6.6c2-1.1,4-2.1,6.1-3.2
				c0.3-0.2,0.7-0.4,1-0.6c0.3-0.2,0.7-0.4,1-0.6c0,0.3,0,0.6-0.1,1l0,0c2.5-1.2,5-2.4,7.4-3.6l0,0c5.1-2.5,10.2-4.9,15.4-7.2
				c10.9-4.7,21.8-9.5,33-13.5c10.6-3.8,21.3-7.1,32.2-9.8c0.8-0.2,1.6-0.4,2.4-0.6c15.3-3.8,30.7-7.5,46.3-9.8
				c20.5-3,41.2-5.2,61.9-6.2c25.1-1.2,50.1,0.2,75,3.5c28.4,3.8,56.2,10.1,83.5,18.8c31.4,9.9,61.6,22.7,89.7,39.8
				c19.6,11.9,38.5,24.9,56.6,38.9c16.6,13,32.2,27.6,47.4,42.4c20.7,20.2,38.2,43.2,54,67.4c30.2,46,52,95.6,64.5,149.3
				c10.9,47.3,14.4,95,10.7,143.4c-2.6,34.3-8.9,67.9-19,100.8c-13.1,42.6-32.2,82.5-56.7,119.7c-19.2,29.1-41.4,55.8-66.5,79.9
				c-26.2,25.1-55.1,46.9-86.9,64.5c-2.2,1.2-4.5,2.5-6.7,3.8l0,0c-11,6.2-22,12.3-33.6,17.4c-19.7,8.6-39.9,16.1-60,23.4
				c-9.9,3.6-20.1,6.3-30.4,8.6c-8.7,2-17.5,3.6-26.4,5.2l0,0l0,0l0,0l0,0c-3.8,0.7-7.5,1.4-11.2,2.1c-1.3,0.2-2.5,0.4-3.8,0.7l0,0
				l0,0c-0.3,0-0.5,0.1-0.8,0.1c-0.4,0.1-0.8,0.1-1.1,0.2c0.8-0.3,1.6-0.6,2.4-0.9c0.8-0.3,1.6-0.6,2.4-0.9c0.1,0,0.1-0.1,0.2-0.2
				h0.1l0,0l0,0c-2.9,0.3-5.9,0.7-8.8,1c-8,0.9-16,1.8-24,2.9c-28.2,3.9-56.5,3-84.7,1.1c-30-2-59.7-7.3-88.5-15.9
				c-68.2-20.3-129.8-52.2-183.9-98.8c-24.5-21.1-47.3-44-68.3-68.7c-0.4-0.5-1-0.8-1.5-1.1c-0.2-0.1-0.4-0.2-0.7-0.4
				c0.1,0.3,0.1,0.6,0.2,0.9c0.1,0.6,0.3,1.3,0.6,1.8c1.4,2.1,2.8,4.3,4.2,6.5c3.5,5.5,7.1,11,11.3,15.8
				c10.3,12,21.2,23.5,32.4,34.7c5.9,5.9,12.2,11.4,18.4,16.9l0,0c2.7,2.4,5.4,4.8,8.1,7.2c-1-0.7-2-1.4-3-2.1l0,0
				c-2.6-1.8-5.2-3.6-7.4-5.8c-2.5-2.4-5-4.8-7.5-7.2l0,0c-13.7-13.1-27.3-26.3-40.5-39.9c-5.6-5.8-10.6-12.2-15.6-18.6
				c-2.2-2.8-4.4-5.7-6.7-8.5l-0.2,0.2c0.6,0.9,1.1,1.8,1.7,2.8l0,0l0,0l0,0c1.3,2.1,2.5,4.3,4,6.3c3.7,5.1,7.4,10,11.2,15l1,1.4
				c0.4,0.5,0.7,0.9,1.1,1.4l0.4,0.5c2.7,3.5,5.4,7.1,8.1,10.6c2.7,3.5,5.4,7.1,8.1,10.6c0.7,0.9,1.4,1.7,2.2,2.5l0,0
				c3.3,3.7,6.6,7.5,9.9,11.2c0.2,0.2,0.4,0.5,0.5,0.8l0,0c0.1,0.1,0.1,0.3,0.2,0.4c-0.1-0.1-0.2-0.1-0.4-0.2
				c-0.2-0.1-0.5-0.3-0.7-0.4c-0.8-0.7-1.7-1.3-2.5-2l0,0c-1.9-1.5-3.8-3-5.4-4.8c-10.2-11.5-20.5-23.1-30.3-34.9
				c-1.5-1.8-3-3.6-4.5-5.3l0,0l0,0c-7.4-8.8-14.9-17.6-21.1-27.2c-8.9-13.7-17.2-27.9-25.4-42.1l0,0l0,0c-2.9-5-5.8-10-8.7-15
				c-1.9-3.2-3.7-5.9-5.4-8.7c-1.9-2.9-3.8-5.8-5.8-9.3c-0.3-0.5-0.6-1-1-1.6l0,0l0,0l0,0l0,0c-0.5-0.8-1.2-1.8-2.1-3.3
				c0.7,1.4,1.4,3.3,2,4.8l0.1,0.2c1.4,3.4,2.7,6.7,4,10.1c2.4,6.2,4.8,12.3,7.4,18.4c1.9,4.6,4.2,9.1,6.6,13.5
				c7.6,13.3,15.2,26.6,23.1,39.6c2.5,4.2,5.5,8.1,8.5,12l0,0c1.3,1.7,2.6,3.4,3.9,5.2c0.1,0.4,0.3,0.8,0.4,1.1
				c0.1,0.4,0.3,0.8,0.4,1.1c0.5,0.5,1,1.1,1.4,1.6l0,0l0,0c1.4,1.5,2.8,3.1,4.2,4.7c1.2,1.4,2.4,2.7,3.5,4.1l0,0l0,0l0,0
				c3.7,4.3,7.4,8.6,11.2,12.9c0.7,0.8,1.4,1.5,2.1,2.3l0,0c1.3,1.4,2.6,2.7,3.7,4.2c1.7,2.1,3.3,4.3,4.9,6.5
				c2.3,3.2,4.7,6.4,7.2,9.4c5.7,6.8,11.5,13.6,17.8,19.9c8.6,8.6,17.3,17.2,26.7,24.9c8.7,7.1,17.7,13.7,26.8,20.3
				c3.8,2.8,7.7,5.6,11.5,8.5c43.6,33,98.9,53.8,151.6,68.2c55.8,15.3,108,17.3,165.3,13.5c58.6-4,116.3-14.9,170.3-38.3
				c9.4-4.1,18.8-8.4,28.1-12.7c5.8-2.7,11.6-5.5,17.2-8.5c4.2-2.2,8.3-4.6,12.3-7c7.2-4.4,14.4-8.8,21.5-13.3
				c3.9-2.5,7.7-5.3,11.5-8.1c3-2.3,6-4.6,8.9-6.9c2.1-1.6,4.1-3.3,6.2-4.9c2.9-2.3,5.8-4.5,8.7-6.7l0,0c5.8-4.4,11.6-8.8,17.2-13.5
				c6.2-5.2,12.1-10.9,17.9-16.6c10-10,19.9-20.2,29.5-30.6c6.6-7.1,12.8-14.7,18.9-22.2C263.6,391.5,267.1,386.9,270.6,382.4z
				 M-453.9,453.5c0,0.1,0.1,0.2,0.1,0.3c0.1,0.3,0.2,0.6,0.5,0.8c2.2,1.6,4.4,3.3,6.6,4.9c2.2,1.6,20.8,14.2,20.8,14.2
				s-24.1-17.6-25.9-19.1c-0.4-0.3-0.9-0.5-1.3-0.8C-453.5,453.7-453.7,453.6-453.9,453.5z M-107.9-403.9c-0.1,0.2-0.3,0.3-0.4,0.5
				c-0.2,0.2-0.3,0.4-0.5,0.6c0.2,0,0.3,0.1,0.4,0.1c0.3,0.1,0.7,0.2,1,0.2c1.3,0.1,2.5,0.1,3.8,0.2c2.5,0.1,5,0.2,7.5,0.6
				c4.9,0.6,9.8,1.1,14.7,1.5c12.2,1.1,24.4,2.2,36.1,6.4c0.9,0.3,2,0.3,3,0.3c0.8,0,1.7,0,2.5,0.2c5.5,1.2,11,2.4,16.5,3.6l0,0
				c3.9,0.9,7.8,1.7,11.7,2.5c1,0.2,2.1,0.4,3.2,0.5c1.5,0.2,3,0.4,4.4,0.8c2.1,0.6,4.1,1.5,6.2,2.4c0.9,0.4,1.8,0.8,2.7,1.1
				c0.2-0.4,8.5,0,13.2,0.2c2,0.1,3.5,0.2,3.3,0.1c-8.6-2.3-25.8-5.8-39.7-8.7c-6.4-1.3-12.1-2.5-16.1-3.3
				c-13.4-2.9-26.9-5.5-40.4-7.4c-7.6-1.1-15.4-1.5-23-1.9C-101.2-403.5-104.6-403.7-107.9-403.9L-107.9-403.9z M5.4-382.2l0.9,0.3
				l0,0c1.9,0.6,3.8,1.2,5.7,1.7c0.2,0.1,0.5,0.1,0.7,0.1c0.1,0,0.2,0,0.3,0c-0.1-0.1-0.1-0.1-0.2-0.2c-0.1-0.2-0.3-0.3-0.5-0.4
				C10-381.2,7.7-381.7,5.4-382.2z M-130.2-414.8c-2.3-0.1-4.7-0.2-7-0.2c-3.1-0.1-6.3-0.2-9.4-0.3c-0.3,0-0.6,0.1-0.9,0.1
				c-0.2,0-0.3,0.1-0.4,0.1c0.2,0,0.3,0.1,0.5,0.2c0.3,0.1,0.6,0.2,0.9,0.2c3.5,0,7,0,10.5,0C-134.1-414.8-132.1-414.8-130.2-414.8z
				 M-150.8-384.7c-0.8-0.1-1.6-0.1-2.4-0.1c-0.2,0-0.3,0.1-0.5,0.2c-0.1,0.1-0.2,0.1-0.3,0.2l0,0
				C-152.9-384.5-151.9-384.6-150.8-384.7z M-150.3-384.7c0.7,0,1.4-0.1,2.1-0.1c0-0.1-0.1-0.2-0.1-0.2
				C-149-385-149.7-384.9-150.3-384.7z M332.6,48.8v-1.1C332.6,48.1,332.6,48.5,332.6,48.8z M332.6,48.8c0,0.4,0.1,0.8,0.2,1.2
				C332.7,49.7,332.7,49.2,332.6,48.8z M332.6,43.6L332.6,43.6C332.6,43.5,332.6,43.5,332.6,43.6z M333.8,54.9L333.8,54.9
				L333.8,54.9z M-514.5-242.3c-0.2,0.3-7.5,7.8-7.5,7.8c0.3-0.5,7.1-9.1,7.1-9.1s10.4-11,15.6-16.6c0.3-0.3,0.6-0.6,0.9-0.9l0,0
				c0.2-0.2,0.4-0.4,0.6-0.6c1-1,1.9-2,2.8-3c-0.2,0.4-0.4,0.8-0.6,1.2c-0.5,0.9-0.9,1.8-1.6,2.6c-3.8,4.2-7.7,8.3-11.6,12.4l0,0
				C-510.7-246.5-512.6-244.4-514.5-242.3z M-396.7-327.1c0.2,0,0.5,0,0.9,0c-0.5,0.4-0.8,0.7-1.1,1c-0.3,0.3-0.6,0.5-0.8,0.7
				c-3.1,2-6.1,4-9.2,6c-0.4,0.2-0.8,0.4-1.2,0.5c0.1-0.1,0.1-0.2,0.2-0.4c0.1-0.3,0.2-0.5,0.4-0.7c3.3-2.4,6.7-4.7,10.1-7
				C-397.4-327.1-397.1-327.1-396.7-327.1z M-432.9-323.7c-1.3,0.9-2.6,1.8-3.8,2.6c-0.4-0.1-0.6-0.2-0.8-0.2c0-0.1,0.1-0.2,0.1-0.3
				c0.1-0.2,0.1-0.5,0.3-0.6c2.4-1.6,4.8-3.2,7.2-4.8c0.1-0.1,0.5-0.1,0.7,0c0.1,0,0.1,0.5,0,0.6
				C-430.3-325.4-431.6-324.5-432.9-323.7z M329.3,17.4c-0.2,0.2-0.2,0.3-0.2,0.5C329.2,17.7,329.2,17.6,329.3,17.4z M-483.9-275.3
				c0.2,0.1,0.4,0.2,0.6,0.3c-1.3,1.2-2.5,2.3-3.7,3.3l0,0l0,0c-0.9,0.8-1.8,1.6-2.7,2.5c0,0-0.3-0.2-0.4-0.3c1-1,1.9-2,2.9-3
				s1.9-2,2.9-3C-484.3-275.5-484.1-275.4-483.9-275.3z M-493.9,442.3h0.7c0.9,0.9,7.8,6.9,15.1,13.4l0.1,0.1l0,0l0,0l0,0
				c8.4,7.4,17.4,15.3,18.5,16.4c26.1,23.4-1.6-0.8-1.6-0.8l-26.9-23c-1.9-1.8-3.9-3.6-5.8-5.4c-0.1-0.1-0.1-0.3-0.1-0.4
				C-493.9,442.4-493.9,442.4-493.9,442.3z M-476.7-287.8c0.1,0.1,0.3,0.2,0.4,0.3c-1.1,0.9-2.1,1.8-3,2.7l0,0l0,0
				c-0.6,0.6-1.2,1.1-1.9,1.6l-0.3-0.4c1.5-1.5,3-2.9,4.6-4.4C-476.9-288-476.9-287.9-476.7-287.8z M-170-383.3L-170-383.3
				c-1.3,0.1-2.7,0.2-3.9,0.3c-1.3-0.1-2.5-0.2-3.7-0.4c0.5-0.1,0.9-0.2,1.4-0.3c1.1-0.2,2.2-0.4,3.3-0.5c0.6,0,1.3,0.2,2,0.4
				C-170.7-383.5-170.4-383.3-170-383.3L-170-383.3z M-484,436.9c0.1-0.1,0.2-0.3,0.3-0.4c0.6,0.7,1.2,1.4,1.7,2l0,0
				c0.6,0.7,1.1,1.4,1.7,2l22.3,21.4c-1.2-1.1-25.2-23.3-26.4-24.5C-484.4,437.5-484.2,437.3-484,436.9z M-421.6-309.8
				c-0.5,0.4-1,0.8-1.5,1.2c-0.2-0.3-0.4-0.5-0.3-0.5l0,0c1.6-1.1,3.1-2.3,4.8-3.4c0,0,0.1,0.1,0.2,0.1c0.1,0.1,0.1,0.1,0.2,0.2
				C-419.4-311.5-420.5-310.7-421.6-309.8L-421.6-309.8L-421.6-309.8z M329.8,20.4L329.8,20.4L329.8,20.4z M-470.3-292.6
				C-470.3-292.5-470.3-292.5-470.3-292.6l-0.1,0.2l-0.2,0.1l0,0c-0.6,0.5-1.1,1-1.6,1.4c0,0-0.2-0.1-0.4-0.3c0,0-0.1,0-0.1-0.1
				c0,0-0.1,0-0.1-0.1c0.2-0.2,0.4-0.4,0.6-0.5l0,0l0,0c0.4-0.3,0.8-0.7,1.2-1c0,0,0.2,0.1,0.5,0.2h0.1
				C-470.4-292.6-470.4-292.6-470.3-292.6z M368,92.4C368,92.5,368,92.5,368,92.4L368,92.4z M350.3-53L350.3-53L350.3-53L350.3-53
				L350.3-53z M349.6-55.1L349.6-55.1L349.6-55.1z M-441.9-317.6c-0.4,0.4-0.8,0.7-1.2,1.2c0-0.1,0-0.2-0.1-0.2c0-0.2-0.1-0.3,0-0.4
				c0.6-0.6,1.2-1.2,1.8-1.8c0,0,0.3,0.2,0.4,0.3C-441.2-318.3-441.5-318-441.9-317.6z M45.3-369.1c0.2,0.1,0.5,0.3,0.9,0.5
				c-0.4,0-0.8,0.1-1,0.2c-0.3,0.1-0.6,0.1-0.8,0.1c-0.3-0.1-0.6-0.4-0.9-0.6c-0.1-0.1-0.2-0.2-0.4-0.3c0.1,0,0.1,0,0.2,0h0.1l0,0
				c0.3-0.1,0.6-0.1,0.9-0.1C44.6-369.5,44.9-369.3,45.3-369.1z M-167.3-414.7c0.2,0.1,0.4,0.2,0.6,0.4c-0.4,0-0.7,0-0.9,0
				c-0.5,0-0.9,0-1.2,0c-0.2,0-0.3-0.2-0.5-0.4c-0.1-0.1-0.1-0.2-0.2-0.3c0.1,0,0.3,0,0.4,0c0.3,0,0.7-0.1,1.1,0
				C-167.8-415.1-167.7-415-167.3-414.7z M-398.3-343.5c0.1,0.1,0.2,0.1,0.3,0.2c-0.1,0.1-0.2,0.2-0.3,0.3c-0.4,0.3-0.7,0.6-1,0.8
				c0,0-0.2-0.2-0.3-0.3c-0.1-0.1-0.1-0.2-0.2-0.2c0.1-0.1,0.2-0.2,0.3-0.2c0.3-0.2,0.6-0.4,0.9-0.6
				C-398.5-343.6-398.4-343.6-398.3-343.5z M355.6-30.3L355.6-30.3c0.1,0.3,0.1,0.5,0.1,0.8c0-0.2,0-0.3,0-0.5
				C355.6-30.1,355.6-30.2,355.6-30.3z M-96.2,552.3c0.1,0.1,0.3,0.1,0.5,0.2c-0.1,0-0.2,0.1-0.3,0.1l0,0c-0.4,0.2-0.7,0.2-1,0.2
				c-0.1,0-0.2-0.1-0.3-0.2c-0.1,0-0.1-0.1-0.1-0.1c0.1,0,0.2-0.1,0.3-0.1c0.2-0.1,0.4-0.2,0.6-0.2
				C-96.5,552.1-96.4,552.2-96.2,552.3z M-556.5,366.3L-556.5,366.3c0.2,0.2,0.2,0.3,0.3,0.4l0,0h-0.1c-0.1,0.1-0.2,0.2-0.3,0.2
				c-0.3-0.3-0.6-0.6-0.8-1c0,0,0.2-0.2,0.3-0.3c0.1,0.1,0.1,0.2,0.2,0.2c0.1,0.1,0.1,0.1,0.2,0.2l0.1,0.1l0,0l0,0L-556.5,366.3
				L-556.5,366.3z M-34.7-405.3c0,0.1,0,0.1,0,0.2c-0.1,0-0.3,0-0.4,0c-0.3,0-0.5,0-0.8-0.1c-0.1,0-0.3-0.1-0.4-0.3
				c0,0-0.1,0-0.1-0.1l0,0c0,0,0,0-0.1,0c0.1,0,0.3,0,0.4,0c0.2,0,0.4,0,0.6,0c0.2,0,0.4,0.1,0.6,0.1c0.1,0,0.2,0.1,0.3,0.1
				C-34.7-405.4-34.7-405.3-34.7-405.3z M-194.7-399.8c0.2-0.1,0.4-0.2,0.5-0.3c0.2,0.1,0.4,0.1,0.5,0.1c-0.1,0.1-0.2,0.1-0.4,0.2
				c-0.2,0.1-0.5,0.3-0.7,0.4c-0.1,0.1-0.2,0-0.4-0.1c-0.1,0-0.1-0.1-0.2-0.1C-195-399.7-194.8-399.7-194.7-399.8z M10.4-394.1
				L10.4-394.1c0.2,0,0.4,0.1,0.7,0.1c-0.2,0.1-0.3,0.2-0.4,0.2c-0.3,0.2-0.4,0.3-0.5,0.3c-0.2,0-0.4-0.2-0.6-0.3l0,0
				c-0.1-0.1-0.2-0.1-0.3-0.1c0,0,0,0,0.1-0.1l0,0l0,0l0,0c0.1-0.1,0.1-0.2,0.2-0.2C9.9-394.2,10.1-394.1,10.4-394.1z M-20.6-401.8
				c0.1,0,0.2-0.1,0.4-0.1c0.3,0.1,0.6,0.2,0.8,0.2c-0.1,0-0.1,0-0.2,0.1c-0.3,0.1-0.6,0.1-0.9,0.1c-0.2,0-0.3,0-0.4-0.1
				c-0.1,0-0.2-0.1-0.3-0.1C-21-401.7-20.8-401.7-20.6-401.8L-20.6-401.8z M-499,436.7L-499,436.7l0.1,0.1c0.1,0.1,0.2,0.1,0.3,0.2
				c-0.2,0.1,1.5,2,2.5,3.1l0,0c0.4,0.5,0.7,0.8,0.7,0.8c-0.3-0.2-4.3-3.9-4.5-4.2c0,0,0.3-0.4,0.4-0.4
				C-499.4,436.4-499.2,436.5-499,436.7z M-348.8-352.4c-0.1,0.3-0.3,0.6-0.3,0.7c-0.6-0.1-0.7-0.1-0.9-0.1c0.1-0.1,0.1-0.1,0.2-0.2
				l0,0l0,0c0.1-0.2,0.3-0.3,0.4-0.4s0.2,0,0.4,0l0,0C-348.9-352.4-348.8-352.4-348.8-352.4z M47.1-378.5L47.1-378.5L47.1-378.5
				c0,0.1-0.1,0.2-0.1,0.4c-0.3-0.2-0.6-0.4-0.8-0.5l-0.1-0.1c-0.1-0.1-0.2-0.2-0.3-0.2c0.1,0,0.1,0,0.2-0.1c0.1,0,0.2-0.1,0.3-0.1
				c0.3,0.1,0.6,0.2,0.9,0.4C47.2-378.7,47.2-378.7,47.1-378.5z M-525.6-230c-0.1,0.1-0.2,0.3-0.4,0.4c0,0,0,0-0.1-0.1
				c-0.1-0.1-0.2-0.2-0.2-0.2c0.1-0.1,0.2-0.3,0.4-0.4L-525.6-230z M-63.7-410.6L-63.7-410.6L-63.7-410.6L-63.7-410.6
				c0.1,0,0.1,0.1,0.2,0.1c-0.1,0-0.1,0.1-0.2,0.1c-0.1,0.1-0.2,0.1-0.3,0.1s-0.3-0.1-0.4-0.2c-0.1,0-0.1-0.1-0.2-0.1
				c0,0,0.1,0,0.1-0.1c0.1-0.1,0.2-0.1,0.3-0.1C-64-410.8-63.9-410.7-63.7-410.6z M-102.7-414c0,0,0.1,0.1,0.2,0.1
				c-0.1,0-0.2,0-0.2,0.1c-0.2,0.1-0.4,0.1-0.6,0.1c-0.1,0-0.2-0.1-0.3-0.2l-0.1-0.1c0.1,0,0.3,0,0.4,0c0.1,0,0.2,0,0.4,0
				C-102.9-414.1-102.8-414.1-102.7-414z M-198.3-418.8c0.1,0,0.2,0,0.4,0c-0.2,0.1-0.3,0.2-0.4,0.3c-0.2,0.1-0.3,0.2-0.4,0.3
				c-0.1,0-0.2,0-0.3,0c0,0-0.1,0-0.2,0c0-0.1,0.1-0.1,0.1-0.2c0.1-0.1,0.1-0.3,0.2-0.3C-198.7-418.8-198.5-418.8-198.3-418.8z
				 M-489.7-273.2c0.1-0.1,0.2-0.3,0.3-0.4c0,0.1,0.1,0.1,0.1,0.1c0.1,0.1,0.1,0.2,0.1,0.2c-0.1,0.1-0.2,0.3-0.3,0.4
				c-0.1,0-0.2,0-0.2,0l0,0l0,0h-0.1C-489.9-273-489.8-273-489.7-273.2z M-185.5,570.6h0.5C-185.1,570.7-185.3,570.7-185.5,570.6z
				 M-86.7,567.9c-0.4,0.1-0.8,0.1-1.2,0.2c1.7-0.5,3.1-1.1,4.4-1.8c1.9-1.1,3.6-1.9,4.9-2.6c-3.8,1.3-9.4,2.6-15.5,2.5
				c-6.7-0.1-11.2,1.4-16.1,3l0,0c-2.1,0.7-4.3,1.4-6.7,2c-7.5,0.5-14.9,0.9-22.2,1.1c-1.8-0.2-3.8-0.5-5.8-0.8
				c-22.9-3.6-32.2-2-37-1.1c-1.3,0.2-2.2,0.4-3,0.4c7.9,0.6,18.2,1.2,29.4,1.6c-9.7-0.1-19.3-0.6-28.7-1.3
				c-94.2-8.1-172-47.7-245.6-93.7c37.7,31.3,128.2,84.5,245.6,93.7c11.2,1,22.6,1.5,34.3,1.5c5.1,0.1,10.3,0.2,15.5,0.2
				c3.9,0.2,7.2,0.1,10.1-0.2c14.7-0.4,28.1-1.7,36.4-4.4C-87.6,568-87.2,568-86.7,567.9z M-76.2,566.3c-3.6,0.6-7.1,1.1-10.6,1.6
				C-83.2,567.4-79.7,566.9-76.2,566.3z M-124.3,572.4c-3.3,0.1-6.7,0.1-10.1,0.2c-1.2-0.1-2.5-0.2-3.8-0.3c6.9-0.2,13.9-0.5,21-1.1
				C-119.4,571.8-121.7,572.2-124.3,572.4z M-31.1,566.2c-90.5,22.5-155.3,16-227.8-0.8c3.2,0.2,8.1,1.2,14.8,2.5l0,0
				C-212,574.2-140.2,588.3-31.1,566.2z M-252.6,548.9c62.2,17.6,109.3,23.6,194.9,3.2c-93.1,20.8-154.8,6-182.2-0.6
				C-245.6,550.2-249.9,549.2-252.6,548.9z M-252.1,569.6c-91-20.3-146.1-55.1-203.4-102.5c2.8,1.7,6.9,4.9,12.3,9.3
				C-417.5,497.1-360.7,542.9-252.1,569.6z"/>
		</g>
		<g transform="matrix(1,0,0,1,92.01799774169922,506.8599853515625)" class="st1">
			<path class="st5" d="M-116.5,118.7L-186-25.6h-22.7v214.1h22.7V21l60.8,124.7h17.3L-47.3,21v167.6h22.7V-25.6h-22.7L-116.5,118.7
				z"/>
		</g>
		<g transform="matrix(1,0,0,1,298.3320007324219,506.8599853515625)" class="st1">
			<path class="st5" d="M-126.1-25.6L-204,188.5h23.9l15.5-44.5l9-26.3h-0.1L-116.9,6l25,71.6l14,40.1H-78l8.6,24.7l16.1,46.1h24
				l-77.9-214.1C-107.2-25.6-126.1-25.6-126.1-25.6z"/>
		</g>
		<g transform="matrix(1,0,0,1,490.6990051269531,506.8599853515625)" class="st1">
			<path class="st5" d="M-61.2,146.4L-172-25.6h-22.7v214.1h22.7V16l110.8,172.5h22.7V-25.6h-22.7V146.4z"/>
		</g>
		<g transform="matrix(1,0,0,1,668.3079833984375,506.8599853515625)" class="st1">
			<path class="st5" d="M-188.9-5.1h61.1v193.7h22.4V-5.1h61.1v-20.5h-144.6V-5.1z"/>
		</g>
		<g transform="matrix(1,0,0,1,842.2509765625,506.8599853515625)" class="st1">
			<path class="st5" d="M-59.1,72.5C-51,62.6-47,49.9-47,34.6c0-19.2-5.7-34.1-17.2-44.6c-11.4-10.4-27.2-15.6-47.3-15.6h-79.4
				v214.1h22.6v-94h51.5l48.4,94h26.1l-50.6-96.2C-78.4,89-67.2,82.4-59.1,72.5z M-168.3,74.9V-5.2h54.9c14.1,0,24.8,3.3,32.5,10.1
				c7.4,6.8,11.2,16.8,11.2,30c0,12.9-3.8,22.7-11.5,29.6c-7.6,6.9-18.4,10.4-32.3,10.4H-168.3z"/>
		</g>
		<g transform="matrix(1,0,0,1,1273.8699951171875,506.8599853515625)" class="st1">
			<path class="st5" d="M-117.1-25.6h-73.2v214.1h73.2c22.8,0,40.8-6.6,54.2-19.7c13.3-13.1,20-33.9,20-62.2V56.3
				c0-28.4-6.7-49-20-62.2C-76.4-19-94.4-25.6-117.1-25.6z M-66,107.9c0,40.1-16.9,60.2-50.8,60.2h-50.5V-5.1h50.5
				c16.4,0,29,5,37.7,14.9c8.8,9.9,13.2,25.7,13.2,47.5V108L-66,107.9L-66,107.9z"/>
		</g>
		<g transform="matrix(1,0,0,1,1638.9000244140625,506.6700134277344)" class="st1">
			<path class="st5" d="M-62.6-8.5c-13.3-13.1-31.3-19.7-53.8-19.7c-22.8,0-40.8,6.6-54.3,19.7c-13.4,13.1-20.2,33.9-20.2,62.2v55.5
				c0,28.4,6.7,49,20,62.2c13.3,13.1,31.4,19.7,54.2,19.7c22.6,0,40.6-6.6,54-19.7s20.2-33.9,20.2-62.2V53.7
				C-42.5,25.4-49.1,4.7-62.6-8.5z M-65.1,110.6c0,39.9-17,59.9-51.2,59.9c-16.9,0-29.8-4.8-38.7-14.3s-13.2-24.8-13.2-45.6V54.7
				c0-21.9,4.4-37.8,13-47.6c8.7-9.8,21.6-14.8,38.8-14.8c34.1,0,51.2,20.8,51.2,62.4L-65.1,110.6L-65.1,110.6z"/>
		</g>
		<g transform="matrix(1,0,0,1,1457.47998046875,506.8599853515625)" class="st1">
			<path class="st5" d="M-29.3,188.5l-77.9-214.1h-18.9L-204,188.5h23.9l12.9-36.8l11.7-34l9-25.9L-116.7,6l39.1,111.7h-0.1
				l11.2,32.4l13.3,38.4H-29.3z"/>
		</g>
		<g transform="matrix(1,0,0,1,1018.47998046875,506.8599853515625)" class="st1">
			<path class="st5" d="M-29.3,188.5l-77.9-214.1h-18.9L-204,188.5h23.9l15.1-43.4l9.4-27.3h-0.1l38.8-111.7l35.6,101.5l3.5,10.2
				l9.4,27.3l15.1,43.4H-29.3z"/>
		</g>
	</g>
	<g transform="matrix(0.05999999865889549,0,0,0.05999999865889549,225.00018310546875,121)" class="st31">
		<g transform="matrix(1,0,0,1,1248.93798828125,1561.5)" class="st1">
			<path class="st32" d="M699.9-718l-92,92c73.1,115,96.1,259.2,46,397.1C570.3,5.2,311.1,128.6,74.9,45c-33.5-12.5-64.8-27.1-92-46
				l-294.8,294.8L-569,34.6C-688.1,114-840.8,137-985,86.8c-242.5-87.8-367.9-353.3-280.1-593.7c12.5-37.6,31.4-71.1,52.2-102.4
				L-1323.6-720l-20.9,35.5c-115,188.1-177.6,405.5-177.6,629.1C-1524.2,611.4-980.7,1157-314,1157h2.1
				C354.9,1157,896.3,615.6,898.3-51.2c0-221.6-60.6-439-175.6-629.1L699.9-718z"/>
		</g>
		<g transform="matrix(1,0,0,1,1247.875,726.375)" class="st1">
			<path class="st32" d="M-1075.8,361.8c-31.4,41.8-50.1,94.1-50.1,150.5c0,135.9,110.8,246.6,246.6,246.6
				c56.5,0,108.8-18.9,150.5-52.2L-1075.8,361.8z M134.4,685.6c39.8,27.1,85.8,41.8,138,41.8c135.9,0,246.6-110.8,246.6-246.6
				c0-50.1-14.6-98.2-41.8-138L134.4,685.6z M-306.7,944.9L-1305.8-58.5l39.8-41.7c246.6-261.3,583.1-407.7,944.7-407.7h2.1
				c365.8,0,717,156.7,961.5,428.5l37.6,41.7L-306.7,944.9z M-1142.7-58.5l836.1,838.2L519-41.8C297.4-263.3-3.6-390.9-317.1-390.9
				h-2.1C-630.7-390.9-921.2-273.7-1142.7-58.5z"/>
		</g>
	</g>
	<g transform="matrix(3.700000047683716,0,0,3.700000047683716,226,122)" class="st33">
		<g transform="matrix(1,0,0,1,20,20)" class="st1">
			<path class="st34" d="M-5.1,23.6c-11,0-20-9-20-20.1c0.1-11,9-20,20.1-19.9c11,0.1,19.9,9,19.9,20.2C14.8,14.7,5.9,23.6-5.1,23.6
				z"/>
		</g>
		<g transform="matrix(1,0,0,1,20.149999618530273,19.950000762939453)" class="st1">
			<path class="st5" d="M-3.3,1.2l-0.6,3.2l5.7,0.8L1.4,6.7l-5.6-0.8c-0.4,1.3-0.6,2.7-1.1,3.9c-0.5,1.4-1,2.8-1.6,4.1
				c-0.8,1.7-2.2,2.9-4.1,3.2c-1.1,0.2-2.3,0.1-3.2-0.6c-0.3-0.2-0.6-0.6-0.6-0.9c0-0.4,0.2-0.9,0.5-1.1c0.2-0.1,0.7,0,1,0.1
				c0.3,0.3,0.6,0.7,0.8,1.1c0.6,0.8,1.4,0.9,2.2,0.3c0.9-0.8,1.4-1.9,1.7-3c0.6-2.4,1.2-4.7,1.7-7.1V5.5l-5.3-0.8l0.2-1.5L-6.5,4
				l0.7-3.1L-11.5,0l0.2-1.6l5.9,0.8c0.2-0.6,0.3-1.1,0.5-1.6c0.5-1.8,1-3.6,2.2-5.2c1.2-1.6,2.6-2.6,4.7-2.5c0.9,0,1.8,0.3,2.4,1
				C4.5-9,4.7-8.8,4.7-8.6c0,0.4,0,0.9-0.3,1.2C4-7.1,3.5-7.2,3.1-7.6C2.8-7.9,2.6-8.2,2.3-8.5C1.7-9.3,0.8-9.4,0.1-8.7
				c-0.5,0.5-1,1.2-1.3,1.9c-0.7,2.1-1.2,4.3-1.9,6.5l5.5,0.8L2,2L-3.3,1.2z"/>
		</g>
	</g>
	<g transform="matrix(6.833000183105469,0,0,6.833000183105469,215.86526489257812,110.54943084716797)" class="st18">
		<g transform="matrix(1,0,0,1,12.314000129699707,12.314000129699707)" class="st1">
			<path class="st35" d="M3.6,8.3c-0.8,0.8-2,0.8-2.8,0s-0.8-2,0-2.8s2-0.8,2.8,0C4.4,6.2,4.4,7.5,3.6,8.3z M-4.9,12.5l2.8-2.8
				c0.4-0.4,1-0.4,1.4,0s0.4,1,0,1.4l-2.8,2.8c-0.4,0.4-1,0.4-1.4,0C-5.2,13.5-5.2,12.9-4.9,12.5z M6.5,9.7l2.8,2.8
				c0.4,0.4,0.4,1,0,1.4s-1,0.4-1.4,0l-2.8-2.8c-0.4-0.4-0.4-1,0-1.4C5.4,9.3,6.1,9.3,6.5,9.7z M-6.3-1.6c-0.8,0.8-2,0.8-2.8,0
				s-0.8-2,0-2.8s2-0.8,2.8,0C-5.5-3.7-5.5-2.4-6.3-1.6z M-4.9-7.3l2.8-2.8c0.4-0.4,1-0.4,1.4,0c0.4,0.4,0.4,1,0,1.4l-2.8,2.8
				c-0.4,0.4-1,0.4-1.4,0C-5.2-6.3-5.2-6.9-4.9-7.3z M-3.4-0.2l2.8,2.8c0.4,0.4,0.4,1,0,1.4s-1,0.4-1.4,0l-2.8-2.8
				c-0.4-0.4-0.4-1,0-1.4C-4.5-0.6-3.8-0.6-3.4-0.2z M-13.3-10.1l2.8,2.8c0.4,0.4,0.4,1,0,1.4s-1,0.4-1.4,0l-2.9-2.8
				c-0.4-0.4-0.4-1,0-1.4C-14.4-10.5-13.7-10.5-13.3-10.1z"/>
		</g>
	</g>
	<g transform="matrix(0.6499999761581421,0,0,0.6499999761581421,99.15000915527344,101.33000183105469)" class="st36">
		<g transform="matrix(1,0,0,1,322.25,133.85000610351562)" class="st1">
			<path class="st5" d="M-57.7,20.4v-0.2C-57.7,4.8-45.4-8-28.9-8C-12.3-8-0.2,4.6-0.2,20v0.2c0,15.3-12.3,28.1-28.9,28.1
				C-45.5,48.3-57.7,35.7-57.7,20.4z M-12.5,20.4v-0.2c0-9.5-6.8-17.4-16.6-17.4c-9.9,0-16.3,7.8-16.3,17.2v0.2
				c0,9.4,6.8,17.3,16.5,17.3C-18.8,37.4-12.5,29.7-12.5,20.4z"/>
		</g>
		<g transform="matrix(1,0,0,1,385.70001220703125,133.9499969482422)" class="st1">
			<path class="st5" d="M-53.9,20.3v-0.2C-53.9,4.8-42-8.1-25.8-8.1c10.1,0,16.5,3.8,21.6,9.3L-12,9.5c-3.8-4-7.8-6.7-13.9-6.7
				c-9,0-15.6,7.8-15.6,17.2v0.2c0,9.6,6.6,17.3,16.1,17.3c5.8,0,10.1-2.7,14-6.6l7.5,7.4C-9.2,44.2-15.4,48.4-26,48.4
				C-42.1,48.2-53.9,35.6-53.9,20.3z"/>
		</g>
		<g transform="matrix(1,0,0,1,502.1499938964844,133.85000610351562)" class="st1">
			<path class="st5" d="M-55.1,20.3v-0.2C-55.1,4.7-44.2-8-28.7-8C-11.5-8-2.8,5.5-2.8,21c0,1.1-0.1,2.2-0.2,3.5h-39.7
				c1.3,8.8,7.6,13.7,15.5,13.7c6,0,10.3-2.2,14.6-6.4l7.3,6.4c-5.1,6.1-12.2,10.1-22.1,10.1C-43.1,48.3-55.1,36.9-55.1,20.3z
				 M-15.2,16.3c-0.8-8-5.5-14.2-13.7-14.2c-7.6,0-12.9,5.8-14,14.2H-15.2z"/>
		</g>
		<g transform="matrix(1,0,0,1,565.2000122070312,112.0999984741211)" class="st1">
			<path class="st5" d="M-33.8,14.8h9.8v10.6h-9.8V14.8z"/>
		</g>
		<g transform="matrix(1,0,0,1,553.0999755859375,126.80000305175781)" class="st1">
			<path class="st5" d="M-26.4,37.2V14.7V-0.6v-14.1h-12.4V0.1h-6.8v10.6h6.8v28.4c0,11.9,6.4,15.8,15.5,15.8c4.7,0,8.1-1,11.1-2.8
				V42c-2.5,1.2-4.9,1.8-7.7,1.8C-24,43.9-26.4,42-26.4,37.2z"/>
		</g>
		<g transform="matrix(1,0,0,1,446.04998779296875,133.5)" class="st1">
			<path class="st5" d="M-49.8,47V-6.7l10.7-0.1v18.9l16.2-19h13.3L-39,28.5l-0.1,18.6h-10.7V47z M-20.3,47l-10.5-15.1l6.3-8
				c0,0,16.4,22.9,16.4,23.1H-20.3z"/>
		</g>
		<g transform="matrix(1,0,0,1,446.1000061035156,133.5)" class="st1">
			<path class="st5" d="M-7.6,47.5h-13l-10.8-15.7l6.9-8.8l0.4,0.5C-7.6,46.6-7.6,46.7-7.6,46.9C-7.6,46.9-7.6,47.5-7.6,47.5z
				 M-38.6,47.5h-11.6V-7.2l11.7-0.1v18.1L-23-7.3h14.6l-30.1,35.9L-38.6,47.5z"/>
		</g>
		<g transform="matrix(1,0,0,1,260.25,154.89999389648438)" class="st1">
			<path class="st5" d="M-13.6-20.2c-3,2.4-6.1,4.9-9,7.5l-0.1,0.1c2.3,3,3.6,6.9,3.6,11.1v0.2c0,4.2-1.3,8-3.6,11
				c-0.1,0.1-0.2,0.2-0.2,0.3c-3.3,3.6-7.3,5.4-11.9,5.4l-16.5-0.1v45.1h9.7V26c0,0,4,0.6,6.1,0.6c16.7,0,28.9-12.8,28.9-28.1v-0.2
				C-6.7-8.8-9.3-15.2-13.6-20.2z"/>
		</g>
		<g transform="matrix(1,0,0,1,176.0500030517578,143.7989959716797)" class="st1">
			<path class="st5" d="M-15.4,21.2c0,27.3-17.3,50.6-41.6,59.5v14.4c32.4-9.5,56.1-39.5,56.1-75s-23.7-65.5-56.1-75v16.6
				C-32.8-29.4-15.4-6.1-15.4,21.2z"/>
		</g>
		<g transform="matrix(1,0,0,1,76.0999984741211,143.85000610351562)" class="st1">
			<path class="st5" d="M-57.1,20.2c0,35.6,23.8,65.6,56.4,75V80.7C-25,71.8-42.3,48.6-42.3,21.2c0-27.3,17.3-50.6,41.6-59.5v-16.6
				C-33.3-45.4-57.1-15.4-57.1,20.2z"/>
		</g>
		<g transform="matrix(1,0,0,1,111.44999694824219,220.5500030517578)" class="st1">
			<path class="st5" d="M-36.1-8.4v57.5h14.3V-8.8c-2,1.7-4.6,2.7-7.4,2.7C-31.8-6.1-34.2-7-36.1-8.4z"/>
		</g>
		<g transform="matrix(1,0,0,1,144.64999389648438,155.89999389648438)" class="st1">
			<path class="st5" d="M-13.4-14.5c-4.5,3.6-9,7.3-13.3,11.1c-0.1,0-0.1,0.1-0.2,0.1c3.4,4.5,5.4,10.2,5.4,16.4v0.3
				c0,6.2-1.9,11.9-5.3,16.3c-0.1,0.1-0.2,0.3-0.3,0.4c-4.9,5.4-10.8,8.1-17.7,8.1c0,0-4.7,0-10-0.1c2.4,2.1,4,5.3,4,8.7
				c0,2.8-1,5.3-2.6,7.3c2,0.2,5.4,0.6,7.4,0.6c24.7,0,42.9-18.9,42.9-41.7v-0.3C-3.2,2.4-7-7.2-13.4-14.5z"/>
		</g>
		<g transform="matrix(1,0,0,1,140.85000610351562,67.05000305175781)" class="st1">
			<path class="st5" d="M-21.8,48.7V-8.8h-14.3v57.9c2-1.7,4.6-2.7,7.4-2.7C-26.1,46.5-23.7,47.3-21.8,48.7z"/>
		</g>
		<g transform="matrix(1,0,0,1,107.55000305175781,131.6999969482422)" class="st1">
			<path class="st5" d="M-44.5,54.7c4.5-3.6,9-7.3,13.3-11.1c0.1,0,0.1-0.1,0.2-0.1c-3.4-4.5-5.4-10.2-5.4-16.4v-0.3
				c0-6.2,1.9-11.9,5.3-16.3c0.1-0.1,0.2-0.3,0.3-0.4C-25.9,4.7-20,2-13.1,2c0,0,4.7,0,10,0.1c-2.4-2.1-4-5.3-4-8.7
				c0-2.8,1-5.3,2.6-7.3c-2-0.2-5.4-0.6-7.4-0.6c-24.7,0-42.9,18.9-42.9,41.7v0.3C-54.7,37.9-50.9,47.4-44.5,54.7z"/>
		</g>
		<g transform="matrix(1,0,0,1,141.10000610351562,104.9000015258789)" class="st1">
			<path class="st5" d="M-28.9,28.4c2.9,0,5.4-1.5,6.9-3.7c0.9-1.3,1.4-2.9,1.4-4.6s-0.5-3.3-1.4-4.6c-1.5-2.2-4-3.7-6.9-3.7
				c-4.6,0-8.3,3.7-8.3,8.3S-33.4,28.4-28.9,28.4z"/>
		</g>
		<g transform="matrix(1,0,0,1,111.0999984741211,183)" class="st1">
			<path class="st5" d="M-28.9,11.8c-2.9,0-5.4,1.5-6.9,3.7c-0.9,1.3-1.4,2.9-1.4,4.6c0,1.7,0.5,3.3,1.4,4.6c1.5,2.2,4,3.7,6.9,3.7
				c4.6,0,8.3-3.7,8.3-8.3C-20.6,15.5-24.3,11.8-28.9,11.8z"/>
		</g>
	</g>
</g>
</svg>
