<svg width="169" height="177" viewBox="0 0 169 177" fill="none" xmlns="http://www.w3.org/2000/svg">
<g clip-path="url(#clip0_5_850)">
<path d="M86.3214 100.575L84.0264 103.849L83.2857 103.789L82.6786 100.575H86.3214Z" fill="black"/>
<path d="M155.983 176.988L156.469 173.58L157.295 173.349L159.614 176.988H155.971H155.983Z" fill="black"/>
<path d="M2.63069e-05 84.4792C-0.0364013 37.8671 37.7634 0.0363983 84.4272 1.1019e-05C131.091 -0.0363763 168.964 37.7215 169 84.3337C169.036 130.909 131.31 168.716 84.6943 168.813C38.0184 168.886 2.63069e-05 131.043 2.63069e-05 84.4792ZM164.082 84.5884C164.556 40.681 129.306 4.71823 85.35 4.2452C41.394 3.78429 5.39132 38.9829 4.91776 82.8903C4.91776 83.4604 4.91776 84.0304 4.91776 84.5884C4.83276 128.156 40.629 163.937 84.2693 163.973C128.274 163.998 164.082 128.387 164.082 84.5884Z" fill="white"/>
<path d="M83.2857 74.6182C78.4044 79.385 73.7417 83.9213 69.1032 88.4818C63.372 94.1097 57.6164 99.7376 51.9337 105.414C50.9016 106.53 49.4323 107.124 47.9145 107.039C43.8953 106.93 39.8761 107.039 35.8448 106.991C35.1284 106.991 34.3998 106.93 33.7441 106.894C36.6098 103.886 39.2933 100.841 42.2075 98.0153C52.5772 87.8996 62.9834 77.8325 73.4381 67.8259C74.871 66.4554 74.956 65.6912 73.4381 64.2721C61.8056 53.174 50.2702 41.991 38.674 30.8564C37.8605 30.1893 36.9983 29.5829 36.0877 29.0371L36.6098 28.2608C37.1562 28.1395 37.7148 28.0667 38.2733 28.0304C42.9846 28.0304 47.6838 27.9333 52.383 28.0789C53.5608 28.1395 54.6779 28.6004 55.5522 29.3767C64.6591 38.0854 73.6931 46.8547 82.6422 55.6847C84.2693 57.2858 85.1557 57.2736 86.7828 55.6847C95.5011 46.9275 104.304 38.2552 113.193 29.6678C114.237 28.7338 115.573 28.188 116.981 28.1153C121.838 27.9212 126.707 28.0789 131.552 28.5762L92.7327 66.0066C106.891 79.6033 120.843 92.9938 135.256 106.809C133.847 106.906 133.119 106.979 132.402 106.991C128.76 106.991 125.117 106.797 121.474 107.051C118.111 107.294 115.694 106.19 113.278 103.789C104.001 94.5221 94.5176 85.4617 85.1071 76.3284C84.585 75.8069 84.0264 75.3217 83.2736 74.6182H83.2857Z" fill="white"/>
<path d="M104.074 115.578C110.218 115.578 116.216 115.263 122.178 115.663C129.464 116.148 134.6 123.244 133.58 130.752C132.463 138.854 127.278 143.354 119.009 143.354H104.074V115.578ZM108.967 120.563V138.332C113.071 138.332 117.018 138.466 120.94 138.332C125.335 138.138 128.614 134.269 128.687 129.515C128.747 124.966 125.7 120.891 121.595 120.66C117.491 120.418 113.339 120.563 108.979 120.563H108.967Z" fill="white"/>
<path d="M60.8949 115.651H66.0555C65.8126 122.249 65.8612 128.738 65.2298 135.167C64.8048 139.4 61.7813 141.911 57.6285 142.941C52.9051 144.13 47.9631 144.094 43.2639 142.82C39.0383 141.68 36.0391 138.405 35.8448 134.075C35.6019 128.035 35.7841 121.982 35.7841 115.736H40.7625V131.273C40.7625 135.822 42.3653 137.932 46.8581 138.551C49.7116 138.89 52.5894 138.83 55.4307 138.381C59.1585 137.823 60.7613 135.652 60.822 131.953C60.8949 127.404 60.822 122.856 60.8827 118.307V115.663L60.8949 115.651Z" fill="white"/>
<path d="M69.6254 143.208V138.381H90.8384C93.5705 138.381 94.9669 137.265 95.064 135.021C95.1611 132.777 93.7648 131.443 90.9234 131.298L88.7742 131.164V127.186C92.0405 127.186 95.3554 126.87 97.8325 129.563C100.31 132.256 100.188 135.603 99.0346 138.769C97.8811 141.935 94.9669 143.318 91.5912 143.318C84.6821 143.378 77.7852 143.318 70.876 143.318C70.4632 143.305 70.0382 143.269 69.6254 143.208Z" fill="white"/>
<path d="M99.4839 115.615V120.357C98.6582 120.406 97.8568 120.478 97.0676 120.478H78.8537C75.9395 120.478 74.6038 121.473 74.5188 123.632C74.4217 125.791 75.7574 126.931 78.5866 127.089C80.8694 127.222 80.9544 127.392 80.408 131.067C77.0931 131.564 73.936 131.298 71.4589 128.702C69.3947 126.579 68.7511 123.438 69.8075 120.672C70.6211 117.689 73.341 115.627 76.4252 115.639C84.0629 115.469 91.6277 115.59 99.4718 115.59L99.4839 115.615Z" fill="white"/>
<path d="M86.6857 113.747H82.4601L82.1444 110.314L78.1009 110.023L84.5486 101.945L91.0691 109.987L86.9528 110.302C86.8557 111.442 86.7828 112.473 86.6735 113.747H86.6857Z" fill="white"/>
<path d="M86.6614 136.598C86.3821 136.683 86.1028 136.756 85.8114 136.804C83.4638 136.958 82.29 135.886 82.29 133.59V124.99C82.29 121.934 82.29 121.922 85.4471 122.067C85.8114 122.067 86.1635 122.152 86.6614 122.225V136.586V136.598Z" fill="white"/>
<path d="M82.4236 150.583V145.295H86.6614V150.583H82.4236Z" fill="white"/>
<path d="M108.979 120.563C113.29 120.563 117.455 120.381 121.595 120.624C125.736 120.867 128.747 124.893 128.687 129.478C128.626 134.233 125.348 138.102 120.94 138.296C117.018 138.466 113.071 138.296 108.967 138.296V120.563H108.979Z" fill="black"/>
</g>
<defs>
<clipPath id="clip0_5_850">
<rect width="169" height="177" fill="white"/>
</clipPath>
</defs>
</svg>
