<?xml version="1.0" encoding="utf-8"?>
<!-- Generator: Adobe Illustrator 23.1.0, SVG Export Plug-In . SVG Version: 6.00 Build 0)  -->
<svg version="1.1" id="Layer_1" xmlns="http://www.w3.org/2000/svg" xmlns:xlink="http://www.w3.org/1999/xlink" x="0px" y="0px"
	 viewBox="0 0 169 177" style="enable-background:new 0 0 169 177;" xml:space="preserve">
<style type="text/css">
	.st0{clip-path:url(#SVGID_2_);}
	.st1{display:none;}
	.st2{fill:#FFFFFF;}
</style>
<g>
	<defs>
		<rect id="SVGID_1_" y="0" width="169" height="177"/>
	</defs>
	<clipPath id="SVGID_2_">
		<use xlink:href="#SVGID_1_"  style="overflow:visible;"/>
	</clipPath>
	<g class="st0">
		<path class="st1" d="M86.3,100.6l-2.3,3.3l-0.7-0.1l-0.6-3.2H86.3z"/>
		<path class="st1" d="M156,177l0.5-3.4l0.8-0.2l2.3,3.6H156L156,177z"/>
		<path class="st2" d="M0,84.5C0,37.9,37.8,0,84.4,0C131.1,0,169,37.7,169,84.3c0,46.6-37.7,84.4-84.3,84.5C38,168.9,0,131,0,84.5z
			 M164.1,84.6c0.5-43.9-34.8-79.9-78.7-80.3C41.4,3.8,5.4,39,4.9,82.9c0,0.6,0,1.1,0,1.7c-0.1,43.6,35.7,79.3,79.4,79.4
			C128.3,164,164.1,128.4,164.1,84.6z"/>
		<path class="st2" d="M83.3,74.6c-4.9,4.8-9.5,9.3-14.2,13.9c-5.7,5.6-11.5,11.3-17.2,16.9c-1,1.1-2.5,1.7-4,1.6c-4-0.1-8,0-12.1,0
			c-0.7,0-1.4-0.1-2.1-0.1c2.9-3,5.5-6.1,8.5-8.9C52.6,87.9,63,77.8,73.4,67.8c1.4-1.4,1.5-2.1,0-3.6C61.8,53.2,50.3,42,38.7,30.9
			c-0.8-0.7-1.7-1.3-2.6-1.8l0.5-0.8c0.5-0.1,1.1-0.2,1.7-0.2c4.7,0,9.4-0.1,14.1,0c1.2,0.1,2.3,0.5,3.2,1.3
			c9.1,8.7,18.1,17.5,27.1,26.3c1.6,1.6,2.5,1.6,4.1,0c8.7-8.8,17.5-17.4,26.4-26c1-0.9,2.4-1.5,3.8-1.6c4.9-0.2,9.7,0,14.6,0.5
			L92.7,66c14.2,13.6,28.1,27,42.5,40.8c-1.4,0.1-2.1,0.2-2.9,0.2c-3.6,0-7.3-0.2-10.9,0.1c-3.4,0.2-5.8-0.9-8.2-3.3
			c-9.3-9.3-18.8-18.3-28.2-27.5C84.6,75.8,84,75.3,83.3,74.6L83.3,74.6z"/>
		<path class="st2" d="M104.1,115.6c6.1,0,12.1-0.3,18.1,0.1c7.3,0.5,12.4,7.6,11.4,15.1c-1.1,8.1-6.3,12.6-14.6,12.6h-14.9V115.6z
			 M109,120.6v17.8c4.1,0,8.1,0.1,12,0c4.4-0.2,7.7-4.1,7.7-8.8c0.1-4.5-3-8.6-7.1-8.9C117.5,120.4,113.3,120.6,109,120.6L109,120.6
			z"/>
		<path class="st2" d="M60.9,115.7h5.2c-0.2,6.6-0.2,13.1-0.8,19.5c-0.4,4.2-3.4,6.7-7.6,7.8c-4.7,1.2-9.7,1.2-14.4-0.1
			c-4.2-1.1-7.2-4.4-7.4-8.7c-0.2-6-0.1-12.1-0.1-18.3h5v15.5c0,4.5,1.6,6.7,6.1,7.3c2.9,0.3,5.7,0.3,8.6-0.2
			c3.7-0.6,5.3-2.7,5.4-6.4c0.1-4.5,0-9.1,0.1-13.6L60.9,115.7L60.9,115.7z"/>
		<path class="st2" d="M69.6,143.2v-4.8h21.2c2.7,0,4.1-1.1,4.2-3.4s-1.3-3.6-4.1-3.7l-2.1-0.1v-4c3.3,0,6.6-0.3,9.1,2.4
			c2.5,2.7,2.4,6,1.2,9.2c-1.2,3.2-4.1,4.5-7.4,4.5c-6.9,0.1-13.8,0-20.7,0C70.5,143.3,70,143.3,69.6,143.2z"/>
		<path class="st2" d="M99.5,115.6v4.7c-0.8,0-1.6,0.1-2.4,0.1H78.9c-2.9,0-4.2,1-4.3,3.2c-0.1,2.2,1.2,3.3,4.1,3.5
			c2.3,0.1,2.4,0.3,1.8,4c-3.3,0.5-6.5,0.2-8.9-2.4c-2.1-2.1-2.7-5.3-1.7-8c0.8-3,3.5-5,6.6-5C84.1,115.5,91.6,115.6,99.5,115.6
			L99.5,115.6z"/>
		<path class="st2" d="M86.7,113.7h-4.2l-0.3-3.4l-4-0.3l6.4-8.1l6.5,8l-4.1,0.3C86.9,111.4,86.8,112.5,86.7,113.7L86.7,113.7z"/>
		<path class="st2" d="M86.7,136.6c-0.3,0.1-0.6,0.2-0.8,0.2c-2.3,0.2-3.5-0.9-3.5-3.2V125c0-3.1,0-3.1,3.2-2.9
			c0.4,0,0.7,0.1,1.2,0.2V136.6L86.7,136.6z"/>
		<path class="st2" d="M82.4,150.6v-5.3h4.2v5.3H82.4z"/>
		<path class="st1" d="M109,120.6c4.3,0,8.5-0.2,12.6,0.1c4.1,0.2,7.2,4.3,7.1,8.9c-0.1,4.8-3.3,8.6-7.7,8.8c-3.9,0.2-7.9,0-12,0
			L109,120.6L109,120.6z"/>
	</g>
</g>
</svg>
